<svg xmlns="http://www.w3.org/2000/svg" xmlns:xlink="http://www.w3.org/1999/xlink" width="195.667" height="200.017" viewBox="0 0 195.667 200.017">
  <defs>
    <clipPath id="clip-path">
      <rect id="Rectangle_262" data-name="Rectangle 262" width="195.667" height="200.017" fill="#fff"/>
    </clipPath>
  </defs>
  <g id="Group_245" data-name="Group 245" clip-path="url(#clip-path)">
    <path id="Path_579" data-name="Path 579" d="M187.366,26.806l-1.174-1.917C176.281,8.678,158.368-1.091,139.5.1a50.506,50.506,0,0,0-7.245.959A53.632,53.632,0,0,0,93.943,34.1C90.3,43.81,89.282,54.987,82.352,62.694c-9,10.028-24.27,10.344-37.7,9.927S15.944,72.56,6.98,82.631C1.4,88.957-.385,97.922.069,106.367c1.193,22.361,16.9,42.349,36.856,52.286s43.468,10.823,65.313,6.457c30.606-6.126,59.71-22.941,77.209-48.892S201.367,54.838,187.366,26.806Z" fill="#f5f5f5"/>
    <path id="Path_580" data-name="Path 580" d="M195.477,198.348c0,.075-43.453.131-97,.131s-97.012-.055-97.012-.131,43.424-.131,97.012-.131S195.477,198.278,195.477,198.348Z" fill="#263238"/>
    <path id="Path_581" data-name="Path 581" d="M75.639,28.144l-2.011-4.052a14.524,14.524,0,1,0-2.639,4.484h0Z" fill="#fff"/>
    <path id="Path_582" data-name="Path 582" d="M75.639,28.145l-.292.035-.875.1L71,28.634a.06.06,0,0,1-.035-.014.059.059,0,0,1-.02-.031v-.03l.085.055A14.548,14.548,0,0,1,65.2,32.736a13.962,13.962,0,0,1-2.137.633,15.858,15.858,0,0,1-2.4.3,14.412,14.412,0,0,1-5.223-.719A14.572,14.572,0,0,1,47.42,11.775l.462-.769.533-.724.266-.362.292-.332.593-.664c.2-.211.427-.4.643-.6a6.536,6.536,0,0,1,.659-.578,13.271,13.271,0,0,1,1.423-1.005,14.589,14.589,0,0,1,20.783,5.827,15.593,15.593,0,0,1,.91,2.247,18.951,18.951,0,0,1,.5,2.212,14.418,14.418,0,0,1-.764,7.083v-.035c.633,1.322,1.126,2.343,1.458,3.041.161.332.282.593.367.774l.121.256s-.055-.1-.141-.266l-.4-.779-1.508-2.986a.046.046,0,0,1,0-.035,14.512,14.512,0,0,0,.7-7.038,18.5,18.5,0,0,0-.5-2.182,15.254,15.254,0,0,0-.91-2.217A14.458,14.458,0,0,0,58.645,4.785a14.623,14.623,0,0,0-6.234,2.147,12.784,12.784,0,0,0-1.4,1.005,7.041,7.041,0,0,0-.654.568c-.206.2-.427.387-.628.6l-.583.654-.292.327-.261.352-.5.714-.457.759a14.126,14.126,0,0,0-1.93,6.581,14.4,14.4,0,0,0,14.977,15,16.927,16.927,0,0,0,2.373-.282,14.265,14.265,0,0,0,2.147-.623,14.533,14.533,0,0,0,5.806-4.022.055.055,0,0,1,.075,0,.06.06,0,0,1,0,.065h0l-.05-.07,3.434-.3.895-.075Z" fill="#263238"/>
    <path id="Path_583" data-name="Path 583" d="M53.343,20.06l1.875-1.88,3.62,3.217,7.109-6.837,1.739,1.88-9.114,8.576Z" fill="#5cffa2"/>
    <path id="Path_584" data-name="Path 584" d="M64.774,179.648l-8.727,8.285s8.627,9.848,7.541,11.884L42.523,187.681l13.021-14.629Z" fill="#455a64"/>
    <path id="Path_585" data-name="Path 585" d="M50.235,183.044a1,1,0,0,0-1.181.593.96.96,0,0,0,.578,1.181,1.055,1.055,0,0,0,1.252-.638,1,1,0,0,0-.739-1.156" fill="#fff"/>
    <path id="Path_586" data-name="Path 586" d="M42.523,187.681l1.322-1.508,19.606,12.251a1.669,1.669,0,0,1,.111,1.594Z" fill="#fff"/>
    <path id="Path_587" data-name="Path 587" d="M56.433,188.027c-.065.1-.6-.171-1.292-.161s-1.227.271-1.292.171.442-.583,1.287-.583S56.514,187.957,56.433,188.027Z" fill="#263238"/>
    <path id="Path_588" data-name="Path 588" d="M58.027,190.285c-.035.111-.578,0-1.186.216s-1,.6-1.086.533.2-.674.955-.925S58.087,190.184,58.027,190.285Z" fill="#263238"/>
    <path id="Path_589" data-name="Path 589" d="M57.63,193.632c-.1-.035.075-.623.674-1.005s1.212-.312,1.2-.2-.5.226-.975.548S57.74,193.682,57.63,193.632Z" fill="#263238"/>
    <path id="Path_590" data-name="Path 590" d="M57.775,185.513c-.1.065-.473-.362-1.066-.679s-1.146-.417-1.146-.538.654-.211,1.342.176S57.871,185.453,57.775,185.513Z" fill="#263238"/>
    <path id="Path_591" data-name="Path 591" d="M59.153,183.386c-.025.04-.457-.146-1-.654a5.3,5.3,0,0,1-.87-1,5.5,5.5,0,0,1-.392-.684,1.568,1.568,0,0,1-.161-.437.5.5,0,0,1,.292-.563.671.671,0,0,1,.3-.044.659.659,0,0,1,.286.094,1.528,1.528,0,0,1,.352.292,4.3,4.3,0,0,1,1.061,1.845,2.012,2.012,0,0,1,.08,1.217c-.065,0-.1-.457-.357-1.126a5.2,5.2,0,0,0-.593-1.1,4.836,4.836,0,0,0-.478-.553c-.181-.2-.367-.312-.5-.251s-.055.04-.05.131a1.188,1.188,0,0,0,.116.322,7.266,7.266,0,0,0,.352.654,6.764,6.764,0,0,0,.754,1.005C58.821,183.06,59.185,183.331,59.153,183.386Z" fill="#263238"/>
    <path id="Path_592" data-name="Path 592" d="M58.932,183.447a1.977,1.977,0,0,1,.352-1.166,3.953,3.953,0,0,1,.85-1.036,3.716,3.716,0,0,1,.659-.463,1,1,0,0,1,.98-.106.558.558,0,0,1,.207.239.565.565,0,0,1,.044.314,1.693,1.693,0,0,1-.131.447,2.8,2.8,0,0,1-1.543,1.478c-.739.282-1.232.141-1.217.1a9.66,9.66,0,0,0,1.1-.367,2.789,2.789,0,0,0,.935-.759,2.507,2.507,0,0,0,.352-.608c.106-.236.136-.468.04-.5a.687.687,0,0,0-.573.116,3.638,3.638,0,0,0-.6.4,4.189,4.189,0,0,0-.845.9C59.128,183.025,58.992,183.468,58.932,183.447Z" fill="#263238"/>
    <path id="Path_593" data-name="Path 593" d="M130.54,180.36l2.081,11.241s12.447,4.067,12.528,6.39l-23.683.282-1.75-17.913Z" fill="#455a64"/>
    <path id="Path_594" data-name="Path 594" d="M123.411,191.254a1.006,1.006,0,0,0-.714,1.111.949.949,0,0,0,1.1.719,1.046,1.046,0,0,0,.749-1.181,1,1,0,0,0-1.222-.623" fill="#fff"/>
    <path id="Path_595" data-name="Path 595" d="M121.465,198.273l-.372-1.719,23.271.3a1.679,1.679,0,0,1,.91,1.317Z" fill="#fff"/>
    <path id="Path_596" data-name="Path 596" d="M133.018,191.486c0,.121-.6.156-1.191.5s-.915.855-1,.809.085-.734.814-1.161S133.048,191.38,133.018,191.486Z" fill="#263238"/>
    <path id="Path_597" data-name="Path 597" d="M135.536,192.608c.025.116-.5.3-.91.794s-.543,1.005-.664,1.005-.176-.684.352-1.282S135.536,192.492,135.536,192.608Z" fill="#263238"/>
    <path id="Path_598" data-name="Path 598" d="M136.9,195.69c-.106.025-.256-.573.065-1.211s.88-.89.93-.789-.307.442-.563.97S137.025,195.679,136.9,195.69Z" fill="#263238"/>
    <path id="Path_599" data-name="Path 599" d="M132.033,188.866c-.05.106-.588-.07-1.262-.04s-1.2.226-1.257.121.452-.5,1.247-.533S132.093,188.775,132.033,188.866Z" fill="#263238"/>
    <path id="Path_600" data-name="Path 600" d="M75.874,98.653c-.392.266-1.287,13.755,0,16.711L72.6,139.671s-8.788,13.951-10.557,15.982S48.8,177.471,48.8,177.471l12.955,11.171S84.269,159.233,87.9,154.009c5.666-8.169,12.387-38.876,12.387-38.876l.875-15.243Z" fill="#222"/>
    <path id="Path_601" data-name="Path 601" d="M93.564,118.1c.392.719,17.922,27.65,17.922,27.65s2.659,14.272,3.248,20.566,4.9,22.482,4.9,22.482l14.1-1.106s-3.811-41.676-6.173-49.8-8.918-23.819-8.918-23.819L113.113,99.4l-15.941.3Z" fill="#222"/>
    <path id="Path_602" data-name="Path 602" d="M103.543,106.554a2.972,2.972,0,0,1-.09.437l-.3,1.237c-.276,1.1-.674,2.639-1.156,4.525-1.005,3.826-2.353,9.109-3.941,14.921s-3.142,11.06-4.323,14.825c-.593,1.885-1.081,3.409-1.433,4.454l-.407,1.207a2.37,2.37,0,0,1-.161.412,2.7,2.7,0,0,1,.111-.427l.362-1.222c.327-1.081.784-2.6,1.352-4.479,1.136-3.78,2.654-9.024,4.248-14.835s2.981-11.06,4.022-14.906c.5-1.885.935-3.424,1.237-4.525l.347-1.227a3.078,3.078,0,0,1,.132-.4Z" fill="#455a64"/>
    <path id="Path_603" data-name="Path 603" d="M146.858,46.663s1.483-1.171,1.961-1.136,3.464.468,3.464.468.186,1.257-.669,1.669a6.266,6.266,0,0,1-2.127.447l-.709.5Z" fill="#ffcaae"/>
    <path id="Path_604" data-name="Path 604" d="M107.947,50.382l23.36,18.334,11.559-10.878.317-2.116a7.391,7.391,0,0,1,.5-1.749l2.981-7.093L153.647,58.2s-17.168,22.416-20.184,23.2c-3.966,1.036-23.708-12.332-23.708-12.332Z" fill="#ffcaae"/>
    <path id="Path_605" data-name="Path 605" d="M146.536,53.182a6.292,6.292,0,0,1,1.553,5.781,9.268,9.268,0,0,0-1.553-5.781Z" fill="#ff9a6c"/>
    <path id="Path_606" data-name="Path 606" d="M92.835,19.582l-.457,23.93c-.161,4.087-.377,10.135,6.093,10.1,5.61-.462,7.239-5.716,7.385-9.552.07-1.8.131-3.313.151-3.519,0,0,6.138-.337,6.817-6.37.327-2.921.5-8.984.618-14.468a11.316,11.316,0,0,0-10.19-11.427l-.583-.055C96.344,7.954,92.921,13.253,92.835,19.582Z" fill="#ffcaae"/>
    <path id="Path_607" data-name="Path 607" d="M106.021,40.578a14.661,14.661,0,0,1-7.636-3.112s1.478,4.6,7.541,4.665Z" fill="#ff935c"/>
    <path id="Path_608" data-name="Path 608" d="M103.3,22.811c-.136.03-.719-.447-1.694-.724s-1.78-.221-1.865-.322.116-.126.468-.156a4.273,4.273,0,0,1,1.508.171,3.9,3.9,0,0,1,1.322.659C103.3,22.651,103.362,22.8,103.3,22.811Z" fill="#263238"/>
    <path id="Path_609" data-name="Path 609" d="M102.107,24a.824.824,0,0,1-.87.744.781.781,0,0,1-.557-.247.774.774,0,0,1-.164-.264.785.785,0,0,1-.048-.307.825.825,0,0,1,.87-.744.782.782,0,0,1,.557.247.774.774,0,0,1,.164.264.785.785,0,0,1,.048.307Z" fill="#263238"/>
    <path id="Path_610" data-name="Path 610" d="M105.544,29.064a6.038,6.038,0,0,1,1.533-.121c.241,0,.473-.025.528-.186a1.217,1.217,0,0,0-.09-.719c-.166-.593-.337-1.217-.5-1.875a31.369,31.369,0,0,1-1.106-4.881,32.26,32.26,0,0,1,1.508,4.781l.5,1.885a1.4,1.4,0,0,1,.03.945.612.612,0,0,1-.179.2.6.6,0,0,1-.248.1,1.64,1.64,0,0,1-.407,0,6.06,6.06,0,0,1-1.568-.136Z" fill="#263238"/>
    <path id="Path_611" data-name="Path 611" d="M102.865,18.125c-.106.221-.91.03-1.885.055s-1.775.216-1.885,0c-.045-.106.111-.307.447-.5a3.085,3.085,0,0,1,1.433-.362,3.013,3.013,0,0,1,1.438.322C102.749,17.819,102.91,18.02,102.865,18.125Z" fill="#263238"/>
    <path id="Path_612" data-name="Path 612" d="M112.437,20.253c-.116.176-.9-.045-1.855-.1s-1.76.045-1.855-.151c-.04-.09.121-.251.457-.387a3.338,3.338,0,0,1,1.428-.2,3.543,3.543,0,0,1,1.4.382C112.351,19.989,112.486,20.172,112.437,20.253Z" fill="#263238"/>
    <path id="Path_613" data-name="Path 613" d="M92.881,24.194c-.106-.055-4.273-1.614-4.454,2.74s4.228,3.64,4.243,3.519S92.881,24.194,92.881,24.194Z" fill="#ffcaae"/>
    <path id="Path_614" data-name="Path 614" d="M91.407,28.743a1.658,1.658,0,0,1-.211.106.764.764,0,0,1-.568,0,1.881,1.881,0,0,1-.8-1.719,2.513,2.513,0,0,1,.256-1.076.87.87,0,0,1,.6-.558.382.382,0,0,1,.437.226c.055.121,0,.206.045.216s.1-.07.07-.251a.473.473,0,0,0-.161-.276.573.573,0,0,0-.417-.131,1.071,1.071,0,0,0-.819.643,2.58,2.58,0,0,0-.312,1.2,2.02,2.02,0,0,0,1,1.93.8.8,0,0,0,.7-.09C91.392,28.848,91.427,28.753,91.407,28.743Z" fill="#ff935c"/>
    <path id="Path_615" data-name="Path 615" d="M105.624,31.955c0-.116-.835-.151-1.574-.749a4.533,4.533,0,0,1-.824-.9c-.2-.261-.332-.422-.372-.4s.025.216.171.5a3.057,3.057,0,0,0,.819,1.046,2.46,2.46,0,0,0,1.227.5C105.408,32.035,105.619,31.99,105.624,31.955Z" fill="#263238"/>
    <path id="Path_616" data-name="Path 616" d="M112.251,22.328c-.1.1-.845,0-1.825.271s-1.639.724-1.76.689.035-.161.322-.367a4.382,4.382,0,0,1,1.393-.628,3.882,3.882,0,0,1,1.468-.136C112.175,22.2,112.3,22.263,112.251,22.328Z" fill="#263238"/>
    <path id="Path_617" data-name="Path 617" d="M110.943,24.459a.825.825,0,0,1-.87.744.781.781,0,0,1-.557-.247.774.774,0,0,1-.164-.264.785.785,0,0,1-.048-.307.825.825,0,0,1,.87-.744.781.781,0,0,1,.557.247.775.775,0,0,1,.164.264.785.785,0,0,1,.048.307Z" fill="#263238"/>
    <path id="Path_618" data-name="Path 618" d="M121.782,14.531a1,1,0,0,0-.447-.588,3.047,3.047,0,0,0-1.538-.292,8.738,8.738,0,0,1-3.76-1.051,4.328,4.328,0,0,0,1.136-.749,2.6,2.6,0,0,0,.814-2.564.571.571,0,0,0-.312-.4c-.266-.09-.5.166-.7.372a2.231,2.231,0,0,1-2.106.835,3.706,3.706,0,0,1-1.558-.5l-.05-.06-.613-.654A13.664,13.664,0,0,0,108.465,5.6a14.076,14.076,0,0,0-7.486-.789,5.676,5.676,0,0,0-4.4,4.3A4.429,4.429,0,0,0,92.2,8.575h-.035c-1.619.5-2.574,2.2-3.087,3.816-.03.085-.055.176-.08.266A6.389,6.389,0,0,1,86.786,14.7c-.156.085-.337.191-.362.372a.5.5,0,0,0,.261.432,3.181,3.181,0,0,0,1.282.573,7.408,7.408,0,0,1-.558,1.111c-.191.3-.417.664-.266,1a.684.684,0,0,0,.7.327,2.011,2.011,0,0,0,.754-.317l-.568,1.267a3.8,3.8,0,0,0,1.744-.07,41.1,41.1,0,0,0,1,4.525c.669,0,1.307-.121,1.709.261.548.5.774,1.473,1.714,1.136.5-.171.94-1.151,1.111-1.634a23.564,23.564,0,0,0,1.257-9.974,7.542,7.542,0,0,1,2.388-1.629l-.075.06c1.709-.538,3.635-1.066,5.218-.231,1.227.649,1.925,1.961,2.825,3.016a8.968,8.968,0,0,0,6.44,3.273c.191,1.835-.07,4.142,0,5.852l1.649-2.7a6.168,6.168,0,0,0,.312-.6l.03-.06c.161-.322.312-.643.5-.96a1.066,1.066,0,0,0,1.594-1.377,2.417,2.417,0,0,0-.5-.533,1.684,1.684,0,0,0,1.594.458,1.328,1.328,0,0,0,.97-1.282,1.135,1.135,0,0,0-.195-.526,1.146,1.146,0,0,0-.423-.369,3.734,3.734,0,0,0,2.167-.417C121.48,15.456,121.9,15.069,121.782,14.531Z" fill="#263238"/>
    <path id="Path_619" data-name="Path 619" d="M98.43,9.846a4.932,4.932,0,0,0-.623.538,4.338,4.338,0,0,0-.98,1.986,7.41,7.41,0,0,0-.2,1.533c0,.558,0,1.156.035,1.785a16.376,16.376,0,0,1,0,2.011A6.9,6.9,0,0,1,96.5,18.74a2.172,2.172,0,0,1-.452,1,.915.915,0,0,1-.865.266,1.367,1.367,0,0,1-.754-.457A3.1,3.1,0,0,1,93.882,18h.126a5.026,5.026,0,0,1-.764,1.247,1.81,1.81,0,0,1-1.2.608,1.126,1.126,0,0,1-.618-.126.964.964,0,0,1-.412-.427,1.035,1.035,0,0,1-.116-.538A.758.758,0,0,1,91.1,18.3l.065.06a3.993,3.993,0,0,1-1.327.94,3.943,3.943,0,0,1-.407.146.548.548,0,0,1-.146.03l.136-.055c.1-.035.226-.085.4-.166a3.917,3.917,0,0,0,1.282-.955l.06.06a.779.779,0,0,0-.06.9.87.87,0,0,0,.372.377,1.111,1.111,0,0,0,.563.111,1.684,1.684,0,0,0,1.114-.584,4.989,4.989,0,0,0,.744-1.222l.09-.191.035.211a3.015,3.015,0,0,0,.5,1.483,1.2,1.2,0,0,0,.679.407.764.764,0,0,0,.729-.221,2.082,2.082,0,0,0,.422-.94,7.3,7.3,0,0,0,.161-1.005,16.2,16.2,0,0,0,0-1.971c0-.628-.045-1.232,0-1.8a7.614,7.614,0,0,1,.216-1.553,4.272,4.272,0,0,1,1.041-2.011,2.514,2.514,0,0,1,.657-.507Z" fill="#455a64"/>
    <path id="Path_620" data-name="Path 620" d="M116.991,16.23l-.05.04-.151.106c-.07.045-.156.1-.261.156a3.21,3.21,0,0,1-.372.186,5.4,5.4,0,0,1-2.6.4,6.893,6.893,0,0,1-3.615-1.448,11.887,11.887,0,0,1-3.041-3.7c-.422-.744-.759-1.508-1.136-2.212a8.049,8.049,0,0,0-1.3-1.875,4.168,4.168,0,0,0-1.719-1.106,2.921,2.921,0,0,0-.915-.131,3.258,3.258,0,0,0-.845.141,3.519,3.519,0,0,0-2.011,1.594,4.888,4.888,0,0,0-.337.9.274.274,0,0,1,0-.06l.03-.186a3.09,3.09,0,0,1,.251-.679,3.448,3.448,0,0,1,.7-.9,3.574,3.574,0,0,1,1.3-.763,3.255,3.255,0,0,1,.875-.156,3.014,3.014,0,0,1,1.005.146A4.2,4.2,0,0,1,104.578,7.8a7.946,7.946,0,0,1,1.307,1.89c.382.709.719,1.468,1.136,2.207a11.9,11.9,0,0,0,3.016,3.665,6.825,6.825,0,0,0,3.549,1.453,5.488,5.488,0,0,0,2.569-.347A5.916,5.916,0,0,0,116.991,16.23Z" fill="#455a64"/>
    <path id="Path_621" data-name="Path 621" d="M117.615,13.591a1.134,1.134,0,0,1-.236.126,4.593,4.593,0,0,1-.654.307,6.15,6.15,0,0,1-1,.307,6.454,6.454,0,0,1-2.609,0,6.243,6.243,0,0,1-1.031-.3,5.043,5.043,0,0,1-.659-.3,1.339,1.339,0,0,1-.221-.141s.342.156.91.347a6.814,6.814,0,0,0,1,.261,7.284,7.284,0,0,0,1.282.111,7.707,7.707,0,0,0,1.282-.121,7.927,7.927,0,0,0,1-.271C117.273,13.752,117.6,13.566,117.615,13.591Z" fill="#455a64"/>
    <path id="Path_622" data-name="Path 622" d="M100.989,42.318l6.219,2.514c1.508.437,4.434,2.916,6.178,4.59l7.239,9.652-11.06,13.478Z" fill="#ffc665"/>
    <path id="Path_623" data-name="Path 623" d="M92.312,37.509l-1,1.579S76.688,42.9,75.471,45.83c-1.7,4.112.533,16.886.533,16.886l3.087,27.519-4.223,15.224,38.71.664s-2.348-39.926-2.9-44.149-4.233-18.556-4.233-18.556Z" fill="#ffc665"/>
    <path id="Path_624" data-name="Path 624" d="M110.043,53.557v.131c0,.085.03.221.05.377q.049.528.151,1.448c.131,1.257.3,3.082.5,5.334.382,4.525.819,10.738,1.252,17.625s.834,13.121,1.171,17.631c.171,2.242.307,4.057.4,5.339.045.618.08,1.1.106,1.453v.382a.662.662,0,0,1,0,.126.362.362,0,0,1-.025-.126,3.632,3.632,0,0,0-.05-.377q-.049-.5-.151-1.448c-.131-1.257-.3-3.082-.5-5.334-.382-4.525-.819-10.738-1.247-17.631s-.84-13.116-1.176-17.625c-.171-2.242-.307-4.057-.4-5.339-.045-.618-.08-1.1-.106-1.453v-.382a.585.585,0,0,1,.025-.131Z" fill="#263238"/>
    <path id="Path_625" data-name="Path 625" d="M76.738,97.236l3.9,1.478L82.805,91.9s3.72,2.85,6.324,2.478A23.5,23.5,0,0,0,95.448,91.9l8.431,1.568,9.23,3.127-.679-11.407L88.013,83.948l-7.375.865Z" opacity="0.3"/>
    <path id="Exclusion_1" data-name="Exclusion 1" d="M-4968.53-1137.271h0l-10.47-3.482,2.932-9.989c8.116-3.6,33.854-15.085,43.737-19.606.494-.219.958-.48,1.449-.756l.009-.005c.253-.142.515-.289.794-.438l0-.014c-1.32-4.408-1.32-4.408,2.839-6.315.587-.27,1.184-.548,1.761-.817l.052-.024,0,0c1.84-.856,3.743-1.742,5.642-2.535a2.88,2.88,0,0,0,1.363-.993,2.869,2.869,0,0,0,.577-1.586,26.29,26.29,0,0,1,4.184-10.68,26.272,26.272,0,0,1,8.356-7.859,26.272,26.272,0,0,1,10.916-3.52c.782-.071,1.576-.107,2.359-.107a26.038,26.038,0,0,1,9.014,1.605,26.664,26.664,0,0,1,11.71,8.111,25.729,25.729,0,0,1,5.326,13.216,26.193,26.193,0,0,1-1.886,14.2,26.129,26.129,0,0,1-9.45,10.815,25.333,25.333,0,0,1-14.331,4.676,29.046,29.046,0,0,1-14.209-4.084,3.25,3.25,0,0,0-1.688-.6c-.066,0-.134-.006-.2-.006a3.27,3.27,0,0,0-1.55.392c-2.565,1.246-5.209,2.458-7.767,3.63l-1.042.478a6.8,6.8,0,0,1-2.287.81c-.739,0-1.083-.66-1.859-2.288-.142-.3-.3-.588-.5-.958-.1-.185-.219-.41-.361-.681-.727.352-1.455.714-2.16,1.064l-.037.018c-1.988.988-3.866,1.922-5.847,2.723a5.043,5.043,0,0,1-1.624.268,5.046,5.046,0,0,1-1.624-.268,62.933,62.933,0,0,1-5.953-2.624l-2.453,7.928-7.54-3.273-2.539,7.882-7.541-3.352c-.625,2.067-1.211,4.02-1.778,5.908l-.038.125-6.293,3.016Zm85.742-60.253a12.015,12.015,0,0,0-12,12,12.014,12.014,0,0,0,12,12,12.013,12.013,0,0,0,12-12A12.014,12.014,0,0,0-4882.789-1197.524Z" transform="translate(5021.789 1245.523)" fill="#4896ef"/>
    <path id="Path_627" data-name="Path 627" d="M92.831,80.023,49.36,98.87a1.438,1.438,0,0,1-1.89-.749h0a1.438,1.438,0,0,1,.749-1.89L91.684,77.389a1.433,1.433,0,0,1,1.89.744h0a1.433,1.433,0,0,1-.744,1.89Z" opacity="0.3"/>
    <path id="Path_628" data-name="Path 628" d="M95.213,80.021a1.058,1.058,0,0,1-.126.075l-.387.186-1.508.7L87.662,83.5c-4.66,2.126-11.1,5.027-18.229,8.24S55.814,97.77,51.094,99.729c-2.358,1-4.278,1.785-5.6,2.317l-1.508.6-.4.156-.136.04c.041-.023.083-.045.126-.065l.392-.176,1.508-.654,5.575-2.387c4.7-2.011,11.171-4.881,18.3-8.044l18.259-8.174,5.53-2.453,1.508-.649.4-.166Z" fill="#263238"/>
    <path id="Path_629" data-name="Path 629" d="M99.994,90.038c-.065.03-2.046-3.961-4.429-8.918s-4.253-9-4.193-9.049,2.051,3.956,4.429,8.918S100.06,90.038,99.994,90.038Z" fill="#263238"/>
    <path id="Path_630" data-name="Path 630" d="M154.579,66.038a3.822,3.822,0,0,0-.03-.4c-.03-.261-.04-.659-.075-1.161q0-.387-.045-.86c-.035-.312-.1-.654-.156-1.005s-.121-.769-.186-1.191a12.785,12.785,0,0,0-.322-1.337,23.252,23.252,0,0,0-2.71-6.5,24.236,24.236,0,0,0-6.2-6.923l-1.051-.784c-.372-.246-.764-.468-1.146-.7a10.009,10.009,0,0,0-1.191-.689l-1.267-.608-.643-.307-.674-.246-1.393-.5c-.467-.156-.955-.256-1.438-.387a12.066,12.066,0,0,0-1.473-.332,22.158,22.158,0,0,0-3.082-.357c-.528,0-1.056-.07-1.589-.065l-1.614.085a4.435,4.435,0,0,0-.814.05l-.814.126c-.543.09-1.091.156-1.639.266a25.63,25.63,0,0,0-3.248.955l-.809.3c-.136.05-.271.1-.4.151l-.392.186-1.574.764c-.5.277-1,.6-1.508.9-.251.156-.5.3-.754.473l-.714.538a27.038,27.038,0,0,0-2.765,2.348L111.626,50.2l-.312.342-.282.367-.558.749-.573.724-.5.8-.5.809-.246.4c-.075.141-.141.287-.211.427l-.836,1.725q-.332.9-.664,1.8a24.128,24.128,0,0,0,0,15.368c.221.6.442,1.207.659,1.8a18.554,18.554,0,0,0,.829,1.719l.206.427.246.4.5.809.5.8.563.749.558.749.276.367.312.347c.417.452.829.91,1.242,1.362a26.873,26.873,0,0,0,2.76,2.348l.719.538c.236.181.5.317.754.5.5.3,1,.623,1.508.9l1.574.759.392.186.4.156.809.3a25.672,25.672,0,0,0,3.248.95c.548.116,1.1.176,1.639.266l.814.126c.271.035.543.035.814.05l1.614.085c.533,0,1.061-.045,1.589-.06a22.845,22.845,0,0,0,3.082-.357,13.051,13.051,0,0,0,1.473-.337c.5-.131.97-.231,1.438-.382l1.372-.5.679-.246.643-.307,1.262-.608c.422-.191.8-.463,1.191-.684s.774-.462,1.146-.7l1.056-.789a24.307,24.307,0,0,0,6.239-6.917,23.236,23.236,0,0,0,2.679-6.535,12.953,12.953,0,0,0,.322-1.332c.065-.427.126-.824.186-1.2s.121-.709.156-1.005.03-.6.045-.855c.035-.5.055-.9.075-1.161l.03-.4v.4c0,.266-.025.659-.045,1.161,0,.261-.025.548-.035.86a9.729,9.729,0,0,1-.146,1c-.05.347-.111.769-.176,1.2a12.579,12.579,0,0,1-.307,1.342,23.374,23.374,0,0,1-2.68,6.535,24.423,24.423,0,0,1-6.224,7.023l-1.061.794c-.372.246-.764.473-1.151.714a10.417,10.417,0,0,1-1.2.694l-1.277.618-.649.307-.679.251-1.382.5c-.473.161-.96.261-1.448.392a12.306,12.306,0,0,1-1.508.342,23.287,23.287,0,0,1-3.112.367c-.5,0-1.061.075-1.6.065l-1.629-.08a4.535,4.535,0,0,1-.824-.05l-.819-.126c-.548-.091-1.106-.151-1.654-.266a25.924,25.924,0,0,1-3.283-.955l-.819-.3c-.136-.05-.277-.1-.407-.151l-.4-.191-1.589-.764c-.5-.281-1.005-.608-1.533-.915-.256-.161-.5-.3-.764-.478l-.724-.543a26.929,26.929,0,0,1-2.8-2.373l-1.252-1.372-.317-.347-.282-.377-.563-.754-.568-.754-.5-.809-.5-.819-.251-.407-.211-.432L107.34,75.6c-.221-.6-.447-1.212-.669-1.825a24.349,24.349,0,0,1,0-15.534c.226-.608.447-1.217.669-1.82a19,19,0,0,1,.84-1.739c.07-.141.136-.287.211-.427l.246-.412.5-.814.5-.809.568-.754.563-.754.287-.377.312-.347c.422-.457.84-.92,1.252-1.372a28.193,28.193,0,0,1,2.8-2.373l.724-.543c.241-.181.5-.317.764-.5.5-.307,1.005-.633,1.533-.915l1.589-.764.4-.191c.131-.055.271-.1.407-.151l.819-.3a25.857,25.857,0,0,1,3.278-.96c.553-.111,1.111-.176,1.659-.266l.819-.121c.271-.035.548-.035.824-.055l1.624-.08c.538,0,1.076.045,1.6.065a23.4,23.4,0,0,1,3.112.367,13.333,13.333,0,0,1,1.508.342c.5.136.975.236,1.448.392l1.382.5.679.251.649.307,1.277.618c.422.2.8.468,1.2.7s.779.463,1.151.709l1.061.8a24.324,24.324,0,0,1,6.214,6.993,23.243,23.243,0,0,1,2.685,6.535,13.4,13.4,0,0,1,.307,1.342c.065.427.121.829.176,1.2s.116.709.146,1.005.025.6.035.86c0,.5.035.895.045,1.166A4.6,4.6,0,0,0,154.579,66.038Z" fill="#263238"/>
    <path id="Path_631" data-name="Path 631" d="M151.206,59.824a.843.843,0,0,1-.025-.2l-.04-.578a5.331,5.331,0,0,0-.111-.925,8.282,8.282,0,0,0-.256-1.247,11.544,11.544,0,0,0-1.347-3.212A12.141,12.141,0,0,0,133.4,49.223a11.834,11.834,0,0,0-1.473.95,13.445,13.445,0,0,0-1.362,1.156,13.055,13.055,0,0,0-1.176,1.393,11.528,11.528,0,0,0-1.719,3.313,11.934,11.934,0,0,0,0,7.581,11.616,11.616,0,0,0,1.714,3.308,13.78,13.78,0,0,0,1.181,1.4,13.419,13.419,0,0,0,1.362,1.156,12.41,12.41,0,0,0,1.473.95,11.671,11.671,0,0,0,1.568.689,12.044,12.044,0,0,0,14.458-5.128,11.544,11.544,0,0,0,1.347-3.212,8.282,8.282,0,0,0,.256-1.247c.03-.186.065-.352.08-.5l.03-.422.04-.578a.843.843,0,0,1,.025-.2.955.955,0,0,1,0,.2v1.005a3.827,3.827,0,0,1-.065.5A8.322,8.322,0,0,1,150.9,62.8a11.4,11.4,0,0,1-1.322,3.263,12.228,12.228,0,0,1-14.669,5.294,12.726,12.726,0,0,1-1.6-.7,12.4,12.4,0,0,1-1.508-.965,13.9,13.9,0,0,1-1.393-1.181,13.737,13.737,0,0,1-1.207-1.418,11.954,11.954,0,0,1-1.775-3.4,12.168,12.168,0,0,1,0-7.747,12.013,12.013,0,0,1,1.755-3.378,14.3,14.3,0,0,1,1.207-1.423,13.96,13.96,0,0,1,1.393-1.176A12.411,12.411,0,0,1,133.292,49a12.755,12.755,0,0,1,1.6-.7,12.226,12.226,0,0,1,14.659,5.279,11.4,11.4,0,0,1,1.322,3.263,8.322,8.322,0,0,1,.236,1.262c0,.186.055.357.065.5s0,.3,0,.427v.578a.957.957,0,0,1,.03.206Z" fill="#263238"/>
    <path id="Path_632" data-name="Path 632" d="M118.645,42.275v47.4a28.663,28.663,0,0,0,6.777,2.247l-.5-51.72a24.4,24.4,0,0,0-6.277,2.073Z" fill="#fff" opacity="0.3"/>
    <path id="Path_633" data-name="Path 633" d="M115.207,87.821c-.075,0-.131-9.733-.131-21.738s.055-21.738.131-21.738.131,9.733.131,21.738S115.277,87.821,115.207,87.821Z" fill="#fff"/>
    <path id="Path_634" data-name="Path 634" d="M110.024,49.529a3.818,3.818,0,0,1-.377.6c-.261.372-.623.925-1.041,1.624a27.158,27.158,0,0,0-1.347,2.514,30.42,30.42,0,0,0-1.3,3.238,31.708,31.708,0,0,0-.88,3.378,28.049,28.049,0,0,0-.4,2.82c-.068.809-.116,1.468-.126,1.925a3.493,3.493,0,0,1-.05.7,4.007,4.007,0,0,1-.05-.709c0-.452,0-1.116.04-1.936a25.525,25.525,0,0,1,2.544-9.526,26.823,26.823,0,0,1,1.408-2.514c.447-.689.829-1.227,1.116-1.584a3.878,3.878,0,0,1,.463-.53Z" fill="#fff"/>
    <path id="Path_635" data-name="Path 635" d="M102.639,65.48a48.433,48.433,0,0,1-4.464,2.277A47.931,47.931,0,0,1,93.6,69.8a47.485,47.485,0,0,1,4.464-2.282,48.524,48.524,0,0,1,4.58-2.041Z" fill="#fff"/>
    <path id="Path_636" data-name="Path 636" d="M89.633,75.451a.774.774,0,0,1-.1.065l-.3.156-1.186.588c-1.031.5-2.514,1.227-4.389,2.1-3.71,1.754-8.868,4.127-14.579,6.661s-10.959,4.741-14.76,6.3c-1.9.784-3.439,1.408-4.525,1.83l-1.232.478-.322.121-.111.03a.44.44,0,0,1,.1-.055l.312-.146,1.217-.5,4.474-1.9c3.78-1.6,8.994-3.841,14.725-6.37s10.894-4.881,14.629-6.591L88.005,76.2l1.206-.543.317-.136Z" fill="#fff"/>
    <path id="Path_637" data-name="Path 637" d="M139.443,46.817c0,.05-.87-.126-2.267-.075a11.823,11.823,0,0,0-9.255,4.977c-.814,1.136-1.141,1.956-1.186,1.93a2.4,2.4,0,0,1,.216-.573,9.633,9.633,0,0,1,.819-1.463,11.38,11.38,0,0,1,9.4-5.032,10.485,10.485,0,0,1,1.674.121A2.46,2.46,0,0,1,139.443,46.817Z" fill="#fff"/>
    <path id="Path_638" data-name="Path 638" d="M143.3,44.481a3.427,3.427,0,0,1-.623-.281c-.387-.2-.96-.468-1.679-.779s-1.589-.628-2.569-.94a28.646,28.646,0,0,0-3.263-.769,27.555,27.555,0,0,0-3.333-.342,26.075,26.075,0,0,0-2.735.05c-.779.055-1.413.121-1.845.181a3.084,3.084,0,0,1-.679.065,3.43,3.43,0,0,1,.664-.166c.432-.09,1.061-.186,1.84-.266a23.039,23.039,0,0,1,2.765-.106,26.993,26.993,0,0,1,3.368.322,26.486,26.486,0,0,1,3.288.8,22.638,22.638,0,0,1,2.574,1.005,18.441,18.441,0,0,1,1.654.855,3.588,3.588,0,0,1,.573.371Z" fill="#fff"/>
    <path id="Path_639" data-name="Path 639" d="M82.7,80.109l1.714-8.677,2.021-.08,1.01-11.291L85.273,69.05l-2.207-.493-2.086,11.2Z" opacity="0.3"/>
    <path id="Path_640" data-name="Path 640" d="M100.4,82.79a32.075,32.075,0,0,1,4.022-2.559c1-.367,4.525-1.005,5.756-1.865a.909.909,0,0,1,.171,1.553,10.218,10.218,0,0,1-3.519,2.2c-.885.261-.6.9.03,1.121s5.153,1.005,5.153,1.005,5.254.116,5.686.648a.921.921,0,0,1-.027,1.153.925.925,0,0,1-.33.247c-.312.111-4.821.412-4.821.412l-2.318-.276s7.2,1.332,7.616,1.935a.8.8,0,0,1,.157.7.792.792,0,0,1-.474.541c-.367.221-3.544-.4-3.544-.4l-4.328-.538,7.878,2.257s.714.307.563.9-1.126.719-1.126.719l-8.33-1.619a49.775,49.775,0,0,1,4.238,3.217c.191.5-.649.955-.97.749s-5.53-2.448-5.53-2.448l-5.977-2.72-3.956.045,1.719-7.33Z" fill="#ffcaae"/>
    <path id="Path_641" data-name="Path 641" d="M82.494,90.5l16.987-.251-.327-7.073L80.981,79.492,83.6,66.134,71.208,63.272A125.62,125.62,0,0,0,68.337,82.5s-.85,5.354,5.213,6.842A55.071,55.071,0,0,0,82.494,90.5Z" fill="#ffcaae"/>
    <path id="Path_642" data-name="Path 642" d="M68.182,65.9l17.093,3.821s2.986-11.13,3.087-14.217-4.127-12.855-10.09-10.879c0,0-1.8-.362-3.444,2.046C74.169,47.644,68.182,65.9,68.182,65.9Z" fill="#ffc665"/>
    <path id="Path_643" data-name="Path 643" d="M87.617,54.044a9.477,9.477,0,0,0-.186-2.483,11.06,11.06,0,0,0-.925-2.514A6.36,6.36,0,0,0,84.5,46.488,7.079,7.079,0,0,0,81.479,45.3a13.886,13.886,0,0,0-2.7-.126,9.98,9.98,0,0,0-1.81.226c-.422.1-.643.186-.654.166s.05-.04.156-.085a3.263,3.263,0,0,1,.473-.181,8.543,8.543,0,0,1,1.82-.312,12.969,12.969,0,0,1,2.75.075,7.149,7.149,0,0,1,3.142,1.217,6.535,6.535,0,0,1,2.056,2.664,10.554,10.554,0,0,1,.885,2.6,6.882,6.882,0,0,1,.121,1.85,4.38,4.38,0,0,1-.065.5C87.642,53.984,87.627,54.044,87.617,54.044Z" fill="#263238"/>
    <path id="Path_644" data-name="Path 644" d="M87.617,58.946a1.264,1.264,0,0,1-.025.206c-.025.136-.065.347-.111.578-.111.538-.261,1.262-.452,2.157-.412,1.87-.98,4.429-1.634,7.375v.121h-.126l-3.424-.759-9.672-2.2-2.926-.694-.789-.2a1.214,1.214,0,0,1-.277-.09,1.2,1.2,0,0,1,.287.035l.8.156,2.941.613L81.9,68.376l3.393.759-.151.1,1.724-7.35c.216-.885.4-1.609.528-2.142l.151-.568a.861.861,0,0,1,.065-.221Z" fill="#263238"/>
    <path id="Path_645" data-name="Path 645" d="M154.781,58.09a1.056,1.056,0,0,0,1.046-.292c.553-.5,1.473-1.76,1.076-2.237a2.935,2.935,0,0,0-1.413-.674s.734-.925.417-1.6a1.041,1.041,0,0,0-.562-.57,1.041,1.041,0,0,0-.8,0,2.177,2.177,0,0,0,.025-1.79,1.172,1.172,0,0,0-.633-.674l-.875-.382a1.786,1.786,0,0,0-.111-2.137,2.238,2.238,0,0,0-.684-.5,2.881,2.881,0,0,0-3.4.5h0c.7.7,1.508,1.478,1.322,2.056,0,0-3.7,2.448-2.74,3.745.613.84,1.257.463,1.257.463s-.915.835-.432,1.388a1.042,1.042,0,0,0,.578.312,1.649,1.649,0,0,0,1.388-.2l.608-.342a1.2,1.2,0,0,0,.251,1.212,1.127,1.127,0,0,0,.136.1,1.352,1.352,0,0,0,1.473-.045l1.372-.835.121.674S153.392,57.16,154.781,58.09Z" fill="#ffcaae"/>
    <path id="Path_646" data-name="Path 646" d="M154.781,58.093a1.954,1.954,0,0,1-.468-.357,1.405,1.405,0,0,1-.362-.613,1.113,1.113,0,0,1-.01-.5,1.128,1.128,0,0,1,.21-.454v.05c-.04-.211-.08-.437-.126-.674l.106.045-.82.553-.447.3a1.768,1.768,0,0,1-.533.271,1.376,1.376,0,0,1-1.252-.226,1,1,0,0,1-.362-.613,1.634,1.634,0,0,1,.04-.729l.151.121c-.3.161-.568.342-.91.5a1.745,1.745,0,0,1-1.121.075,1.342,1.342,0,0,1-.558-.241.714.714,0,0,1-.215-.257.725.725,0,0,1-.077-.326,1.221,1.221,0,0,1,.211-.6,2.806,2.806,0,0,1,.4-.5l.141.191a.935.935,0,0,1-.835,0,1.478,1.478,0,0,1-.618-.558,1,1,0,0,1-.142-.417,1.017,1.017,0,0,1,.052-.438,2.523,2.523,0,0,1,.387-.749,10.52,10.52,0,0,1,2.514-2.267l-.05.07a.908.908,0,0,0-.021-.352.9.9,0,0,0-.155-.317,4.382,4.382,0,0,0-.5-.644c-.2-.211-.4-.412-.6-.613l-.09-.085.085-.1a2.691,2.691,0,0,1,1.634-.85,3.411,3.411,0,0,1,1.77.246,2.042,2.042,0,0,1,1.247,1.207A2.015,2.015,0,0,1,153.2,49.9l-.05-.176.9.4a1.311,1.311,0,0,1,.679.759,2.377,2.377,0,0,1-.055,1.855l-.131-.156a1.186,1.186,0,0,1,.97.045,1.3,1.3,0,0,1,.573.729,1.39,1.39,0,0,1-.09.865,2.913,2.913,0,0,1-.4.694l-.05-.141a3.561,3.561,0,0,1,1.131.437.928.928,0,0,1,.4.427.949.949,0,0,1-.035.548,4.194,4.194,0,0,1-.94,1.418,1.426,1.426,0,0,1-.92.5.836.836,0,0,1-.276,0,.1.1,0,0,1-.049-.006.1.1,0,0,1-.041-.029,1.194,1.194,0,0,0,.362,0,1.408,1.408,0,0,0,.86-.533,4.262,4.262,0,0,0,.875-1.388.808.808,0,0,0,0-.457.781.781,0,0,0-.342-.347,3.366,3.366,0,0,0-1.081-.392l-.131-.03.08-.111a1.844,1.844,0,0,0,.432-1.4,1.086,1.086,0,0,0-.5-.6.971.971,0,0,0-.794-.03l-.261.1.131-.251a2.181,2.181,0,0,0,0-1.669,1.036,1.036,0,0,0-.558-.618l-.9-.392-.126-.055.075-.126a1.782,1.782,0,0,0,.221-1.443,1.8,1.8,0,0,0-1.106-1.051,3.193,3.193,0,0,0-1.639-.226,2.437,2.437,0,0,0-1.478.769v-.181c.206.2.407.407.608.618a4.813,4.813,0,0,1,.543.689,1.107,1.107,0,0,1,.193.419,1.12,1.12,0,0,1,.007.461v.045l-.04.03a10.5,10.5,0,0,0-2.447,2.2c-.3.412-.548.945-.292,1.327a1.254,1.254,0,0,0,.5.468.709.709,0,0,0,.613,0l.7-.357-.563.548a1.549,1.549,0,0,0-.533.915c-.025.322.332.538.659.6a1.509,1.509,0,0,0,1.005-.05,9.236,9.236,0,0,0,.89-.5l.216-.116-.07.236a1,1,0,0,0,.246,1.126,1.186,1.186,0,0,0,1.086.211,4.338,4.338,0,0,0,.94-.538l.829-.533.085-.06v.1c.035.241.075.468.111.679a1.04,1.04,0,0,0-.206.86,1.426,1.426,0,0,0,.327.593,1.936,1.936,0,0,0,.437.485Z" fill="#ff9a6c"/>
    <path id="Path_647" data-name="Path 647" d="M153.248,49.469a1.9,1.9,0,0,1-.251.91,5.676,5.676,0,0,1-1.4,1.82,10.674,10.674,0,0,1-1.875,1.3,3.3,3.3,0,0,1-.85.4,3.482,3.482,0,0,1,.754-.563A15.961,15.961,0,0,0,151.421,52a6.773,6.773,0,0,0,1.408-1.7C153.107,49.8,153.207,49.453,153.248,49.469Z" fill="#ff9a6c"/>
    <path id="Path_648" data-name="Path 648" d="M154.58,52.335c.035,0-.035.317-.4.608s-.85.613-1.4,1.005a11.191,11.191,0,0,1-2.086,1.237,11.127,11.127,0,0,1,1.941-1.453c.553-.372,1.076-.694,1.438-.925a3.512,3.512,0,0,0,.507-.472Z" fill="#ff9a6c"/>
    <path id="Path_649" data-name="Path 649" d="M155.586,54.622c.04.055-.272.347-.739.553s-.9.241-.91.171.357-.216.8-.412S155.555,54.562,155.586,54.622Z" fill="#ff9a6c"/>
    <path id="Path_650" data-name="Path 650" d="M155.369,55.322c0,.075-.347.146-.689.392s-.528.543-.6.5.035-.437.447-.729a.859.859,0,0,1,.842-.163Z" fill="#ff9a6c"/>
  </g>
</svg>
