<svg xmlns="http://www.w3.org/2000/svg" xmlns:xlink="http://www.w3.org/1999/xlink" width="755" height="460" viewBox="0 0 755 460">
  <defs>
    <clipPath id="clip-path">
      <rect id="Rectangle_250" data-name="Rectangle 250" width="755" height="460" transform="translate(0.036)" fill="#cedbff"/>
    </clipPath>
  </defs>
  <g id="Group_213" data-name="Group 213" transform="translate(-0.036)" clip-path="url(#clip-path)">
    <path id="Path_257" data-name="Path 257" d="M755.1,264.459H.111v20.814H755.1Z" transform="translate(0.073 174.463)" fill="#65617d"/>
    <path id="Path_258" data-name="Path 258" d="M312.794,102.091a14.1,14.1,0,0,0,.116,1.65A14.1,14.1,0,0,1,312.794,102.091Z" transform="translate(205.22 67.349)" fill="#f9e326" opacity="0.1"/>
    <path id="Path_259" data-name="Path 259" d="M317.954,109.62a12.379,12.379,0,0,1-2.689-1.907A12.379,12.379,0,0,0,317.954,109.62Z" transform="translate(206.842 71.058)" fill="#f9e326" opacity="0.1"/>
    <path id="Path_260" data-name="Path 260" d="M341.217,399.49a5.705,5.705,0,0,0-.55-.382s-.715-8.237-5.172-13.327-5.293-19.143-5.293-19.143a10.465,10.465,0,0,0-1.674-.138c-.2-.438-.515-1.124-.858-1.929a22.959,22.959,0,0,1-1.688-5.329c-.114-2.159-5.293-13.931-5.293-13.931s-5.414-27.5-15.292-36.221c0,0-3.97-5.58-3.97-8.6s-4.571-4.363-4.571-4.363-3.017-8.841-2.767-11.268-6.623-10.547-6.623-10.547-.909-8.237-2.676-10.288-1.429-7.655-1.429-7.655-5.172-4.83-4.692-7.983-1.567-8.367-1.567-8.367,3.576-6.358,4-11.52a10.3,10.3,0,0,0,0-1.944,6.175,6.175,0,0,0,2.254-.8c3.612-3.037-.838-31.275-.838-31.275s-4.942-15.84-2.41-27.742S271.8,99.741,271.8,99.741a66.763,66.763,0,0,0-3.625-9.972c-.123-.231-.243-.446-.366-.655a6.255,6.255,0,0,0,1.825-3.319s5.185-7.265,2.145-9.36c-2.761-1.886-7.3-2.657-8.489-5.371a4.173,4.173,0,0,1-.172-.526c2.948.641,5.444,1.217,6.187,1.5,2.146.806,7.547,1.778,8.269-3.6s-9.95-18.655-10.915-19.144-2.567-4.522-2.567-4.522c1.123-2.1-1.924-4.522-1.924-4.522l-1.573.842c-.215-3.881-.672-8.273-.672-8.273s-1.209-2.75-3.377-12.117-6.737-5.04-8.34-5.256-10.513,1.217-13.883,2.023-18.217,11.714-19.312,11.952-5.136,7.754-5.621,9.36c-.172.576.715,1.246,1.873,1.865-.171.231-.336.461-.5.72a20.973,20.973,0,0,0,4.47,28.079c-.257.619-.515,1.246-.715,1.886a10.508,10.508,0,0,0-.328,1.231,10.216,10.216,0,0,0-3.446,2.7,10.32,10.32,0,0,0-2.012,3.9c-1.015,3.794-2.009,8.805-.793,10.591a8.241,8.241,0,0,1,1.431,5.7c.108.482,8.047,7.272,8.047,11.03s5.3-.612,6.265-1.44c.194-.173,1.138-.885,2.539-1.9l-.586,1.4c-2,4.694-4.892,11.2-5.808,11.887-1.431,1.094-10.114,31.751-9.87,35.38s-.715,23.515-.715,23.515-3.011,28.338-5.293,31.987c0,0-1.573,13.444-3.017,13.8s-2.039,3.276,5.55,4.616c2.56.446,6.187.936,9.864,1.389l-1.023,1.807L202.5,251.535l-10.73,25.8s-1.923,6.552-3.847,6.552-3.248,6.415-3.248,6.415-3.5,6.9-2.282,8.6,2.282,6.177.715,6.79-2.632,16.559-2.632,16.559l-8.584,30.9s-2.41,2.159-1.924,4.723-2.41,2.778-2.41,2.778a16.727,16.727,0,0,0-1.56,3.6c-.035.136-.05.267-.071.388a3.521,3.521,0,0,0-1.623,1.484c-2.862,4.974-7.224,15.264-9.741,16.481a27.071,27.071,0,0,1-11.924,1.937c-4.1-.36-9.148,1.353-11.308.065a21.631,21.631,0,0,0-7.489-2.161c-2.532-.151-4.241.72-2.267,4.133,4.1,7.012,15.65,15.258,18.3,15.991s25.519,10.181,27.93,11.268,8.54,2.159,8.791,0a36.328,36.328,0,0,0-.608-7.034.212.212,0,0,0,0-.065c.436-.871,4.77-9.749,4.433-12.176-.371-2.541,10.594-16.228,8.183-20.232,0,0,.151-.77.336-1.814a37,37,0,0,0,.629-4.845c0-1.822,8.3-15.991,8.3-15.991s9.627-21.1,10.014-27.144,3-7.034,3-7.034.48-.49,1.2-3.268.121-7.633.121-7.633,4.086-2.88,4.213-4.73,27.18-36.948,27.18-36.948,1.81.36,2.646,3.514,24.075,45.927,24.075,45.927,10.471,3.024,11.2,9.922l4.334,7.638,8.411,15.12s2.661,8.006,6.03,10.547c0,0,2.146,4.363,1.323,6.416s3.239,3.643,3.239,3.643.666,3.261.974,5.449A11.1,11.1,0,0,1,306,374.86a4.717,4.717,0,0,0-.894,4.795c2.411,8.114,5.3,13.082,2.862,15.838s-8.661,10.541-8.661,10.541-9.3,2.793-11.329,3.6c-1.259.526-1.931,2.355-1.017,4.133a6.442,6.442,0,0,0,3.677,2.88c5.172,1.945,29,1.089,29,1.089s22.889-8.6,23.833-12.6A5.265,5.265,0,0,0,341.217,399.49Z" transform="translate(79.203 9.653)" opacity="0.1"/>
    <path id="Path_261" data-name="Path 261" d="M316.525,61.83a15.435,15.435,0,0,1-.079,1.728A20.792,20.792,0,0,1,309.321,77.5,20.517,20.517,0,0,1,280.54,75.57a20.848,20.848,0,0,1,1.32-29.007,20.517,20.517,0,0,1,28.837.724A20.824,20.824,0,0,1,316.525,61.83Z" transform="translate(180.62 27.044)" fill="#fdc2cc"/>
    <path id="Path_262" data-name="Path 262" d="M279.691,49.05c-.114.943.164,1.894.086,2.837a10.312,10.312,0,0,1-1.338,3.413,4.179,4.179,0,0,0-.373,3.55c.459.936,1.431,1.44,2.146,2.268a5.284,5.284,0,0,1,.651,4.831c-.343,1.159-.922,2.455-.315,3.5.53.9,1.8,1.231,2.146,2.21a2.808,2.808,0,0,1-.186,1.886c-.545,1.476-1.267,2.88-1.745,4.377a7.653,7.653,0,0,0-.243,4.629,1.149,1.149,0,0,0,.278.518,1.286,1.286,0,0,0,.715.23l1.974.209c.78.086,1.746.079,2.146-.612.186-.331.2-.785.522-.979s.9.144,1.245.49a12.351,12.351,0,0,0,7.338,3.6,3.068,3.068,0,0,0,2.145-.331c.595-.418.888-1.166,1.431-1.591,1.317-.979,3.269.122,4.793-.482,1.351-.54,1.86-2.2,1.916-3.672s-.136-3,.493-4.32a18.849,18.849,0,0,1,1.838-2.477,8.222,8.222,0,0,0,1.181-5.76,21.264,21.264,0,0,0-1.789-5.7c-1.366-3.168-2.946-6.357-5.493-8.64A9.863,9.863,0,0,1,299.71,51.5c-1.158-1.642-.851-4.046-2.145-5.58-1.037-1.238-2.8-1.534-4.413-1.5a15.791,15.791,0,0,0-6.437,1.483,8.02,8.02,0,0,1-1.931.72c-1.252.223-1.875-.857-3.084-.317a3.5,3.5,0,0,0-2.009,2.75Z" transform="translate(182.264 29.298)" fill="#464a5f"/>
    <g id="Group_212" data-name="Group 212" transform="translate(460.054 73.819)" opacity="0.1">
      <path id="Path_263" data-name="Path 263" d="M282.945,46.637a7.666,7.666,0,0,0,1.939-.72,15.757,15.757,0,0,1,6.185-1.44h-.714a15.791,15.791,0,0,0-6.437,1.483,8.716,8.716,0,0,1-1.81.72A2.015,2.015,0,0,0,282.945,46.637Z" transform="translate(-274.965 -44.478)" opacity="0.1"/>
      <path id="Path_264" data-name="Path 264" d="M284.461,82.793l-1.982-.209a1.265,1.265,0,0,1-.715-.231,1.049,1.049,0,0,1-.278-.511,7.739,7.739,0,0,1,.235-4.637c.487-1.5,1.209-2.88,1.745-4.378a2.759,2.759,0,0,0,.187-1.886c-.366-.979-1.631-1.31-2.146-2.21-.616-1.037,0-2.34.315-3.5a5.284,5.284,0,0,0-.651-4.831c-.666-.806-1.666-1.332-2.146-2.268a4.164,4.164,0,0,1,.364-3.542,10.032,10.032,0,0,0,1.345-3.42c.079-.943-.2-1.894-.084-2.837a3.481,3.481,0,0,1,2.03-2.686,1.763,1.763,0,0,1,.237-.072,1.625,1.625,0,0,0-1.2.072,3.5,3.5,0,0,0-2.037,2.686c-.116.943.164,1.894.084,2.837a10.343,10.343,0,0,1-1.336,3.42,4.163,4.163,0,0,0-.373,3.542c.459.936,1.431,1.44,2.146,2.268a5.283,5.283,0,0,1,.651,4.831c-.343,1.159-.922,2.462-.315,3.5.528.9,1.8,1.231,2.145,2.21a2.788,2.788,0,0,1-.185,1.886c-.543,1.476-1.265,2.88-1.745,4.378a7.688,7.688,0,0,0-.242,4.637,1.121,1.121,0,0,0,.278.511,1.281,1.281,0,0,0,.715.231l1.974.209a4.549,4.549,0,0,0,1.037,0Z" transform="translate(-277.795 -43.806)" opacity="0.1"/>
      <path id="Path_265" data-name="Path 265" d="M292.06,71.144a12.427,12.427,0,0,1-7.338-3.6c-.336-.346-.83-.72-1.245-.49a.434.434,0,0,0-.128.13,3.337,3.337,0,0,1,.414.36,12.406,12.406,0,0,0,7.338,3.6,4.859,4.859,0,0,0,1.166,0Z" transform="translate(-274.152 -29.63)" opacity="0.1"/>
      <path id="Path_266" data-name="Path 266" d="M291.429,68.1a12.245,12.245,0,0,0,1.982.079A10.309,10.309,0,0,0,291.429,68.1Z" transform="translate(-268.851 -28.907)" opacity="0.1"/>
    </g>
    <path id="Path_267" data-name="Path 267" d="M413.1,300.632c-1.323,7.157-23.111,8.367-22.781,8.128a5.16,5.16,0,0,0-.123-1.944c-.306-2.159-.972-5.442-.972-5.442s-4.077-1.585-3.239-3.651-1.323-6.415-1.323-6.415c-3.37-2.541-6.023-10.547-6.023-10.547l-8.418-15.12L365.883,258c-.715-6.9-11.2-9.92-11.2-9.92s-23.232-42.774-24.075-45.929-2.646-3.505-2.646-3.505-27.051,35.106-27.173,36.963-4.213,4.73-4.213,4.73.6,4.846-.121,7.625-1.2,3.27-1.2,3.27-2.653.971-3,7.034-10.014,27.143-10.014,27.143-8.3,14.17-8.3,16a36.985,36.985,0,0,1-.629,4.846c-.179,1.037-.336,1.814-.336,1.814s-20.7-7.8-22.258-8.38c-.537-.209-.565-.914-.358-1.751a16.709,16.709,0,0,1,1.558-3.6s2.862-.229,2.411-2.778,1.924-4.723,1.924-4.723l8.582-30.9s1.073-15.989,2.64-16.6.479-5.1-.715-6.781,2.282-8.64,2.282-8.64,1.315-6.415,3.246-6.415,3.849-6.552,3.849-6.552l10.728-25.8L299.68,162.54l2.711-4.773s53.929-4.853,60.545-1.7c2.224,1.057,2.789,3.391,2.56,6.018-.457,5.185-4,11.52-4,11.52s2.045,5.22,1.567,8.367,4.692,7.991,4.692,7.991-.358,5.58,1.431,7.646,2.675,10.3,2.675,10.3,6.859,8.121,6.623,10.547,2.767,11.259,2.767,11.259,4.571,1.339,4.571,4.363,3.97,8.64,3.97,8.64c9.827,8.733,15.243,36.236,15.243,36.236s5.179,11.757,5.293,13.925a21.726,21.726,0,0,0,1.688,5.334C412.6,299.581,413.1,300.632,413.1,300.632Z" transform="translate(164.177 102.254)" fill="#cedbff"/>
    <path id="Path_268" data-name="Path 268" d="M315.2,61.82a15.838,15.838,0,0,1-.079,1.728c-2.431,1.267-4.849,2.5-6.859,3.521-2.86,1.44-4.856,2.419-4.856,2.419s-10.515-6.48-12.439-9.453-7.868-7.509-7.868-7.509-1.487-.454-3.1-1.1a20.98,20.98,0,0,1-2.668-1.253A20.74,20.74,0,0,1,315.231,61.82Z" transform="translate(181.948 27.055)" opacity="0.1"/>
    <path id="Path_269" data-name="Path 269" d="M283.651,58.536s-7.625-2.347-7.153-3.96,4.491-9.129,5.614-9.36,15.971-11.153,19.312-11.959S313.7,31,315.307,31.241s6.181-4.118,8.347,5.249,3.368,12.117,3.368,12.117,1.282,12.2.558,13.9-23.667,13-23.667,13-10.515-6.48-12.437-9.453S283.651,58.536,283.651,58.536Z" transform="translate(181.393 20.079)" fill="#cedbff"/>
    <path id="Path_270" data-name="Path 270" d="M345.893,162.1c-10.4,2.224-50.247,2.224-50.247,2.224s-8.095-.813-15.584-1.764l2.709-4.773s53.931-4.853,60.547-1.7C345.557,157.122,346.122,159.469,345.893,162.1Z" transform="translate(183.745 102.266)" opacity="0.1"/>
    <path id="Path_271" data-name="Path 271" d="M354.193,212.779c-3.576,3.024-52.485,3.024-52.485,3.024s-16.851-1.7-24.426-3.024-7-4.249-5.549-4.616,3.017-13.8,3.017-13.8c2.282-3.643,5.293-31.989,5.293-31.989s.966-19.872.715-23.515,8.426-34.285,9.87-35.38c.916-.72,3.806-7.2,5.808-11.887,1.151-2.722,2.024-4.824,2.024-4.824C304.591,75.622,334.8,72.944,337.206,74.4a6.264,6.264,0,0,1,1.8,2.4,65.994,65.994,0,0,1,3.625,9.964s10.837,55.121,8.312,67,2.41,27.742,2.41,27.742S357.8,209.747,354.193,212.779Z" transform="translate(177.698 48.841)" fill="#2f77c9"/>
    <path id="Path_272" data-name="Path 272" d="M305.046,151.861H294.21v4.845h10.836Z" transform="translate(193.028 100.182)" fill="#5f5d7e"/>
    <path id="Path_273" data-name="Path 273" d="M287.916,159.875s-5.543,10.079-7.467,10.418-4.692,15.631,6.379,20.879,11.444-15.631,11.444-15.631l4.407-17.568-12-4.484Z" transform="translate(182.829 101.255)" opacity="0.1"/>
    <path id="Path_274" data-name="Path 274" d="M287.331,159.3s-5.536,10.079-7.461,10.425-4.7,15.631,6.381,20.837,11.444-15.631,11.444-15.631l4.4-17.568-11.987-4.486Z" transform="translate(182.449 100.854)" fill="#464a5f"/>
    <path id="Path_275" data-name="Path 275" d="M311.8,183.689s8.668,9.361,13.36,5.213S311.8,183.689,311.8,183.689Z" transform="translate(204.566 121.179)" opacity="0.1"/>
    <path id="Path_276" data-name="Path 276" d="M320.011,192.467s7.1,8.964,7.217,4.118S320.011,192.467,320.011,192.467Z" transform="translate(209.955 126.944)" opacity="0.1"/>
    <path id="Path_277" data-name="Path 277" d="M324.369,206.222s5.056.36,6.866-2.305Z" transform="translate(212.815 134.523)" opacity="0.1"/>
    <path id="Path_278" data-name="Path 278" d="M327.423,210.5s3.368,1.822,5.657-.964Z" transform="translate(214.818 138.229)" opacity="0.1"/>
    <path id="Path_279" data-name="Path 279" d="M290.5,170.914s2.146,12.361,11.073,17.206Z" transform="translate(190.594 112.751)" opacity="0.1"/>
    <path id="Path_280" data-name="Path 280" d="M268.871,211.812s-1.086,3.155,4.935,4S268.871,211.812,268.871,211.812Z" transform="translate(176.353 139.732)" opacity="0.1"/>
    <path id="Path_281" data-name="Path 281" d="M270.512,205.306s3.97,7.494,5.536,7.012Z" transform="translate(177.48 135.44)" opacity="0.1"/>
    <path id="Path_282" data-name="Path 282" d="M273.566,201.336s1.2,3.427,4.213,3.067S273.566,201.336,273.566,201.336Z" transform="translate(179.483 132.821)" opacity="0.1"/>
    <path id="Path_283" data-name="Path 283" d="M273.323,249.776c-.179,1.037-.336,1.814-.336,1.814s-20.714-7.761-22.273-8.343c-.537-.209-.565-.914-.358-1.749,3.476-3.132,11.558,2.6,11.558,2.6S270.2,246.262,273.323,249.776Z" transform="translate(164.177 158.697)" opacity="0.1"/>
    <path id="Path_284" data-name="Path 284" d="M278.237,283.6a.259.259,0,0,1,0,.071,37.751,37.751,0,0,1,.608,7.027c-.229,2.181-6.386,1.087-8.791,0s-25.275-10.547-27.893-11.268-14.2-8.971-18.3-15.991c-1.974-3.406-.272-4.32,2.261-4.133a21.63,21.63,0,0,1,7.489,2.161c2.145,1.288,7.224-.433,11.308-.073a27.091,27.091,0,0,0,11.922-1.937c2.526-1.217,6.853-11.52,9.743-16.479s12.288,1.7,12.288,1.7,9.569,2.5,12.008,6.524-8.583,17.689-8.183,20.223S278.674,282.733,278.237,283.6Z" transform="translate(146.31 159.083)" fill="#53586f"/>
    <path id="Path_285" data-name="Path 285" d="M278.828,283.492c-.25,2.159-6.387,1.087-8.79,0s-25.277-10.547-27.9-11.268-14.2-8.971-18.295-15.991c-1.974-3.406-.272-4.32,2.259-4.133a17.651,17.651,0,0,0,6.166,7.2c7.1,5.041,22.51,12.154,22.51,12.154s8.668-.36,12.638,2.159c2.618,1.678,7.711,2.4,10.857,2.714a.274.274,0,0,1,0,.073A40.363,40.363,0,0,1,278.828,283.492Z" transform="translate(146.298 166.294)" fill="#464a5f"/>
    <path id="Path_286" data-name="Path 286" d="M259.387,247.658s-8.547,16.328-8.547,17.424-3.369,11.268-3.369,11.268l5.959,2.426,2.231-13.09,7.939-15.752Z" transform="translate(162.363 163.379)" fill="#464a5f"/>
    <path id="Path_287" data-name="Path 287" d="M357.649,243.694c-1.323,7.157-23.109,8.367-22.781,8.129a5.2,5.2,0,0,0-.121-1.945c2.883-3.527,10.851-3.527,10.851-3.527a16.221,16.221,0,0,1,10.965-5.04C357.149,242.644,357.649,243.694,357.649,243.694Z" transform="translate(219.624 159.192)" opacity="0.1"/>
    <path id="Path_288" data-name="Path 288" d="M380.068,281.233c-.959,4-23.833,12.6-23.833,12.6s-23.831.856-29-1.08a6.479,6.479,0,0,1-3.677-2.88c-.914-1.771-.242-3.6,1.017-4.126,2.052-.85,11.329-3.635,11.329-3.635s6.258-7.754,8.661-10.549-.479-7.754-2.862-15.838,11.516-8.164,11.516-8.164a15.676,15.676,0,0,1,13.482-4.976s.836,14.061,5.293,19.145,5.172,13.334,5.172,13.334a5.08,5.08,0,0,1,.55.373A5.564,5.564,0,0,1,380.068,281.233Z" transform="translate(212.003 159.941)" fill="#53586f"/>
    <path id="Path_289" data-name="Path 289" d="M379.9,268.1c-.959,4-23.831,12.6-23.831,12.6s-23.833.858-29-1.079a6.48,6.48,0,0,1-3.675-2.881c4.927.778,14.219,2.161,15.734,1.816,2.039-.483,10.014.358,14.562-3.643s11.445-6.79,11.445-6.79,8.2-3.356,12.459-5.761A5.476,5.476,0,0,1,379.9,268.1Z" transform="translate(212.172 173.077)" fill="#464a5f"/>
    <path id="Path_290" data-name="Path 290" d="M343.2,249.762l4.213,15.99,5.422,12.6,4.334-2.06-6.381-12.232-4.577-14.3Z" transform="translate(225.166 164.767)" fill="#464a5f"/>
    <path id="Path_291" data-name="Path 291" d="M279.676,249.933l-4.213-2.275s-8.547,16.328-8.547,17.424c0,.863-2.145,7.465-3,10.144a38.474,38.474,0,0,0-9.155-.822s-15.407-7.142-22.51-12.152a17.639,17.639,0,0,1-6.166-7.2c-2.532-.151-4.235.72-2.261,4.133,4.092,7.019,15.643,15.256,18.3,15.991s25.514,10.181,27.9,11.268,8.54,2.159,8.79,0a36.228,36.228,0,0,0-.608-7.027.551.551,0,0,0,0-.073,39.576,39.576,0,0,1-8.584-1.648l2.039-11.973Z" transform="translate(146.287 163.379)" opacity="0.1"/>
    <path id="Path_292" data-name="Path 292" d="M377.567,270.613c-2.254,1.295-5.614,2.843-8.275,4.016l-5.508-10.576-4.569-14.292H356.2l4.213,15.99,4.6,10.7a47.276,47.276,0,0,0-11.336,6.745c-4.577,4-12.525,3.162-14.562,3.645-1.5.345-10.786-1.037-15.736-1.816a6.484,6.484,0,0,0,3.677,2.881c5.17,1.935,29,1.079,29,1.079s22.887-8.6,23.831-12.6A5.534,5.534,0,0,0,377.567,270.613Z" transform="translate(212.166 164.767)" opacity="0.1"/>
    <path id="Path_293" data-name="Path 293" d="M289.675,69.847s10.672-12.679,14.049-14.7,16.929-9.288,16.929-9.288,3.047,2.426,1.924,4.522c0,0,1.61,4.039,2.569,4.529s11.636,13.73,10.914,19.144-6.1,4.442-8.267,3.6-18.932-4.118-18.932-4.118Z" transform="translate(190.052 30.252)" fill="#2f77c9"/>
    <path id="Path_294" data-name="Path 294" d="M299.514,55.44s7.3-2.16,7.868,0S299.514,55.44,299.514,55.44Z" transform="translate(196.508 35.94)" opacity="0.1"/>
    <path id="Path_295" data-name="Path 295" d="M328.867,76.8a4.932,4.932,0,0,1-.465.389c-1.431.965-16.736.965-20.219.965-2.9,0-16.68,9.633-21.88,13.435,1.151-2.722,2.024-4.824,2.024-4.824,6.131-11.145,36.343-13.824,38.746-12.369A6.262,6.262,0,0,1,328.867,76.8Z" transform="translate(187.839 48.841)" opacity="0.1"/>
    <path id="Path_296" data-name="Path 296" d="M337.558,82.014s-.48,2.419-1.924,3.391-16.736.972-20.219.972-22.889,14.054-23.833,14.9-6.265,5.205-6.265,1.44-7.939-10.548-8.047-11.03a8.241,8.241,0,0,0-1.431-5.7c-1.216-1.786-.222-6.8.795-10.591a10.307,10.307,0,0,1,5.457-6.6c4.413-2.16,11.329-5.594,14.935-7.877a8.293,8.293,0,0,1,4.213-.806c9.7,0,29.768,6.386,29.768,6.386a3.662,3.662,0,0,0,.235.792c1.194,2.714,5.722,3.478,8.491,5.371C342.743,74.742,337.558,82.014,337.558,82.014Z" transform="translate(180.607 39.656)" fill="#cedbff"/>
    <path id="Path_297" data-name="Path 297" d="M279.379,72.649s11.672.6,12.282,1.152S279.379,72.649,279.379,72.649Z" transform="translate(183.297 47.926)" opacity="0.1"/>
    <path id="Path_298" data-name="Path 298" d="M310.163,80.36s-18.26,8.964-16.9,16.235c0,0,2.325,2.542,1.245,5.328s-2.045,22.413-.715,23.868,2.767,4.967,2.045,7.394,1.08,13.326,1.08,13.326,2.655,5.45-.479,6.667-.358,5.206-.358,5.206,0,4.967-2.933,5.211-.558,6.546-.558,6.546-1.429,4.241-3.733,3.874,1.323,6.061,1.323,6.061-8.791,5.933-7.7,15.754l-1.217,6.659,17.331,7.517,2.289-4.362s4.692-1.1,4.092-4,3.132-4.6,3.132-4.6.715-4.486,3.127-6.423,6.136-10.181,6.136-10.181,2.146-4.6,5.179-6.538,5.414-11.39,5.414-11.39l1.81-65.071S323.158,77.451,310.163,80.36Z" transform="translate(184.535 52.822)" opacity="0.1"/>
    <path id="Path_299" data-name="Path 299" d="M312.48,80.36S294.226,89.323,295.586,96.6c0,0,2.332,2.542,1.245,5.328s-2.047,22.413-.715,23.868,2.767,4.967,2.045,7.394,1.086,13.326,1.086,13.326,2.646,5.45-.479,6.667-.364,5.206-.364,5.206.043,4.967-2.926,5.211-.565,6.546-.565,6.546-1.431,4.241-3.733,3.874,1.33,6.061,1.33,6.061-8.79,5.933-7.711,15.754l-1.2,6.659,17.338,7.517,2.28-4.362s4.7-1.1,4.092-4,3.132-4.6,3.132-4.6.715-4.486,3.133-6.423,6.137-10.181,6.137-10.181,2.145-4.6,5.179-6.538,5.414-11.39,5.414-11.39l1.8-65.071S325.511,77.451,312.48,80.36Z" transform="translate(186.066 52.822)" opacity="0.1"/>
    <path id="Path_300" data-name="Path 300" d="M311.318,80.36s-18.26,8.964-16.894,16.235c0,0,2.332,2.542,1.245,5.328s-2.047,22.413-.715,23.868,2.767,4.967,2.045,7.394,1.086,13.326,1.086,13.326,2.646,5.45-.485,6.667-.358,5.206-.358,5.206.035,4.967-2.933,5.211-.558,6.546-.558,6.546-1.431,4.241-3.733,3.874,1.323,6.061,1.323,6.061-8.784,5.933-7.7,15.754l-1.2,6.659,17.329,7.517,2.289-4.362s4.693-1.1,4.092-4,3.132-4.6,3.132-4.6.715-4.486,3.127-6.423,6.144-10.181,6.144-10.181,2.145-4.6,5.17-6.538,5.415-11.39,5.415-11.39l1.8-65.071S324.315,77.451,311.318,80.36Z" transform="translate(185.304 52.822)" fill="#2f77c9"/>
    <path id="Path_301" data-name="Path 301" d="M292.866,129.824s4.935,4.73,4.935,6.063-6.5-2.426-6.5-2.426Z" transform="translate(191.118 85.644)" opacity="0.1"/>
    <path id="Path_302" data-name="Path 302" d="M290.5,136.821s4.814,5.45,3.248,5.7S290.5,136.821,290.5,136.821Z" transform="translate(190.594 90.26)" opacity="0.1"/>
    <path id="Path_303" data-name="Path 303" d="M298.713,147.115s-10.957,1.814-8.425,2.543S298.713,147.115,298.713,147.115Z" transform="translate(190.206 97.051)" opacity="0.1"/>
    <path id="Path_304" data-name="Path 304" d="M297.078,125.434s19.8,8.964,16.45,11.39S297.078,125.434,297.078,125.434Z" transform="translate(194.909 82.748)" opacity="0.1"/>
    <path id="Path_305" data-name="Path 305" d="M321.777,67.3c-.474-.367-32.1-6.861-32.1-6.861l2.1-.317c9.7,0,29.768,6.386,29.768,6.386A3.579,3.579,0,0,0,321.777,67.3Z" transform="translate(190.052 39.661)" opacity="0.1"/>
    <path id="Path_306" data-name="Path 306" d="M295.441,36.448s9.469,12.564,13.962,9.36S302.344,35.484,295.441,36.448Z" transform="translate(193.835 23.986)" opacity="0.1"/>
    <path id="Path_307" data-name="Path 307" d="M282.433,81.77s8.032-2.426,8.711-2.88S282.433,81.77,282.433,81.77Z" transform="translate(185.301 52.016)" opacity="0.1"/>
    <path id="Path_308" data-name="Path 308" d="M305.137,73.269s8.362.72,9.163.5S305.137,73.269,305.137,73.269Z" transform="translate(200.197 48.335)" opacity="0.1"/>
    <path id="Path_309" data-name="Path 309" d="M307.78,68.05s8.355.72,9.163.49S307.78,68.05,307.78,68.05Z" transform="translate(201.931 44.893)" opacity="0.1"/>
    <path id="Path_310" data-name="Path 310" d="M293.653,67.73s8.355.72,9.163.5S293.653,67.73,293.653,67.73Z" transform="translate(192.662 44.681)" opacity="0.1"/>
    <path id="Path_311" data-name="Path 311" d="M281.266,79.155s8.025-2.426,8.706-2.88S281.266,79.155,281.266,79.155Z" transform="translate(184.535 50.29)" opacity="0.1"/>
    <path id="Path_312" data-name="Path 312" d="M488.064,207.822l-5.444,87.693a12.948,12.948,0,0,1-4.018,8.592,12.791,12.791,0,0,1-8.771,3.5H404.237a12.791,12.791,0,0,1-8.771-3.5,12.947,12.947,0,0,1-4.018-8.592l-5.444-87.693a3.234,3.234,0,0,1,.883-2.387,3.225,3.225,0,0,1,1.063-.74,3.183,3.183,0,0,1,1.265-.257h95.707a3.209,3.209,0,0,1,2.989,2.128,3.231,3.231,0,0,1,.187,1.285Z" transform="translate(253.251 134.867)" fill="#727272"/>
    <path id="Path_313" data-name="Path 313" d="M419.541,243.289c1.668.671,4.549,1.937,4.549-.446,0-1-.815-1.079-1.588-1.339a14.178,14.178,0,0,1-7.058-5.651c-3.034-4.508-3.734-9.007-3.734-14.4,0-11.937,16.337-14.1,16.337-26.042,0-4.571-2.862-5.91-2.862-7.2,0-.82.257-.82,1.073-.82,2.954,0,7.06,4.953,8.31,7.372a7.233,7.233,0,0,1,.888,4.126c0,2.606-.258,5.284-.258,7.92,0,10.043,11.788,7.364,11.788,2.526,0-2.232-1.33-4.32-1.33-6.479,0-.259,0-.446.263-.446,1.252,0,3.47,2.88,4.1,3.758a22.232,22.232,0,0,1,3.14,11.679c0,12.053-10.9,18.23-10.9,20.836,0,.367,1.073,2.88,4.47.72,10.98-5.616,19.626-17.712,19.626-33.408,0-12.5-3.218-21.462-11.866-30.728-1.429-1.527-6.058-6.285-8.31-6.285-3.032,0,2.661,6.918,2.661,11.6a4.35,4.35,0,0,1-1.252,3.318,4.275,4.275,0,0,1-3.3,1.255c-4.293,0-5.357-9.445-5.872-12.383-2.146-12.579-4.735-21.651-17.165-27.569-3.842-1.857-13.491-4.392-13.491-.813,0,.893,1,1.52,1.7,1.894,3.4,2.081,7.245,7.963,7.245,14.212,0,17.151-21.329,32.811-21.329,50.666-.071,14.99,10.385,27.007,24.132,32.069Z" transform="translate(259.404 94.064)" fill="#f98b26"/>
  </g>
</svg>
