<svg xmlns="http://www.w3.org/2000/svg" xmlns:xlink="http://www.w3.org/1999/xlink" width="270" height="164" viewBox="0 0 270 164">
  <defs>
    <clipPath id="clip-path">
      <rect id="Rectangle_260" data-name="Rectangle 260" width="270" height="164" transform="translate(0.036 0.4)" fill="#cedbff"/>
    </clipPath>
  </defs>
  <g id="Group_237" data-name="Group 237" transform="translate(-0.036 -0.4)" clip-path="url(#clip-path)">
    <path id="Path_522" data-name="Path 522" d="M270.624,264.459H.111v7.458H270.624Z" transform="translate(-0.022 -107.27)" fill="#65617d"/>
    <path id="Path_523" data-name="Path 523" d="M312.794,102.091a5.036,5.036,0,0,0,.042.591A5.036,5.036,0,0,1,312.794,102.091Z" transform="translate(-127.167 -41.457)" fill="#f9e326" opacity="0.1"/>
    <path id="Path_524" data-name="Path 524" d="M316.229,108.4a4.435,4.435,0,0,1-.964-.683A4.435,4.435,0,0,0,316.229,108.4Z" transform="translate(-128.171 -43.736)" fill="#f9e326" opacity="0.1"/>
    <path id="Path_525" data-name="Path 525" d="M199.724,152.527a2.045,2.045,0,0,0-.2-.137,9.572,9.572,0,0,0-1.853-4.775c-1.6-1.824-1.9-6.859-1.9-6.859a3.749,3.749,0,0,0-.6-.049c-.071-.157-.185-.4-.307-.691a8.226,8.226,0,0,1-.6-1.909,39.8,39.8,0,0,0-1.9-4.992s-1.94-9.852-5.479-12.978c0,0-1.422-2-1.422-3.083s-1.638-1.563-1.638-1.563a19.2,19.2,0,0,1-.992-4.037c.09-.869-2.373-3.779-2.373-3.779s-.326-2.951-.959-3.686-.512-2.743-.512-2.743-1.853-1.73-1.681-2.86a7.736,7.736,0,0,0-.561-3,12.569,12.569,0,0,0,1.435-4.128,3.689,3.689,0,0,0,0-.7,2.213,2.213,0,0,0,.808-.287c1.294-1.088-.3-11.206-.3-11.206s-1.771-5.675-.863-9.94-2.978-24-2.978-24a23.923,23.923,0,0,0-1.3-3.573c-.044-.083-.087-.16-.131-.235a2.241,2.241,0,0,0,.654-1.189s1.858-2.6.768-3.354c-.989-.676-2.614-.952-3.042-1.924a1.494,1.494,0,0,1-.062-.188c1.056.23,1.95.436,2.217.537.769.289,2.7.637,2.963-1.29s-3.565-6.684-3.911-6.859-.92-1.62-.92-1.62c.4-.753-.689-1.62-.689-1.62l-.564.3c-.077-1.39-.241-2.964-.241-2.964a29.849,29.849,0,0,1-1.21-4.342c-.776-3.356-2.414-1.806-2.988-1.883a30.8,30.8,0,0,0-4.974.725c-1.207.289-6.527,4.2-6.919,4.282s-1.84,2.778-2.014,3.354c-.062.206.256.446.671.668-.061.083-.12.165-.179.258a7.515,7.515,0,0,0,1.6,10.061c-.092.222-.185.446-.256.676a3.766,3.766,0,0,0-.117.441,3.66,3.66,0,0,0-1.235.967,3.7,3.7,0,0,0-.721,1.4c-.364,1.359-.72,3.155-.284,3.795a2.953,2.953,0,0,1,.513,2.043c.039.173,2.883,2.605,2.883,3.952s1.9-.219,2.245-.516c.069-.062.408-.317.91-.681l-.21.5a25.389,25.389,0,0,1-2.081,4.259c-.513.392-3.624,11.376-3.537,12.677s-.256,8.425-.256,8.425-1.079,10.153-1.9,11.461c0,0-.564,4.817-1.081,4.945s-.73,1.174,1.988,1.654c.917.16,2.217.335,3.534.5l-.367.648-4.592,8.1-3.844,9.245s-.689,2.348-1.378,2.348-1.164,2.3-1.164,2.3-1.253,2.471-.818,3.083.818,2.213.256,2.433-.943,5.933-.943,5.933l-3.075,11.072a2.081,2.081,0,0,0-.689,1.692c.174.918-.863,1-.863,1a5.994,5.994,0,0,0-.559,1.29c-.012.049-.018.1-.026.139a1.262,1.262,0,0,0-.582.532c-1.025,1.782-2.588,5.469-3.49,5.905a9.7,9.7,0,0,1-4.272.694c-1.469-.129-3.278.485-4.052.023a7.75,7.75,0,0,0-2.683-.774c-.907-.054-1.52.258-.812,1.481a18.477,18.477,0,0,0,6.556,5.73c.948.263,9.143,3.648,10.007,4.037s3.06.774,3.15,0a13.015,13.015,0,0,0-.218-2.52.077.077,0,0,0,0-.023c.156-.312,1.709-3.493,1.588-4.362-.133-.91,3.8-5.815,2.932-7.249,0,0,.054-.276.12-.65a13.256,13.256,0,0,0,.225-1.736c0-.653,2.973-5.73,2.973-5.73s3.449-7.559,3.588-9.726,1.076-2.52,1.076-2.52a3.236,3.236,0,0,0,.431-1.171,9.548,9.548,0,0,0,.043-2.735s1.464-1.032,1.51-1.695,9.738-13.238,9.738-13.238.649.129.948,1.259,8.626,16.456,8.626,16.456,3.752,1.083,4.014,3.555l1.553,2.737,3.014,5.417s.954,2.869,2.16,3.779c0,0,.769,1.563.474,2.3s1.161,1.305,1.161,1.305.239,1.169.349,1.952a3.974,3.974,0,0,1,.061.627,1.69,1.69,0,0,0-.32,1.718c.864,2.907,1.9,4.687,1.025,5.675s-3.1,3.777-3.1,3.777-3.332,1-4.059,1.29a1.051,1.051,0,0,0-.364,1.481,2.308,2.308,0,0,0,1.317,1.032c1.853.7,10.392.39,10.392.39s8.2-3.08,8.539-4.515A1.886,1.886,0,0,0,199.724,152.527Z" transform="translate(-49.064 -6.007)" opacity="0.1"/>
    <path id="Path_526" data-name="Path 526" d="M290.069,48.46a5.527,5.527,0,0,1-.028.619,7.45,7.45,0,0,1-2.553,5,7.351,7.351,0,0,1-10.312-.693,7.47,7.47,0,0,1,.473-10.393,7.351,7.351,0,0,1,10.332.26A7.461,7.461,0,0,1,290.069,48.46Z" transform="translate(-111.92 -16.693)" fill="#fdc2cc"/>
    <path id="Path_527" data-name="Path 527" d="M278.48,46.074c-.041.338.059.678.031,1.016a3.693,3.693,0,0,1-.479,1.223,1.5,1.5,0,0,0-.133,1.272c.164.335.513.516.769.813a1.893,1.893,0,0,1,.233,1.731c-.123.415-.331.88-.113,1.254.19.322.643.441.769.792a1.006,1.006,0,0,1-.067.676c-.2.529-.454,1.032-.625,1.568a2.742,2.742,0,0,0-.087,1.659.412.412,0,0,0,.1.186.461.461,0,0,0,.256.083l.707.075c.279.031.625.028.769-.219.067-.119.072-.281.187-.351s.323.052.446.175a4.425,4.425,0,0,0,2.629,1.29,1.1,1.1,0,0,0,.768-.119c.213-.15.318-.418.513-.57.472-.351,1.171.044,1.717-.173a1.4,1.4,0,0,0,.686-1.316,3.9,3.9,0,0,1,.177-1.548,6.752,6.752,0,0,1,.659-.887,2.946,2.946,0,0,0,.423-2.064,7.62,7.62,0,0,0-.641-2.041,8.606,8.606,0,0,0-1.968-3.1,3.536,3.536,0,0,1-.554-.552c-.415-.588-.3-1.45-.768-2a1.968,1.968,0,0,0-1.581-.539,5.658,5.658,0,0,0-2.306.531,2.875,2.875,0,0,1-.692.258c-.449.08-.672-.307-1.1-.114a1.255,1.255,0,0,0-.72.985Z" transform="translate(-112.939 -18.078)" fill="#464a5f"/>
    <g id="Group_236" data-name="Group 236" transform="translate(164.86 26.373)" opacity="0.1">
      <path id="Path_528" data-name="Path 528" d="M282.409,45.251a2.746,2.746,0,0,0,.695-.258,5.645,5.645,0,0,1,2.216-.516h-.256a5.658,5.658,0,0,0-2.306.531,3.124,3.124,0,0,1-.649.258A.722.722,0,0,0,282.409,45.251Z" transform="translate(-279.549 -44.478)" opacity="0.1"/>
      <path id="Path_529" data-name="Path 529" d="M280.184,58.859l-.71-.075a.454.454,0,0,1-.256-.083.376.376,0,0,1-.1-.183,2.773,2.773,0,0,1,.084-1.661c.174-.537.433-1.032.625-1.568a.989.989,0,0,0,.067-.676c-.131-.351-.585-.469-.769-.792-.221-.371,0-.838.113-1.254A1.893,1.893,0,0,0,279,50.836c-.239-.289-.6-.477-.769-.813a1.492,1.492,0,0,1,.131-1.269,3.592,3.592,0,0,0,.482-1.225c.029-.338-.071-.678-.03-1.016a1.247,1.247,0,0,1,.727-.962.63.63,0,0,1,.085-.026.582.582,0,0,0-.428.026,1.254,1.254,0,0,0-.73.962c-.042.338.059.678.03,1.016a3.706,3.706,0,0,1-.479,1.225,1.492,1.492,0,0,0-.133,1.269c.164.335.513.516.769.813a1.893,1.893,0,0,1,.233,1.731c-.123.415-.331.882-.113,1.254.189.322.643.441.768.792a1,1,0,0,1-.066.676c-.195.529-.453,1.032-.625,1.568a2.755,2.755,0,0,0-.087,1.661.4.4,0,0,0,.1.183.459.459,0,0,0,.256.083l.707.075a1.629,1.629,0,0,0,.371,0Z" transform="translate(-277.795 -44.89)" opacity="0.1"/>
      <path id="Path_530" data-name="Path 530" d="M286.47,68.475a4.453,4.453,0,0,1-2.629-1.29c-.12-.124-.3-.258-.446-.175a.155.155,0,0,0-.046.046,1.2,1.2,0,0,1,.148.129,4.445,4.445,0,0,0,2.629,1.29,1.741,1.741,0,0,0,.418,0Z" transform="translate(-280.054 -53.6)" opacity="0.1"/>
      <path id="Path_531" data-name="Path 531" d="M291.429,68.086a4.388,4.388,0,0,0,.71.028A3.693,3.693,0,0,0,291.429,68.086Z" transform="translate(-283.339 -54.044)" opacity="0.1"/>
    </g>
    <path id="Path_532" data-name="Path 532" d="M308.589,207.181c-.474,2.564-8.281,3-8.162,2.912a1.848,1.848,0,0,0-.044-.7c-.11-.774-.348-1.95-.348-1.95s-1.461-.568-1.161-1.308-.474-2.3-.474-2.3c-1.208-.91-2.158-3.779-2.158-3.779l-3.016-5.417-1.553-2.737c-.256-2.471-4.014-3.554-4.014-3.554s-8.324-15.326-8.626-16.456-.948-1.256-.948-1.256-9.692,12.578-9.736,13.244-1.509,1.695-1.509,1.695a9.529,9.529,0,0,1-.043,2.732,3.237,3.237,0,0,1-.431,1.171s-.951.348-1.076,2.52-3.588,9.725-3.588,9.725-2.973,5.077-2.973,5.732a13.237,13.237,0,0,1-.225,1.736c-.064.372-.12.65-.12.65s-7.417-2.794-7.975-3c-.192-.075-.2-.328-.128-.627a5.988,5.988,0,0,1,.558-1.29s1.025-.082.864-1a2.132,2.132,0,0,1,.69-1.692l3.075-11.072s.385-5.729.946-5.946.172-1.826-.256-2.43.818-3.1.818-3.1.471-2.3,1.163-2.3,1.379-2.348,1.379-2.348l3.844-9.245,4.593-8.1.971-1.71s19.323-1.739,21.693-.609a1.967,1.967,0,0,1,.917,2.156,12.737,12.737,0,0,1-1.435,4.128,7.748,7.748,0,0,1,.561,3c-.172,1.127,1.681,2.863,1.681,2.863s-.128,2,.513,2.74.958,3.689.958,3.689,2.458,2.91,2.373,3.779a19.5,19.5,0,0,0,.992,4.034s1.638.48,1.638,1.563,1.422,3.1,1.422,3.1c3.521,3.129,5.461,12.983,5.461,12.983a39.572,39.572,0,0,1,1.9,4.989,7.785,7.785,0,0,0,.6,1.911C308.41,206.8,308.589,207.181,308.589,207.181Z" transform="translate(-101.729 -62.904)" fill="#cedbff"/>
    <path id="Path_533" data-name="Path 533" d="M290.893,48.467a5.669,5.669,0,0,1-.029.619c-.871.454-1.737.9-2.458,1.261-1.025.516-1.74.867-1.74.867s-3.767-2.322-4.457-3.387a16.273,16.273,0,0,0-2.819-2.691s-.533-.163-1.112-.395a7.519,7.519,0,0,1-.956-.449,7.431,7.431,0,0,1,13.582,4.174Z" transform="translate(-112.743 -16.7)" opacity="0.1"/>
    <path id="Path_534" data-name="Path 534" d="M279.048,40.5s-2.732-.841-2.563-1.419,1.609-3.271,2.012-3.354,5.723-4,6.919-4.285a29.449,29.449,0,0,1,4.974-.722c.577.088,2.215-1.476,2.991,1.881a30.267,30.267,0,0,0,1.207,4.342s.459,4.37.2,4.979-8.48,4.659-8.48,4.659-3.767-2.322-4.456-3.387A16.407,16.407,0,0,0,279.048,40.5Z" transform="translate(-112.399 -12.413)" fill="#cedbff"/>
    <path id="Path_535" data-name="Path 535" d="M303.649,157.555c-3.726.8-18,.8-18,.8s-2.9-.291-5.584-.632l.971-1.71s19.323-1.739,21.694-.609A1.955,1.955,0,0,1,303.649,157.555Z" transform="translate(-113.857 -62.911)" opacity="0.1"/>
    <path id="Path_536" data-name="Path 536" d="M300.708,123.747c-1.281,1.083-18.805,1.083-18.805,1.083s-6.038-.609-8.752-1.083-2.506-1.522-1.988-1.654,1.081-4.945,1.081-4.945c.818-1.305,1.9-11.462,1.9-11.462s.346-7.12.256-8.425,3.019-12.284,3.536-12.676a25.936,25.936,0,0,0,2.081-4.259c.412-.975.725-1.728.725-1.728,2.2-3.993,13.022-4.953,13.883-4.432a2.244,2.244,0,0,1,.643.862,23.646,23.646,0,0,1,1.3,3.57s3.883,19.75,2.978,24.006.863,9.94.863,9.94S302,122.66,300.708,123.747Z" transform="translate(-110.109 -30.085)" fill="#2f77c9"/>
    <path id="Path_537" data-name="Path 537" d="M298.092,151.861H294.21V153.6h3.882Z" transform="translate(-119.61 -61.631)" fill="#5f5d7e"/>
    <path id="Path_538" data-name="Path 538" d="M281.98,155.776s-1.986,3.611-2.676,3.733-1.681,5.6,2.286,7.481,4.1-5.6,4.1-5.6l1.579-6.295-4.3-1.607Z" transform="translate(-113.289 -62.29)" opacity="0.1"/>
    <path id="Path_539" data-name="Path 539" d="M281.4,155.181s-1.984,3.611-2.673,3.735-1.683,5.6,2.286,7.466,4.1-5.6,4.1-5.6l1.576-6.295-4.295-1.607Z" transform="translate(-113.053 -62.044)" fill="#464a5f"/>
    <path id="Path_540" data-name="Path 540" d="M311.8,183.689s3.106,3.354,4.787,1.868S311.8,183.689,311.8,183.689Z" transform="translate(-126.761 -74.531)" opacity="0.1"/>
    <path id="Path_541" data-name="Path 541" d="M320.011,192.443s2.543,3.212,2.586,1.475S320.011,192.443,320.011,192.443Z" transform="translate(-130.101 -78.074)" opacity="0.1"/>
    <path id="Path_542" data-name="Path 542" d="M324.369,204.743s1.812.129,2.46-.826Z" transform="translate(-131.873 -82.731)" opacity="0.1"/>
    <path id="Path_543" data-name="Path 543" d="M327.423,209.881a1.654,1.654,0,0,0,2.027-.345Z" transform="translate(-133.115 -85.008)" opacity="0.1"/>
    <path id="Path_544" data-name="Path 544" d="M290.5,170.914s.769,4.429,3.967,6.165Z" transform="translate(-118.101 -69.353)" opacity="0.1"/>
    <path id="Path_545" data-name="Path 545" d="M268.822,211.812s-.389,1.13,1.768,1.434S268.822,211.812,268.822,211.812Z" transform="translate(-109.275 -85.931)" opacity="0.1"/>
    <path id="Path_546" data-name="Path 546" d="M270.512,205.306s1.422,2.685,1.984,2.512Z" transform="translate(-109.974 -83.294)" opacity="0.1"/>
    <path id="Path_547" data-name="Path 547" d="M273.566,201.336s.43,1.228,1.51,1.1S273.566,201.336,273.566,201.336Z" transform="translate(-111.216 -81.684)" opacity="0.1"/>
    <path id="Path_548" data-name="Path 548" d="M258.509,243.863c-.064.372-.12.65-.12.65l-7.98-2.989c-.192-.075-.2-.328-.128-.627,1.245-1.122,4.141.931,4.141.931S257.391,242.6,258.509,243.863Z" transform="translate(-101.729 -97.584)" opacity="0.1"/>
    <path id="Path_549" data-name="Path 549" d="M242.793,256.359a.09.09,0,0,1,0,.026,13.523,13.523,0,0,1,.218,2.518c-.082.781-2.288.389-3.15,0s-9.056-3.779-9.994-4.037a18.464,18.464,0,0,1-6.556-5.73c-.707-1.22-.1-1.548.81-1.481a7.75,7.75,0,0,1,2.683.774c.768.461,2.588-.155,4.052-.026a9.707,9.707,0,0,0,4.272-.694c.9-.436,2.455-4.128,3.491-5.9s4.4.608,4.4.608,3.429.9,4.3,2.338-3.075,6.338-2.932,7.246S242.95,256.047,242.793,256.359Z" transform="translate(-90.655 -97.821)" fill="#53586f"/>
    <path id="Path_550" data-name="Path 550" d="M242.994,263.333c-.09.774-2.289.389-3.15,0s-9.057-3.779-9.995-4.037a18.462,18.462,0,0,1-6.555-5.73c-.707-1.22-.1-1.548.809-1.481a6.324,6.324,0,0,0,2.209,2.58,69.04,69.04,0,0,0,8.065,4.355s3.106-.129,4.528.774a10.366,10.366,0,0,0,3.89.972.1.1,0,0,1,0,.026A14.462,14.462,0,0,1,242.994,263.333Z" transform="translate(-90.648 -102.251)" fill="#464a5f"/>
    <path id="Path_551" data-name="Path 551" d="M251.74,247.658s-3.062,5.85-3.062,6.243-1.207,4.037-1.207,4.037l2.135.869.8-4.69,2.845-5.644Z" transform="translate(-100.605 -100.46)" fill="#464a5f"/>
    <path id="Path_552" data-name="Path 552" d="M342.953,242.165c-.474,2.564-8.28,3-8.163,2.913a1.863,1.863,0,0,0-.043-.7c1.033-1.264,3.888-1.264,3.888-1.264a5.812,5.812,0,0,1,3.929-1.806C342.774,241.789,342.953,242.165,342.953,242.165Z" transform="translate(-136.093 -97.888)" opacity="0.1"/>
    <path id="Path_553" data-name="Path 553" d="M343.532,256.343c-.344,1.434-8.539,4.515-8.539,4.515s-8.539.307-10.392-.387a2.322,2.322,0,0,1-1.317-1.032,1.048,1.048,0,0,1,.364-1.478c.735-.3,4.059-1.3,4.059-1.3s2.242-2.778,3.1-3.78-.171-2.778-1.025-5.675,4.126-2.925,4.126-2.925a5.617,5.617,0,0,1,4.831-1.783s.3,5.038,1.9,6.86a9.568,9.568,0,0,1,1.853,4.778,1.821,1.821,0,0,1,.2.134A1.994,1.994,0,0,1,343.532,256.343Z" transform="translate(-131.371 -98.348)" fill="#53586f"/>
    <path id="Path_554" data-name="Path 554" d="M343.637,264.415c-.344,1.434-8.539,4.514-8.539,4.514s-8.539.307-10.392-.387a2.322,2.322,0,0,1-1.317-1.032,40.236,40.236,0,0,0,5.638.651c.73-.173,3.588.128,5.218-1.305a16.827,16.827,0,0,1,4.1-2.433s2.939-1.2,4.464-2.064A1.962,1.962,0,0,1,343.637,264.415Z" transform="translate(-131.475 -106.419)" fill="#464a5f"/>
    <path id="Path_555" data-name="Path 555" d="M343.2,249.762l1.51,5.729,1.943,4.515,1.553-.738-2.286-4.383-1.64-5.123Z" transform="translate(-139.528 -101.313)" fill="#464a5f"/>
    <path id="Path_556" data-name="Path 556" d="M243.286,248.473l-1.51-.815s-3.062,5.85-3.062,6.243c0,.309-.768,2.675-1.073,3.635a13.784,13.784,0,0,0-3.28-.294,70.773,70.773,0,0,1-8.065-4.354,6.32,6.32,0,0,1-2.209-2.58c-.907-.054-1.517.258-.81,1.481a18.421,18.421,0,0,0,6.556,5.73c.951.263,9.142,3.648,9.995,4.037s3.06.774,3.15,0a12.981,12.981,0,0,0-.218-2.518.2.2,0,0,0,0-.026,14.181,14.181,0,0,1-3.075-.59l.73-4.29Z" transform="translate(-90.641 -100.46)" opacity="0.1"/>
    <path id="Path_557" data-name="Path 557" d="M342.8,257.233c-.808.464-2.012,1.019-2.965,1.439l-1.974-3.789-1.637-5.121H335.14l1.51,5.729,1.648,3.834a16.937,16.937,0,0,0-4.062,2.417c-1.64,1.434-4.488,1.133-5.218,1.306a40.479,40.479,0,0,1-5.638-.651,2.323,2.323,0,0,0,1.317,1.032c1.853.693,10.392.387,10.392.387s8.2-3.08,8.539-4.514A1.983,1.983,0,0,0,342.8,257.233Z" transform="translate(-131.471 -101.313)" opacity="0.1"/>
    <path id="Path_558" data-name="Path 558" d="M289.675,54.453s3.824-4.543,5.034-5.268,6.065-3.328,6.065-3.328,1.092.869.689,1.62c0,0,.577,1.447.92,1.623s4.169,4.919,3.91,6.859-2.186,1.592-2.962,1.29-6.783-1.476-6.783-1.476Z" transform="translate(-117.766 -18.664)" fill="#2f77c9"/>
    <path id="Path_559" data-name="Path 559" d="M299.514,54.824s2.616-.774,2.819,0S299.514,54.824,299.514,54.824Z" transform="translate(-121.767 -22.159)" opacity="0.1"/>
    <path id="Path_560" data-name="Path 560" d="M301.553,75.027a1.764,1.764,0,0,1-.167.139c-.513.346-6,.346-7.245.346-1.041,0-5.977,3.452-7.84,4.814.412-.975.725-1.728.725-1.728,2.2-3.993,13.022-4.953,13.883-4.432A2.244,2.244,0,0,1,301.553,75.027Z" transform="translate(-116.394 -30.085)" opacity="0.1"/>
    <path id="Path_561" data-name="Path 561" d="M297.593,67.959a2.191,2.191,0,0,1-.69,1.215c-.517.348-6,.348-7.245.348s-8.2,5.036-8.539,5.34-2.245,1.865-2.245.516-2.845-3.779-2.883-3.952a2.953,2.953,0,0,0-.513-2.043c-.435-.64-.079-2.435.285-3.795a3.693,3.693,0,0,1,1.955-2.366c1.581-.774,4.059-2,5.351-2.822a2.971,2.971,0,0,1,1.51-.289c3.475,0,10.666,2.288,10.666,2.288a1.311,1.311,0,0,0,.084.284c.428.973,2.05,1.246,3.042,1.924C299.451,65.354,297.593,67.959,297.593,67.959Z" transform="translate(-111.912 -24.442)" fill="#cedbff"/>
    <path id="Path_562" data-name="Path 562" d="M279.379,72.649a37.223,37.223,0,0,1,4.4.413A37.209,37.209,0,0,1,279.379,72.649Z" transform="translate(-113.579 -29.523)" opacity="0.1"/>
    <path id="Path_563" data-name="Path 563" d="M291.62,80.174s-6.543,3.212-6.054,5.817a2.019,2.019,0,0,1,.446,1.909c-.387,1-.733,8.03-.256,8.552a3.289,3.289,0,0,1,.733,2.649c-.259.869.387,4.775.387,4.775s.951,1.953-.171,2.389-.128,1.865-.128,1.865,0,1.78-1.051,1.867-.2,2.345-.2,2.345-.512,1.519-1.337,1.388.474,2.172.474,2.172-3.15,2.126-2.76,5.645l-.436,2.386,6.21,2.693.82-1.563s1.681-.392,1.466-1.434,1.122-1.648,1.122-1.648a4.324,4.324,0,0,1,1.12-2.3c.863-.694,2.2-3.648,2.2-3.648a6.507,6.507,0,0,1,1.855-2.342c1.086-.694,1.94-4.081,1.94-4.081l.649-23.315S296.276,79.132,291.62,80.174Z" transform="translate(-114.347 -32.531)" opacity="0.1"/>
    <path id="Path_564" data-name="Path 564" d="M293.947,80.174s-6.54,3.212-6.053,5.817a2.013,2.013,0,0,1,.446,1.909c-.39,1-.733,8.03-.256,8.552a3.288,3.288,0,0,1,.733,2.649c-.259.869.389,4.775.389,4.775s.948,1.953-.172,2.389-.131,1.865-.131,1.865.015,1.78-1.048,1.867-.2,2.345-.2,2.345-.513,1.519-1.337,1.388.476,2.172.476,2.172-3.15,2.126-2.763,5.645l-.43,2.386,6.212,2.693.817-1.563s1.684-.392,1.466-1.434,1.122-1.648,1.122-1.648a4.315,4.315,0,0,1,1.123-2.3c.866-.694,2.2-3.648,2.2-3.648a6.5,6.5,0,0,1,1.855-2.342c1.086-.694,1.94-4.081,1.94-4.081l.646-23.315S298.616,79.132,293.947,80.174Z" transform="translate(-115.295 -32.531)" opacity="0.1"/>
    <path id="Path_565" data-name="Path 565" d="M292.785,80.174s-6.543,3.212-6.053,5.817a2.013,2.013,0,0,1,.446,1.909c-.39,1-.733,8.03-.256,8.552a3.289,3.289,0,0,1,.733,2.649c-.259.869.389,4.775.389,4.775s.948,1.953-.174,2.389-.128,1.865-.128,1.865.012,1.78-1.051,1.867-.2,2.345-.2,2.345-.513,1.519-1.337,1.388.474,2.172.474,2.172-3.147,2.126-2.76,5.645l-.43,2.386,6.209,2.693.82-1.563s1.682-.392,1.466-1.434,1.122-1.648,1.122-1.648a4.323,4.323,0,0,1,1.12-2.3c.863-.694,2.2-3.648,2.2-3.648a6.514,6.514,0,0,1,1.853-2.342c1.084-.694,1.94-4.081,1.94-4.081l.646-23.315S297.442,79.132,292.785,80.174Z" transform="translate(-114.823 -32.531)" fill="#2f77c9"/>
    <path id="Path_566" data-name="Path 566" d="M291.86,129.824s1.768,1.695,1.768,2.172-2.33-.869-2.33-.869Z" transform="translate(-118.426 -52.698)" opacity="0.1"/>
    <path id="Path_567" data-name="Path 567" d="M290.5,136.821s1.725,1.953,1.164,2.041S290.5,136.821,290.5,136.821Z" transform="translate(-118.101 -55.534)" opacity="0.1"/>
    <path id="Path_568" data-name="Path 568" d="M293.063,147.115s-3.926.65-3.018.911S293.063,147.115,293.063,147.115Z" transform="translate(-117.861 -59.707)" opacity="0.1"/>
    <path id="Path_569" data-name="Path 569" d="M297.078,125.434s7.094,3.212,5.894,4.081S297.078,125.434,297.078,125.434Z" transform="translate(-120.776 -50.919)" opacity="0.1"/>
    <path id="Path_570" data-name="Path 570" d="M301.177,62.693c-.17-.132-11.5-2.458-11.5-2.458l.751-.114c3.475,0,10.666,2.288,10.666,2.288A1.287,1.287,0,0,0,301.177,62.693Z" transform="translate(-117.766 -24.445)" opacity="0.1"/>
    <path id="Path_571" data-name="Path 571" d="M295.441,36.391s3.393,4.5,5,3.354S297.914,36.046,295.441,36.391Z" transform="translate(-120.11 -14.814)" opacity="0.1"/>
    <path id="Path_572" data-name="Path 572" d="M282.433,79.9s2.878-.869,3.121-1.032S282.433,79.9,282.433,79.9Z" transform="translate(-114.821 -32.036)" opacity="0.1"/>
    <path id="Path_573" data-name="Path 573" d="M305.137,73.269s3,.258,3.283.178S305.137,73.269,305.137,73.269Z" transform="translate(-124.053 -29.775)" opacity="0.1"/>
    <path id="Path_574" data-name="Path 574" d="M307.78,68.05s2.994.258,3.283.175S307.78,68.05,307.78,68.05Z" transform="translate(-125.128 -27.659)" opacity="0.1"/>
    <path id="Path_575" data-name="Path 575" d="M293.653,67.73s2.994.258,3.283.178S293.653,67.73,293.653,67.73Z" transform="translate(-119.383 -27.529)" opacity="0.1"/>
    <path id="Path_576" data-name="Path 576" d="M281.266,77.28s2.875-.869,3.119-1.032S281.266,77.28,281.266,77.28Z" transform="translate(-114.347 -30.976)" opacity="0.1"/>
    <path id="Path_577" data-name="Path 577" d="M422.57,205.651l-1.95,31.42a4.639,4.639,0,0,1-1.44,3.079,4.583,4.583,0,0,1-3.143,1.255h-23.5a4.583,4.583,0,0,1-3.143-1.255,4.639,4.639,0,0,1-1.44-3.079L386,205.651a1.159,1.159,0,0,1,.316-.855,1.155,1.155,0,0,1,.381-.265,1.141,1.141,0,0,1,.453-.092h34.292a1.15,1.15,0,0,1,1.071.762,1.157,1.157,0,0,1,.067.46Z" transform="translate(-156.935 -82.942)" fill="#727272"/>
    <path id="Path_578" data-name="Path 578" d="M404.037,178.669c.6.24,1.63.694,1.63-.16,0-.359-.292-.387-.569-.48A5.08,5.08,0,0,1,402.569,176a8.579,8.579,0,0,1-1.338-5.159c0-4.277,5.854-5.051,5.854-9.331,0-1.638-1.025-2.118-1.025-2.58,0-.294.092-.294.385-.294,1.059,0,2.53,1.774,2.978,2.642a2.591,2.591,0,0,1,.318,1.478c0,.934-.093,1.893-.093,2.838,0,3.6,4.224,2.639,4.224.905,0-.8-.476-1.548-.476-2.322,0-.093,0-.16.094-.16.449,0,1.243,1.032,1.469,1.346a7.966,7.966,0,0,1,1.125,4.185c0,4.318-3.906,6.532-3.906,7.465,0,.131.384,1.032,1.6.258a13.245,13.245,0,0,0,7.032-11.97,14.657,14.657,0,0,0-4.252-11.01c-.512-.547-2.171-2.252-2.978-2.252-1.086,0,.954,2.479.954,4.158a1.558,1.558,0,0,1-.449,1.189,1.532,1.532,0,0,1-1.181.45c-1.538,0-1.92-3.384-2.1-4.437-.769-4.507-1.7-7.757-6.15-9.878-1.377-.665-4.834-1.573-4.834-.291,0,.32.359.545.61.679a6.45,6.45,0,0,1,2.6,5.092c0,6.145-7.642,11.756-7.642,18.153-.026,5.371,3.721,9.676,8.647,11.49Z" transform="translate(-160.748 -57.872)" fill="#f98b26"/>
  </g>
</svg>
