<svg xmlns="http://www.w3.org/2000/svg" width="824.499" height="490.574" viewBox="0 0 824.499 490.574">
  <g id="Group_244" data-name="Group 244" transform="translate(-951.084 -290.36)">
    <g id="Group_148" data-name="Group 148" transform="translate(-70.835 12.601)">
      <path id="Path_60" data-name="Path 60" d="M93.937,0a1.1,1.1,0,0,0-.515.129L.582,49.513A1.1,1.1,0,0,0,.129,51L35.576,117.64a1.1,1.1,0,0,0,1.488.455L129.9,68.71a1.1,1.1,0,0,0,.454-1.487L94.909.584a1.092,1.092,0,0,0-.65-.535A1.1,1.1,0,0,0,93.937,0Z" transform="translate(1646.554 277.759) rotate(49)" fill="#e6e6e6"/>
      <path id="Path_61" data-name="Path 61" d="M82.936.717l25.191,47.358a1.35,1.35,0,0,1-.558,1.827L27.176,92.664a1.143,1.143,0,0,1-.178.078,1.349,1.349,0,0,1-1.649-.636L.159,44.748a1.35,1.35,0,0,1,.558-1.827L81.109.159a1.35,1.35,0,0,1,1.827.558Z" transform="translate(1646.038 289.512) rotate(49)" fill="#fff"/>
      <ellipse id="Ellipse_12" data-name="Ellipse 12" cx="11.848" cy="11.848" rx="11.848" ry="11.848" transform="translate(1628.272 327.951) rotate(49)" fill="#ffc665"/>
      <path id="Path_62" data-name="Path 62" d="M51.514,29.44.2,56.735a1.187,1.187,0,0,1-.2.087L1.908,1.875A1.925,1.925,0,0,1,4.866.3L36.16,19.848l1.5.935Z" transform="translate(1637.135 333.87) rotate(49)" fill="#3f3d56"/>
      <path id="Path_63" data-name="Path 63" d="M17.52,9.592,0,18.911,1.955,1.844,2.1.615,2.166,0l1.5.935Z" transform="translate(1644.458 372.547) rotate(49)" opacity="0.2"/>
      <path id="Path_64" data-name="Path 64" d="M44.383,19.039,0,42.648,1.955,25.58l.14-1.229L4.643,2.11A2.569,2.569,0,0,1,7.9.118,2.288,2.288,0,0,1,8.17.233Z" transform="translate(1664.179 357.668) rotate(49)" fill="#3f3d56"/>
      <circle id="Ellipse_13" data-name="Ellipse 13" cx="1.613" cy="1.613" r="1.613" transform="translate(1609.666 311.561) rotate(49)" fill="#3f3d56"/>
      <ellipse id="Ellipse_14" data-name="Ellipse 14" cx="1.613" cy="1.613" rx="1.613" ry="1.613" transform="matrix(0.799, 0.602, -0.602, 0.799, 1704.578, 348.387)" fill="#3f3d56"/>
      <ellipse id="Ellipse_15" data-name="Ellipse 15" cx="1.613" cy="1.613" rx="1.613" ry="1.613" transform="translate(1582.725 379.549)" fill="#3f3d56"/>
      <ellipse id="Ellipse_16" data-name="Ellipse 16" cx="1.613" cy="1.613" rx="1.613" ry="1.613" transform="matrix(0.799, 0.602, -0.602, 0.799, 1679.016, 415.759)" fill="#3f3d56"/>
    </g>
    <g id="Group_149" data-name="Group 149" transform="translate(5.583 -53.076)">
      <path id="Path_41" data-name="Path 41" d="M719.971,375.356a1.1,1.1,0,0,0-1.1,1.1v75.48a1.1,1.1,0,0,0,1.1,1.1H825.128a1.1,1.1,0,0,0,1.1-1.1V376.455a1.1,1.1,0,0,0-1.1-1.1Z" transform="translate(943.773 99.72)" fill="#e6e6e6"/>
      <path id="Path_42" data-name="Path 42" d="M828.794,389.755V443.4a1.35,1.35,0,0,1-1.349,1.349h-91.06a.958.958,0,0,1-.19-.017,1.347,1.347,0,0,1-1.159-1.333V389.755a1.349,1.349,0,0,1,1.349-1.349h91.06a1.349,1.349,0,0,1,1.349,1.349Z" transform="translate(934.3 92.071)" fill="#fff"/>
      <ellipse id="Ellipse_2" data-name="Ellipse 2" cx="4.892" cy="4.892" rx="4.892" ry="4.892" transform="translate(1739.328 495.242)" fill="#ffc665"/>
      <ellipse id="Ellipse_3" data-name="Ellipse 3" cx="1.613" cy="1.613" rx="1.613" ry="1.613" transform="translate(1664.174 476.175)" fill="#3f3d56"/>
      <ellipse id="Ellipse_4" data-name="Ellipse 4" cx="1.613" cy="1.613" rx="1.613" ry="1.613" transform="translate(1765.03 476.175)" fill="#3f3d56"/>
      <ellipse id="Ellipse_5" data-name="Ellipse 5" cx="1.613" cy="1.613" rx="1.613" ry="1.613" transform="translate(1664.174 548.43)" fill="#3f3d56"/>
      <ellipse id="Ellipse_6" data-name="Ellipse 6" cx="1.613" cy="1.613" rx="1.613" ry="1.613" transform="translate(1765.03 548.43)" fill="#3f3d56"/>
      <ellipse id="Ellipse_7" data-name="Ellipse 7" cx="5.869" cy="5.869" rx="5.869" ry="5.869" transform="translate(1693.467 507.599)" fill="#97d2ff"/>
      <path id="Path_43" data-name="Path 43" d="M585.425,420.16h-1.2l.548-18.563Z" transform="translate(1114.477 110.987)" fill="#3f3d56"/>
      <path id="Path_44" data-name="Path 44" d="M585.578,407.569l1.291-1.786-1.308,2.228-.141-.248Z" transform="translate(1113.776 108.534)" fill="#3f3d56"/>
      <path id="Path_45" data-name="Path 45" d="M583.634,411.926l-1.291-1.786,1.308,2.227.142-.247Z" transform="translate(1115.579 105.98)" fill="#3f3d56"/>
      <ellipse id="Ellipse_8" data-name="Ellipse 8" cx="5.869" cy="5.869" rx="5.869" ry="5.869" transform="translate(1747.307 507.599)" fill="#97d2ff"/>
      <path id="Path_46" data-name="Path 46" d="M715.5,420.16h-1.2l.548-18.563Z" transform="translate(1038.241 110.987)" fill="#3f3d56"/>
      <path id="Path_47" data-name="Path 47" d="M715.654,407.569l1.291-1.786-1.308,2.228-.142-.248Z" transform="translate(1037.54 108.534)" fill="#3f3d56"/>
      <path id="Path_48" data-name="Path 48" d="M713.711,411.926l-1.291-1.786,1.308,2.227.142-.247Z" transform="translate(1039.342 105.98)" fill="#3f3d56"/>
      <ellipse id="Ellipse_9" data-name="Ellipse 9" cx="8.668" cy="8.668" rx="8.668" ry="8.668" transform="translate(1707.67 499.68)" fill="#97d2ff"/>
      <path id="Path_49" data-name="Path 49" d="M626.342,415.624h-1.775l.809-27.415Z" transform="translate(1090.832 118.834)" fill="#3f3d56"/>
      <path id="Path_50" data-name="Path 50" d="M626.568,397.028l1.906-2.637-1.932,3.29-.209-.365Z" transform="translate(1089.797 115.211)" fill="#3f3d56"/>
      <path id="Path_51" data-name="Path 51" d="M623.7,403.462l-1.906-2.637,1.932,3.29.209-.365Z" transform="translate(1092.459 111.44)" fill="#3f3d56"/>
      <ellipse id="Ellipse_10" data-name="Ellipse 10" cx="8.668" cy="8.668" rx="8.668" ry="8.668" transform="translate(1728.81 496.369)" fill="#97d2ff"/>
      <path id="Path_52" data-name="Path 52" d="M677.415,407.624H675.64l.809-27.415Z" transform="translate(1060.899 123.523)" fill="#3f3d56"/>
      <path id="Path_53" data-name="Path 53" d="M677.641,389.028l1.906-2.637-1.932,3.29-.209-.365Z" transform="translate(1059.863 119.899)" fill="#3f3d56"/>
      <path id="Path_54" data-name="Path 54" d="M674.77,395.462l-1.906-2.637,1.932,3.29.209-.365Z" transform="translate(1062.525 116.128)" fill="#3f3d56"/>
      <ellipse id="Ellipse_11" data-name="Ellipse 11" cx="8.668" cy="8.668" rx="8.668" ry="8.668" transform="translate(1673.979 496.369)" fill="#97d2ff"/>
      <path id="Path_55" data-name="Path 55" d="M544.945,407.624h-1.776l.81-27.415Z" transform="translate(1138.539 123.523)" fill="#3f3d56"/>
      <path id="Path_56" data-name="Path 56" d="M545.17,389.028l1.906-2.637-1.932,3.29-.209-.365Z" transform="translate(1137.503 119.899)" fill="#3f3d56"/>
      <path id="Path_57" data-name="Path 57" d="M542.3,395.462l-1.906-2.637,1.932,3.29.209-.365Z" transform="translate(1140.165 116.128)" fill="#3f3d56"/>
      <path id="Path_58" data-name="Path 58" d="M782.523,504.792H736.384a.963.963,0,0,1-.19-.016,1.347,1.347,0,0,1-1.159-1.333V491.924a78.541,78.541,0,0,1,13.137-1.068c16.378,0,30.079,4.694,33.514,10.977A6.314,6.314,0,0,1,782.523,504.792Z" transform="translate(934.3 32.027)" fill="#3f3d56"/>
      <path id="Path_59" data-name="Path 59" d="M887.362,510.209v2.612a1.349,1.349,0,0,1-1.349,1.349H834.965a26.021,26.021,0,0,1,5.29-2.959c6.254-2.682,15.075-4.354,24.847-4.354A69.257,69.257,0,0,1,887.362,510.209Z" transform="translate(875.732 22.649)" fill="#3f3d56"/>
    </g>
    <g id="Group_150" data-name="Group 150" transform="translate(86.82 -14.194)">
      <path id="Path_65" data-name="Path 65" d="M102.44,102.14a1.1,1.1,0,0,0,1.345-.78l19.4-72.944a1.1,1.1,0,0,0-.78-1.345L20.786.037a1.1,1.1,0,0,0-1.345.78L.037,73.761a1.1,1.1,0,0,0,.78,1.345Z" transform="matrix(0.839, -0.545, 0.545, 0.839, 1501.91, 638.308)" fill="#e6e6e6"/>
      <path id="Path_66" data-name="Path 66" d="M104.443,25.106l-13.79,51.84A1.35,1.35,0,0,1,89,77.9L1,54.493a.958.958,0,0,1-.18-.065,1.348,1.348,0,0,1-.777-1.586L13.835,1A1.35,1.35,0,0,1,15.486.046l88,23.409a1.35,1.35,0,0,1,.957,1.651Z" transform="matrix(0.839, -0.545, 0.545, 0.839, 1514.625, 638.391)" fill="#fff"/>
      <path id="Path_67" data-name="Path 67" d="M92.612,24.1l-1.959,7.364A1.35,1.35,0,0,1,89,32.424L1,9.015a.969.969,0,0,1-.18-.065A1.348,1.348,0,0,1,.045,7.364L2,0Z" transform="matrix(0.839, -0.545, 0.545, 0.839, 1539.394, 676.533)" fill="#3f3d56"/>
      <rect id="Rectangle_152" data-name="Rectangle 152" width="14.487" height="1.656" transform="translate(1580.709 667.264) rotate(-18)" fill="#ccc"/>
      <rect id="Rectangle_153" data-name="Rectangle 153" width="14.487" height="1.656" transform="translate(1549.021 677.56) rotate(-18)" fill="#ccc"/>
      <rect id="Rectangle_154" data-name="Rectangle 154" width="14.487" height="1.656" transform="translate(1612.399 656.967) rotate(-18)" fill="#ccc"/>
      <ellipse id="Ellipse_17" data-name="Ellipse 17" cx="1.613" cy="1.613" rx="1.613" ry="1.613" transform="matrix(0.966, -0.259, 0.259, 0.966, 1520.686, 628.291)" fill="#3f3d56"/>
      <circle id="Ellipse_18" data-name="Ellipse 18" cx="1.613" cy="1.613" r="1.613" transform="matrix(0.777, -0.629, 0.629, 0.777, 1542.465, 697.109)" fill="#3f3d56"/>
      <ellipse id="Ellipse_19" data-name="Ellipse 19" cx="1.613" cy="1.613" rx="1.613" ry="1.613" transform="translate(1616.402 596.752) rotate(-9)" fill="#3f3d56"/>
      <circle id="Ellipse_20" data-name="Ellipse 20" cx="1.613" cy="1.613" r="1.613" transform="matrix(0.839, -0.545, 0.545, 0.839, 1638.231, 665.826)" fill="#3f3d56"/>
      <rect id="Rectangle_155" data-name="Rectangle 155" width="8.052" height="1.278" transform="translate(1617.862 652.825) rotate(162)" fill="#3f3d56"/>
      <path id="Path_68" data-name="Path 68" d="M0,23.513l1.507.8,61,16.263.889-1.132a13.352,13.352,0,0,0,2.8-6.724c.207-1.835.015-3.765-1.278-4.925L67.016,9.04,33.277,0,17.415,7.059S11.284,5.31,6.828,8.586A10.12,10.12,0,0,0,3.35,13.428l-.709,2.132Z" transform="matrix(0.839, -0.545, 0.545, 0.839, 1541.766, 652.703)" fill="#97d2ff"/>
      <ellipse id="Ellipse_21" data-name="Ellipse 21" cx="7.796" cy="7.796" rx="7.796" ry="7.796" transform="matrix(0.839, -0.545, 0.545, 0.839, 1556.871, 665.526)" fill="#3f3d56"/>
      <ellipse id="Ellipse_22" data-name="Ellipse 22" cx="4.103" cy="4.103" rx="4.103" ry="4.103" transform="matrix(0.839, -0.545, 0.545, 0.839, 1561.979, 666.612)" fill="#ccc"/>
      <ellipse id="Ellipse_23" data-name="Ellipse 23" cx="7.796" cy="7.796" rx="7.796" ry="7.796" transform="matrix(0.839, -0.545, 0.545, 0.839, 1593.442, 653.592)" fill="#3f3d56"/>
      <ellipse id="Ellipse_24" data-name="Ellipse 24" cx="4.103" cy="4.103" rx="4.103" ry="4.103" transform="matrix(0.839, -0.545, 0.545, 0.839, 1598.551, 654.678)" fill="#ccc"/>
      <path id="Path_69" data-name="Path 69" d="M0,4.949,18.223,9.805l2.225.592,3.756,1,.073-.274.881-3.3.989-3.708-2.5-.665-2.224-.594L17.484,1.8l-2.225-.592L10.71,0Z" transform="matrix(0.839, -0.545, 0.545, 0.839, 1562.228, 642.109)" fill="#fff"/>
      <path id="Path_70" data-name="Path 70" d="M0,7.285,9.631,9.853l.505-1.889.878-3.3.56-2.092-1.41-.375L7.94,1.6l-6-1.6Z" transform="matrix(0.839, -0.545, 0.545, 0.839, 1587.685, 631.427)" fill="#fff"/>
      <rect id="Rectangle_156" data-name="Rectangle 156" width="1.278" height="2.428" transform="translate(1591.237 646.156) rotate(162)" fill="#3f3d56"/>
      <rect id="Rectangle_157" data-name="Rectangle 157" width="1.278" height="2.428" transform="translate(1570.458 646.723) rotate(72)" fill="#3f3d56"/>
      <path id="Path_71" data-name="Path 71" d="M0,0H.141A2.671,2.671,0,0,1,2.812,2.671h0A2.671,2.671,0,0,1,.141,5.342H0Z" transform="translate(1569.782 647.537) rotate(162)" fill="#3f3d56"/>
      <path id="Path_72" data-name="Path 72" d="M0,6.975A4.129,4.129,0,0,0,4.187,0,10.12,10.12,0,0,0,.709,4.842Z" transform="matrix(0.839, -0.545, 0.545, 0.839, 1548.658, 658.466)" fill="#3f3d56"/>
      <path id="Path_73" data-name="Path 73" d="M0,0,2.853,8.269l.881-3.3L2.224.594Z" transform="matrix(0.839, -0.545, 0.545, 0.839, 1581.751, 632.836)" fill="#f2f2f2"/>
      <path id="Path_74" data-name="Path 74" d="M0,0,2.2,6.365l.878-3.3L2.224.594Z" transform="matrix(0.839, -0.545, 0.545, 0.839, 1595.214, 628.443)" fill="#f2f2f2"/>
      <path id="Path_75" data-name="Path 75" d="M0,0,2.964,8.593l2.225.592L2.225.592Z" transform="matrix(0.839, -0.545, 0.545, 0.839, 1575.686, 634.815)" fill="#f2f2f2"/>
    </g>
    <g id="Group_147" data-name="Group 147" transform="translate(-2660 -1309.534)">
      <path id="Path_86" data-name="Path 86" d="M334.279,716.6a144.253,144.253,0,0,0-11.939-45.528q-2.695-6.019-5.931-11.774a.879.879,0,0,1,1.517-.887,146.248,146.248,0,0,1,16.274,44.9q1.222,6.6,1.837,13.293c.1,1.125-1.654,1.118-1.757,0Z" transform="translate(3452.845 1372.198)" fill="#f2f2f2"/>
      <circle id="Ellipse_32" data-name="Ellipse 32" cx="11.128" cy="11.128" r="11.128" transform="translate(3753.87 2012.064)" fill="#b9ffd7"/>
      <path id="Path_87" data-name="Path 87" d="M335.09,724.764a93.584,93.584,0,0,0-7.745-29.536q-1.748-3.9-3.848-7.638a.57.57,0,0,1,.984-.575,94.876,94.876,0,0,1,10.557,29.126q.793,4.282,1.191,8.624C336.3,725.494,335.157,725.489,335.09,724.764Z" transform="translate(3450.896 1364.335)" fill="#f2f2f2"/>
      <circle id="Ellipse_33" data-name="Ellipse 33" cx="7.219" cy="7.219" r="7.219" transform="translate(3764.413 2039.314)" fill="#b9ffd7"/>
      <path id="Path_88" data-name="Path 88" d="M341.426,724.24a93.584,93.584,0,0,0,12.059-28.052q1.024-4.154,1.664-8.389a.57.57,0,0,1,1.13.152,94.878,94.878,0,0,1-9.59,29.459q-2.008,3.863-4.365,7.532c-.4.617-1.292-.088-.9-.7Z" transform="translate(3445.998 1364.178)" fill="#f2f2f2"/>
      <circle id="Ellipse_34" data-name="Ellipse 34" cx="7.219" cy="7.219" r="7.219" transform="translate(3795.068 2038.808)" fill="#b9ffd7"/>
      <circle id="Ellipse_42" data-name="Ellipse 42" cx="17.5" cy="17.5" r="17.5" transform="translate(4030 1907.534)" fill="#3f3d56"/>
      <rect id="Rectangle_170" data-name="Rectangle 170" width="292" height="165" rx="15" transform="translate(3799 1924.534)" fill="#3f3d56"/>
      <path id="Path_89" data-name="Path 89" d="M901.175,534.966l.174,130.836a9.172,9.172,0,0,1-9.148,9.175l-54.348.08c15.3-28.62,23.962-73.669,23.911-108.393a204.316,204.316,0,0,0-4.156-40.8l34.392-.05A9.172,9.172,0,0,1,901.175,534.966Z" transform="translate(3172.135 1408.364)" fill="#4b4866"/>
      <rect id="Rectangle_171" data-name="Rectangle 171" width="290" height="30" transform="translate(3800 1987.534)" fill="#fff"/>
      <circle id="Ellipse_43" data-name="Ellipse 43" cx="54.5" cy="54.5" r="54.5" transform="translate(3891 1952.534)" fill="#fff"/>
      <path id="Path_83" data-name="Path 83" d="M981.94,716.6a144.253,144.253,0,0,1,11.939-45.528q2.694-6.019,5.931-11.774a.879.879,0,0,0-1.517-.887,146.25,146.25,0,0,0-16.274,44.9q-1.222,6.6-1.837,13.293c-.1,1.125,1.654,1.118,1.757,0Z" transform="translate(3278.477 1372.198)" fill="#f2f2f2"/>
      <circle id="Ellipse_29" data-name="Ellipse 29" cx="11.128" cy="11.128" r="11.128" transform="translate(4271.415 2012.064)" fill="#b9ffd7"/>
      <path id="Path_84" data-name="Path 84" d="M983.74,724.764a93.581,93.581,0,0,1,7.745-29.536q1.748-3.9,3.848-7.638a.57.57,0,0,0-.984-.575,94.879,94.879,0,0,0-10.557,29.126q-.793,4.282-1.191,8.624c-.068.73,1.073.726,1.14,0Z" transform="translate(3277.815 1364.335)" fill="#f2f2f2"/>
      <circle id="Ellipse_30" data-name="Ellipse 30" cx="7.219" cy="7.219" r="7.219" transform="translate(4268.69 2039.314)" fill="#b9ffd7"/>
      <path id="Path_85" data-name="Path 85" d="M976.595,724.24a93.585,93.585,0,0,1-12.059-28.052q-1.024-4.154-1.664-8.389a.57.57,0,0,0-1.13.152,94.876,94.876,0,0,0,9.59,29.459q2.008,3.863,4.365,7.532C976.092,725.558,976.988,724.853,976.595,724.24Z" transform="translate(3283.522 1364.178)" fill="#f2f2f2"/>
      <circle id="Ellipse_31" data-name="Ellipse 31" cx="7.219" cy="7.219" r="7.219" transform="translate(4238.035 2038.808)" fill="#b9ffd7"/>
      <path id="Path_90" data-name="Path 90" d="M1004.262,740.315h-714.4c-.636,0-1.152-.387-1.152-.865s.516-.865,1.152-.865h714.4c.636,0,1.152.387,1.152.865S1004.9,740.315,1004.262,740.315Z" transform="translate(3322.378 1350.152)" fill="#3f3d56"/>
      <path id="Path_91" data-name="Path 91" d="M778.908,498.634l-96.858-.38,9.418-31.335a12.058,12.058,0,0,1,11.48-8.536h.046l55.284.217a12.056,12.056,0,0,1,11.458,8.626Z" transform="translate(3214.762 1426.814)" fill="#3f3d56"/>
      <path id="Path_92" data-name="Path 92" d="M886,499.033a10.17,10.17,0,0,0-10.17,10.17h20.339A10.17,10.17,0,0,0,886,499.033Z" transform="translate(3161.746 1415.693)" fill="#fff"/>
      <path id="Path_93" data-name="Path 93" d="M827.492,677.654H560.175A12.363,12.363,0,0,1,547.826,665.3V524.382a12.363,12.363,0,0,1,12.349-12.349H827.492a12.363,12.363,0,0,1,12.349,12.349V665.3a12.363,12.363,0,0,1-12.349,12.349ZM560.175,513.486a10.908,10.908,0,0,0-10.9,10.9V665.3a10.909,10.909,0,0,0,10.9,10.9H827.492a10.909,10.909,0,0,0,10.9-10.9V524.382a10.908,10.908,0,0,0-10.9-10.9Z" transform="translate(3251.485 1412.136)" fill="#3f3d56"/>
      <path id="Path_94" data-name="Path 94" d="M753.745,492.882H730.5a6.174,6.174,0,0,1,0-12.349h23.245a6.174,6.174,0,0,1,0,12.349Z" transform="translate(3203.195 1420.754)" fill="#fff"/>
      <path id="Path_95" data-name="Path 95" d="M728.033,660.447A55.207,55.207,0,1,1,783.24,605.24a55.207,55.207,0,0,1-55.207,55.207Zm0-108.961a53.754,53.754,0,1,0,53.754,53.754A53.754,53.754,0,0,0,728.033,551.486Z" transform="translate(3217.285 1401.739)" fill="#3f3d56"/>
      <path id="Path_96" data-name="Path 96" d="M735.146,648.674a36.32,36.32,0,1,1,36.32-36.32A36.32,36.32,0,0,1,735.146,648.674Zm0-71.188a34.867,34.867,0,1,0,34.868,34.867,34.867,34.867,0,0,0-34.868-34.867Z" transform="translate(3210.172 1394.626)" fill="#3f3d56"/>
      <circle id="Ellipse_35" data-name="Ellipse 35" cx="27.603" cy="27.603" r="27.603" transform="translate(3917.715 1979.376)" fill="#3f3d56"/>
      <path id="Path_97" data-name="Path 97" d="M723.9,619.193a18.16,18.16,0,0,1,15.615-17.979,18.16,18.16,0,1,0,0,35.958A18.161,18.161,0,0,1,723.9,619.193Z" transform="translate(3204.706 1387.786)" fill="#fff"/>
      <path id="Path_98" data-name="Path 98" d="M901.146,506.92h-36.32v-.726a18.16,18.16,0,0,1,36.32,0Zm-34.852-1.453h33.383a16.708,16.708,0,0,0-33.383,0Z" transform="translate(3164.755 1418.702)" fill="#3f3d56"/>
      <path id="Path_99" data-name="Path 99" d="M570.09,536.561a7.264,7.264,0,1,1,7.264-7.264A7.264,7.264,0,0,1,570.09,536.561Zm0-13.075A5.811,5.811,0,1,0,575.9,529.3a5.811,5.811,0,0,0-5.811-5.811Z" transform="translate(3247.381 1409.4)" fill="#fff"/>
      <circle id="Ellipse_36" data-name="Ellipse 36" cx="3.632" cy="3.632" r="3.632" transform="translate(3813.839 1935.065)" fill="#ffe84e"/>
      <circle id="Ellipse_37" data-name="Ellipse 37" cx="3.632" cy="3.632" r="3.632" transform="translate(3832.725 1935.065)" fill="#fff"/>
      <circle id="Ellipse_38" data-name="Ellipse 38" cx="3.632" cy="3.632" r="3.632" transform="translate(3851.612 1935.065)" fill="#fff"/>
      <path id="Path_100" data-name="Path 100" d="M596.09,536.561a7.264,7.264,0,1,1,7.264-7.264A7.264,7.264,0,0,1,596.09,536.561Zm0-13.075A5.811,5.811,0,1,0,601.9,529.3a5.811,5.811,0,0,0-5.811-5.811Z" transform="translate(3240.267 1409.4)" fill="#fff"/>
      <path id="Path_101" data-name="Path 101" d="M622.09,536.561a7.264,7.264,0,1,1,7.264-7.264A7.264,7.264,0,0,1,622.09,536.561Zm0-13.075A5.811,5.811,0,1,0,627.9,529.3a5.811,5.811,0,0,0-5.811-5.811Z" transform="translate(3233.154 1409.4)" fill="#fff"/>
      <rect id="Rectangle_164" data-name="Rectangle 164" width="94.433" height="1.453" transform="translate(3800.037 1987.274)" fill="#3f3d56"/>
      <rect id="Rectangle_165" data-name="Rectangle 165" width="92.087" height="1.453" transform="translate(3800.037 2016.514)" fill="#3f3d56"/>
      <rect id="Rectangle_166" data-name="Rectangle 166" width="94.433" height="1.453" transform="translate(3996.167 1987.274)" fill="#3f3d56"/>
      <rect id="Rectangle_167" data-name="Rectangle 167" width="92.087" height="1.453" transform="translate(3998.346 2016.514)" fill="#3f3d56"/>
      <g id="Girl" transform="translate(4070.957 1788.356)">
        <path id="Path_102" data-name="Path 102" d="M468.039,386.617c5.891-2.706,9.763-10.443,9.542-18.074s-4.236-14.767-9.774-18.406a19.358,19.358,0,0,0-18.32-1.384c-5.944,2.53-13.924,3.219-17.5,9.508-2.746,4.833-1.756,15.614.187,20.988,1.68,4.645,5.788,7.262,9.794,8.726a32.935,32.935,0,0,0,27.248-2.195" transform="translate(-372.421 -331.089)" fill="#2f2e41"/>
        <path id="Path_103" data-name="Path 103" d="M222.349,554.872l8.469-2.755-6.6-33.976-12.5,4.066Z" transform="translate(-90.813 -262.369)" fill="#ffb8b8"/>
        <path id="Path_104" data-name="Path 104" d="M10.814,10.814H27.989V0H0A10.814,10.814,0,0,0,10.814,10.814Z" transform="translate(158.899 292.298) rotate(161.979)" fill="#2f2e41"/>
        <path id="Path_105" data-name="Path 105" d="M309.659,556.023h8.906l4.236-34.35H309.658Z" transform="translate(-253.938 -263.335)" fill="#ffb8b8"/>
        <path id="Path_107" data-name="Path 107" d="M395.27,646.6c.054,0,.107,0,.161,0l9.869-.47a3.273,3.273,0,0,0,3.113-3.22l1.337-97.622a1.09,1.09,0,0,1,2.053-.493L464.075,643.9a3.252,3.252,0,0,0,3.5,1.686l9.822-1.871a3.268,3.268,0,0,0,2.471-4.3L441.785,531.507l-2.931-31.921a3.247,3.247,0,0,0-2.859-2.942c-11.1-1.363-26.6-10.456-32.755-14.3a3.229,3.229,0,0,0-2.565-.386,3.31,3.31,0,0,0-2.056,1.631,147.278,147.278,0,0,0-16.182,90.058l9.6,70.127a3.251,3.251,0,0,0,3.233,2.826Z" transform="translate(-339.1 -367.961)" fill="#3f3d56"/>
        <ellipse id="Ellipse_39" data-name="Ellipse 39" cx="17.841" cy="17.841" rx="17.841" ry="17.841" transform="translate(64.892 27.343)" fill="#ffb8b8"/>
        <path id="Path_108" data-name="Path 108" d="M470.93,492l5.372-38.387a22.551,22.551,0,0,0-44-9.9c-1.53,7.1-4.638,15.734-3.5,25.046h0C436.754,490.839,451.2,497.648,470.93,492Z" transform="translate(-370.419 -352.711)" fill="#4689ef"/>
        <path id="Path_109" data-name="Path 109" d="M449.983,430.717h13.075a3.273,3.273,0,0,0,3.269-3.269V423.09a3.273,3.273,0,0,0-3.269-3.269H449.983a3.272,3.272,0,0,0-3.269,3.269v4.358A3.273,3.273,0,0,0,449.983,430.717Z" transform="translate(-373.081 -350.991)" fill="#4689ef"/>
        <path id="Path_110" data-name="Path 110" d="M479.466,508.932a7.8,7.8,0,0,1,6.331-10.154l40.7-58.268,12.069,11.931-43.8,53.524a7.846,7.846,0,0,1-15.3,2.967Z" transform="translate(-468.829 -356.652)" fill="#ffb8b8"/>
        <path id="Path_111" data-name="Path 111" d="M474.918,456.529l14.7,9.812a3.5,3.5,0,0,0,5.106-1.415L502.251,449a9.717,9.717,0,1,0-16.2-10.743l-11.789,13.017a3.5,3.5,0,0,0,.651,5.258Z" transform="translate(-429.982 -354.845)" fill="#4689ef"/>
        <path id="Path_112" data-name="Path 112" d="M388.834,424.707a7.643,7.643,0,0,0-.174,1.191l-31.2,18-7.585-4.366-8.086,10.585,12.676,9.035a5.811,5.811,0,0,0,6.972-.17L393.611,433.6a7.625,7.625,0,1,0-4.777-8.892Z" transform="translate(-234.416 -350.718)" fill="#ffb8b8"/>
        <path id="Path_113" data-name="Path 113" d="M431.88,461.132,439.72,445.3a3.5,3.5,0,0,0-2.059-4.882L420.9,434.995a9.717,9.717,0,1,0-8.572,17.442l14.424,10.017a3.5,3.5,0,0,0,5.131-1.322Z" transform="translate(-317.91 -354.87)" fill="#4689ef"/>
        <path id="Path_114" data-name="Path 114" d="M467.988,352.692a2.952,2.952,0,0,1-3.136-1.75,4.25,4.25,0,0,1,.3-3.732,7.8,7.8,0,0,1,2.743-2.69,9.012,9.012,0,0,1,4.345-1.495,5.42,5.42,0,0,1,4.209,1.6,3.906,3.906,0,0,1,.706,4.306,5.76,5.76,0,0,1-3.355,2.443,19.681,19.681,0,0,1-8.265,1.086" transform="translate(-397.227 -329.977)" fill="#2f2e41"/>
        <path id="Path_115" data-name="Path 115" d="M442.23,387.453c3.118.147,2.581-6.47,3.557-9.436s2.321-6.5,5.391-7.071c2.516-.466,4.789,1.373,6.98,2.694,3.906,2.354,8.961,3.222,13.062,1.228s6.595-7.321,4.6-11.421a9.353,9.353,0,0,0-5.847-4.606,18.819,18.819,0,0,0-7.6-.365,38.882,38.882,0,0,0-15.9,5.635c-3.328,2.087-6.5,4.93-7.486,8.731s-1.395,14.14,2.479,14.794Z" transform="translate(-377.174 -334.145)" fill="#2f2e41"/>
        <path id="Path_116" data-name="Path 116" d="M545.468,338.579c2.355-2.986,1.468-7.691-1.277-10.323s-6.828-3.452-10.616-3.118a21.517,21.517,0,0,0-17.452,12.549c-2.394,5.477-2.374,11.741-4.54,17.312a23.344,23.344,0,0,1-31.533,12.743c-3.769-1.738-7.357-5.14-7.142-9.285a22.83,22.83,0,0,0,10.041,24.587c4.763,2.865,10.4,3.838,15.923,4.508,3.6.436,7.292.761,10.8-.138a19.09,19.09,0,0,0,11.51-9.3,30.217,30.217,0,0,0,3.506-14.628c.03-3.948-.487-7.9-.214-11.837s1.457-8.013,4.313-10.74,7.673-3.625,10.807-1.223c1.259.965,2.182,2.375,3.6,3.087s3.658.158,3.753-1.426Z" transform="translate(-472.252 -325.067)" fill="#2f2e41"/>
        <path id="Path_106" data-name="Path 106" d="M309.021,565.457H291.846v10.814h27.989A10.814,10.814,0,0,0,309.021,565.457Z" transform="translate(-238.033 -275.314)" fill="#2f2e41"/>
      </g>
      <path id="Path_117" data-name="Path 117" d="M322.85,392.061H175.7a5.08,5.08,0,0,1-5.074-5.074v-82.88a5.08,5.08,0,0,1,5.074-5.074H322.85a5.08,5.08,0,0,1,5.074,5.074v82.879a5.08,5.08,0,0,1-5.074,5.075ZM175.7,300.16a3.951,3.951,0,0,0-3.947,3.947v82.879a3.951,3.951,0,0,0,3.947,3.947H322.85a3.951,3.951,0,0,0,3.947-3.947V304.107a3.951,3.951,0,0,0-3.947-3.947Z" transform="translate(3450.839 1578.598)" fill="#3f3d56"/>
      <circle id="Ellipse_40" data-name="Ellipse 40" cx="21.042" cy="21.042" r="21.042" transform="translate(3654.004 1893.726)" fill="#e6e6e6"/>
      <path id="Path_118" data-name="Path 118" d="M317.908,379.945l-24.7-42.782a1.759,1.759,0,0,0-3.047,0l-15.074,26.108-22.472-38.922a2.255,2.255,0,0,0-3.906,0L217.041,379.2a2.255,2.255,0,0,0,1.953,3.383h97.391a1.759,1.759,0,0,0,1.523-2.638Z" transform="translate(3438.222 1571.98)" fill="#97d2ff"/>
      <rect id="Rectangle_168" data-name="Rectangle 168" width="9.021" height="9.021" transform="translate(3632.174 1887.779)" fill="#3f3d56"/>
      <path id="Path_119" data-name="Path 119" d="M414.24,231.722H299.26a3.969,3.969,0,0,1-3.965-3.965V163a3.969,3.969,0,0,1,3.965-3.965H414.24A3.969,3.969,0,0,1,418.2,163v64.759A3.969,3.969,0,0,1,414.24,231.722ZM299.26,159.914A3.087,3.087,0,0,0,296.176,163v64.759a3.087,3.087,0,0,0,3.084,3.084H414.24a3.087,3.087,0,0,0,3.084-3.084V163a3.087,3.087,0,0,0-3.084-3.084Z" transform="translate(3416.729 1616.901)" fill="#ccc"/>
      <circle id="Ellipse_41" data-name="Ellipse 41" cx="16.441" cy="16.441" r="16.441" transform="translate(3737.453 1788.51)" fill="#f2f2f2"/>
      <path id="Path_120" data-name="Path 120" d="M410.379,222.254l-19.3-33.428a1.374,1.374,0,0,0-2.38,0l-11.778,20.4-17.559-30.412a1.762,1.762,0,0,0-3.052,0l-24.745,42.859a1.762,1.762,0,0,0,1.526,2.643h76.1a1.374,1.374,0,0,0,1.191-2.062Z" transform="translate(3406.871 1611.73)" fill="#e6e6e6"/>
      <rect id="Rectangle_169" data-name="Rectangle 169" width="7.049" height="7.049" transform="translate(3720.394 1783.864)" fill="#ccc"/>
    </g>
  </g>
</svg>
