<svg width="24" height="24" viewBox="0 0 24 24" fill="none" xmlns="http://www.w3.org/2000/svg">
<g clip-path="url(#clip0_601_7)">
<g filter="url(#filter0_d_601_7)">
<path d="M12 24C14.3734 24 16.6935 23.2962 18.6668 21.9776C20.6402 20.6591 22.1783 18.7849 23.0866 16.5922C23.9948 14.3995 24.2324 11.9867 23.7694 9.65892C23.3064 7.33115 22.1635 5.19295 20.4853 3.51472C18.8071 1.83649 16.6689 0.693605 14.3411 0.230582C12.0133 -0.232441 9.60051 0.00519943 7.4078 0.913451C5.21509 1.8217 3.34094 3.35977 2.02237 5.33316C0.703789 7.30655 0 9.62663 0 12C0 15.1826 1.26428 18.2349 3.51472 20.4853C5.76516 22.7357 8.8174 24 12 24V24Z" fill="#CFECFF"/>
</g>
<path d="M7.849 5.52502V6.37602H16.141V5.52502H7.849ZM7.849 11.911V18.482H8.793V12.758H16.141V11.906L7.849 11.911Z" fill="#4896EF"/>
</g>
<defs>
<filter id="filter0_d_601_7" x="-16" y="-12" width="64" height="64" filterUnits="userSpaceOnUse" color-interpolation-filters="sRGB">
<feFlood flood-opacity="0" result="BackgroundImageFix"/>
<feColorMatrix in="SourceAlpha" type="matrix" values="0 0 0 0 0 0 0 0 0 0 0 0 0 0 0 0 0 0 127 0" result="hardAlpha"/>
<feOffset dx="4" dy="8"/>
<feGaussianBlur stdDeviation="10"/>
<feColorMatrix type="matrix" values="0 0 0 0 0.282353 0 0 0 0 0.588235 0 0 0 0 0.937255 0 0 0 0.2 0"/>
<feBlend mode="normal" in2="BackgroundImageFix" result="effect1_dropShadow_601_7"/>
<feBlend mode="normal" in="SourceGraphic" in2="effect1_dropShadow_601_7" result="shape"/>
</filter>
<clipPath id="clip0_601_7">
<rect width="24" height="24" fill="white"/>
</clipPath>
</defs>
</svg>
