<svg width="153" height="36" viewBox="0 0 153 36" fill="none" xmlns="http://www.w3.org/2000/svg">
<path d="M149.72 11.4808H147.659L139.176 30.3463L130.773 11.4808H128.632L138.126 32.5681H140.186L149.72 11.4808Z" fill="#4896EF"/>
<path d="M121.603 11.4808H119.543L111.06 30.3463L102.657 11.4808H100.516L110.009 32.5681H112.07L121.603 11.4808Z" fill="#4896EF"/>
<path d="M88.1392 30.0614C86.9818 30.5388 85.7046 30.7775 84.3874 30.7775C82.2322 30.7775 80.436 30.2205 78.9195 29.1065C77.4028 27.9925 76.3651 26.4806 75.8862 24.5707L93.4871 21.1492C93.3673 19.319 92.9283 17.6877 92.0502 16.2155C91.1722 14.7434 90.0147 13.5896 88.5779 12.754C87.141 11.9185 85.5047 11.4808 83.7086 11.4808C81.7529 11.4808 79.9969 11.9583 78.4803 12.8336C76.9237 13.7487 75.7264 14.9821 74.8485 16.5737C73.9704 18.1651 73.5713 19.9952 73.5713 22.0245C73.5713 24.0934 74.0103 25.8839 74.9283 27.4753C75.8462 29.0668 77.1234 30.3399 78.7597 31.2154C80.396 32.1305 82.232 32.5681 84.3473 32.5681C85.9438 32.5681 87.4205 32.2896 88.8175 31.7326C90.1345 31.1756 91.292 30.3401 92.2099 29.1863L91.0525 27.8733C90.2543 28.868 89.2964 29.5841 88.139 30.0616L88.1392 30.0614ZM79.4783 14.3457C80.7156 13.6295 82.1125 13.2316 83.7088 13.2316C85.0658 13.2316 86.343 13.5499 87.4607 14.1467C88.5782 14.7435 89.4562 15.5791 90.1746 16.5737C90.8531 17.6082 91.2922 18.762 91.4917 19.9952L75.607 23.0986C75.5271 22.5814 75.5271 22.1835 75.5271 21.8652C75.5271 20.234 75.8464 18.7221 76.5649 17.409C77.2434 16.0961 78.2012 15.0616 79.4784 14.3455L79.4783 14.3457Z" fill="#4896EF"/>
<path d="M61.5433 12.7236C60.1726 13.5254 59.1647 14.688 58.5196 16.2115V11.6411H56.5845V32.5681H58.6003V21.6636C58.6003 19.0978 59.2453 17.0532 60.5757 15.6101C61.8658 14.1669 63.7204 13.4052 66.0585 13.4052L66.5423 13.4453V11.4808C64.5669 11.4808 62.9139 11.9218 61.543 12.7236L61.5433 12.7236Z" fill="#4896EF"/>
<path d="M34.0415 31.2154C35.6125 32.1305 37.3407 32.5681 39.3045 32.5681C41.2289 32.5681 42.957 32.1305 44.5279 31.2154C46.0989 30.34 47.3165 29.0668 48.2199 27.4752C49.0839 25.8837 49.5552 24.0537 49.5552 22.0243C49.5552 20.0349 49.0839 18.2049 48.2199 16.6134C47.3166 15.0219 46.0991 13.7487 44.5279 12.8336C42.957 11.9583 41.2287 11.4808 39.3045 11.4808C37.3407 11.4808 35.6125 11.9583 34.0415 12.8336C32.4705 13.7487 31.253 15.0219 30.389 16.6134C29.4857 18.2049 29.0537 20.0349 29.0537 22.0243C29.0537 24.0535 29.4857 25.8837 30.389 27.4752C31.2531 29.0667 32.4706 30.3399 34.0415 31.2154V31.2154ZM43.5066 29.6637C42.2498 30.4196 40.8752 30.7777 39.3042 30.7777C37.7332 30.7777 36.3193 30.4196 35.0625 29.6637C33.8058 28.9475 32.8239 27.913 32.1169 26.5603C31.41 25.2473 31.0565 23.7354 31.0565 22.0244C31.0565 20.3533 31.41 18.8414 32.1169 17.4885C32.8239 16.1755 33.8058 15.1411 35.0625 14.3851C36.3193 13.6689 37.7332 13.2711 39.3042 13.2711C40.8751 13.2711 42.2498 13.6689 43.5066 14.3851C44.7634 15.1411 45.7453 16.1755 46.4522 17.4885C47.1592 18.8413 47.5519 20.3532 47.5519 22.0244C47.5519 23.7352 47.1592 25.2471 46.4522 26.5603C45.7453 27.913 44.7634 28.9475 43.5066 29.6637Z" fill="#4896EF"/>
<path d="M3.28027 3.28027V5.20491H22.0244V3.28027H3.28027ZM3.28027 32.5682H5.4141V19.6395H22.0245V17.7149H3.28041L3.28027 32.5682Z" fill="#4896EF"/>
</svg>
