<?xml version="1.0" encoding="UTF-8" standalone="no"?>
<svg
   xmlns:dc="http://purl.org/dc/elements/1.1/"
   xmlns:cc="http://creativecommons.org/ns#"
   xmlns:rdf="http://www.w3.org/1999/02/22-rdf-syntax-ns#"
   xmlns:svg="http://www.w3.org/2000/svg"
   xmlns="http://www.w3.org/2000/svg"
   xmlns:xlink="http://www.w3.org/1999/xlink"
   id="svg7"
   xml:space="preserve"
   viewBox="0 0 1024 1024"
   y="0px"
   x="0px"
   version="1.1"><metadata
     id="metadata13"><rdf:RDF><cc:Work
         rdf:about=""><dc:format>image/svg+xml</dc:format><dc:type
           rdf:resource="http://purl.org/dc/dcmitype/StillImage" /></cc:Work></rdf:RDF></metadata><defs
     id="defs11" /><g
     id="g3"
     transform="matrix(1.5,0,0,1.5,512,512)"><path
       style="fill:#cfecff"
       d="m 152.4,-201.9 c 46.6,26 86.9,68.5 97.2,116.9 10.4,48.3 -9.3,102.5 -32.2,150.3 -22.9,47.8 -49,89.1 -85.8,121.8 -36.8,32.8 -84.2,56.8 -135.5,62.2 -51.4,5.4 -106.6,-7.9 -148.6,-38.9 -42,-31 -70.8,-79.8 -87.5,-132.2 -16.8,-52.4 -21.5,-108.6 -2.2,-153.4 19.4,-44.8 62.9,-78.2 107.3,-105 44.4,-26.7 89.6,-46.8 138.7,-52 49.1,-5.3 102,4.2 148.6,30.3 z"
       id="path" /></g><animate
     fill="freeze"
     values="M206.8,-73.4C230.5,5.5,186.1,100.2,115.9,148.7C45.7,197.1,-50.4,199.3,-120.9,151.5C-191.4,103.8,-236.5,6.2,-212.1,-73.7C-187.7,-153.6,-93.8,-215.8,-1.1,-215.5C91.6,-215.1,183.2,-152.2,206.8,-73.4Z;    M182.4,-49.1C211.4,30,192.7,134.7,130.2,180.4C67.8,226,-38.4,212.5,-103.7,160.8C-169,109.1,-193.4,19.2,-169.3,-53.2C-145.2,-125.5,-72.6,-180.3,2.1,-180.9C76.7,-181.6,153.4,-128.2,182.4,-49.1Z;       M206.5,-62.1C234.2,18.2,200.3,123.6,127.4,176.9C54.5,230.3,-57.4,231.6,-130,178.9C-202.6,126.2,-235.9,19.4,-207.6,-61.6C-179.4,-142.6,-89.7,-197.8,-0.2,-197.8C89.4,-197.7,178.8,-142.4,206.5,-62.1Z;    M182.7,-58.2C208.7,20.8,182.5,118,115.8,168.8C49,219.5,-58.4,223.8,-119.6,176.5C-180.9,129.2,-196,30.3,-168.4,-50.9C-140.8,-132.1,-70.4,-195.5,4,-196.8C78.3,-198.1,156.6,-137.2,182.7,-58.2Z;    M205.7,-67.2C231.4,12.1,192.7,112.1,125.9,156.6C59.2,201.2,-35.7,190.4,-103.3,141.4C-171,92.4,-211.5,5.3,-189.8,-68.7C-168,-142.6,-84,-203.3,3,-204.3C90,-205.3,180.1,-146.5,205.7,-67.2Z;      M206.8,-73.4C230.5,5.5,186.1,100.2,115.9,148.7C45.7,197.1,-50.4,199.3,-120.9,151.5C-191.4,103.8,-236.5,6.2,-212.1,-73.7C-187.7,-153.6,-93.8,-215.8,-1.1,-215.5C91.6,-215.1,183.2,-152.2,206.8,-73.4Z"
     keySplines="0.9 0.1 0.1 0.9;0.9 0.1 0.1 0.9;0.9 0.1 0.1 0.9;0.9 0.1 0.1 0.9;0.9 0.1 0.1 0.9"
     calcMode="spline"
     keyTimes="0; 0.2; 0.4; 0.6; 0.8; 1"
     attributeName="d"
     repeatCount="indefinite"
     dur="20s"
     attributeType="XML"
     xlink:href="#path" /><path
     id="path5"
     transform="translate(153.6 243.2) scale(0.7)"
     fill="#4896EF"
     d="m256 336.82v6.166h60.045v-6.166zm125.75 23.32c-6.7014 0-12.6 1.608-17.961 4.5566-5.3611 3.0826-9.5162 7.3733-12.465 12.734-3.0827 5.3611-4.5567 11.525-4.5567 18.227 0 6.8354 1.474 13 4.5567 18.361 2.9486 5.3611 7.1037 9.651 12.465 12.6 5.3611 3.0826 11.26 4.5566 17.961 4.5566 6.5674 0 12.463-1.474 17.824-4.5566 5.3611-2.9486 9.5169-7.2385 12.6-12.6 2.9486-5.3611 4.5566-11.526 4.5566-18.361 0-6.7014-1.608-12.865-4.5566-18.227-3.0827-5.3611-7.2385-9.6517-12.6-12.734-5.3611-2.9486-11.257-4.5566-17.824-4.5566zm107.36 0c-6.5674 0-12.062 1.4757-16.619 4.1563-4.5569 2.6806-7.9083 6.5671-10.053 11.66v-15.279h-6.4336v69.963h6.7012v-36.457c0-8.5778 2.1454-15.413 6.5684-20.238 4.2889-4.825 10.455-7.3711 18.229-7.3711l1.6074 0.13477zm62.959 0c-6.5674 0-12.464 1.608-17.557 4.5566-5.2271 3.0826-9.2486 7.2385-12.197 12.6-2.9486 5.3611-4.289 11.526-4.289 18.361 0 6.9694 1.474 13 4.5566 18.361 3.0826 5.3611 7.372 9.651 12.867 12.6 5.4951 3.0826 11.66 4.5566 18.764 4.5566 5.3611 0 10.321-0.93805 15.012-2.8144 4.4229-1.8764 8.3099-4.6913 11.393-8.5781l-3.8867-4.4219c-2.6805 3.3507-5.8984 5.7628-9.7852 7.3711s-8.1747 2.4121-12.598 2.4121c-7.2375 0-13.268-1.8761-18.361-5.6289-5.0931-3.7528-8.5792-8.846-10.188-15.279l59.107-11.527c-0.40211-6.1653-1.8776-11.66-4.8262-16.619s-6.8352-8.8456-11.66-11.66c-4.825-2.8146-10.32-4.2891-16.352-4.2891zm57.201 0.53711 31.496 69.963h6.836l31.631-69.963h-6.8359l-28.146 62.59-27.877-62.59zm88.77 0 31.496 69.963h6.8359l31.631-69.963h-6.8359l-28.145 62.59-27.879-62.59zm-145.97 5.3613c4.5569 0 8.8468 1.0716 12.6 3.082 3.7528 2.0104 6.7007 4.8251 9.1133 8.1758 2.2784 3.4847 3.7537 7.3705 4.4238 11.525l-53.344 10.455c-0.26805-1.7424-0.26757-3.0821-0.26757-4.1543 0-5.4952 1.0719-10.589 3.4844-15.012 2.2785-4.4229 5.4943-7.9078 9.7832-10.32 4.1549-2.4125 8.8459-3.752 14.207-3.752zm-170.32 0.13282c5.3611 0 10.051 1.3414 14.34 3.7539 4.2889 2.5465 7.6402 6.0302 10.053 10.453 2.4125 4.557 3.752 9.6501 3.752 15.279 0 5.7632-1.3394 10.856-3.752 15.279-2.4125 4.557-5.7638 8.0426-10.053 10.455-4.2889 2.5465-8.9787 3.752-14.34 3.752-5.3611 0-10.188-1.2054-14.477-3.752-4.2889-2.4125-7.6383-5.8981-10.051-10.455-2.4125-4.4229-3.6192-9.5161-3.6192-15.279 0-5.6292 1.2067-10.722 3.6192-15.279 2.4125-4.4229 5.7619-7.9066 10.051-10.453 4.2889-2.4125 9.1154-3.7539 14.477-3.7539zm-125.75 16.89v47.58h6.8359v-41.416h53.209v-6.1641z" /></svg>