<svg xmlns="http://www.w3.org/2000/svg" width="1920" height="441.23" viewBox="0 0 1920 441.23">
  <path id="Exclusion_2" data-name="Exclusion 2" d="M2539.409,535.594a110.036,110.036,0,0,1-18.514-1.522,94.072,94.072,0,0,1-17.027-4.566,89.878,89.878,0,0,1-15.187-7.328,80.828,80.828,0,0,1-12.992-9.806,74.253,74.253,0,0,1-10.585-12.248,81.2,81.2,0,0,1-7.965-14.655,83.1,83.1,0,0,1-4.991-16.78,101.1,101.1,0,0,1-1.664-18.621c0-2.629.1-5.964.283-9.912a51.358,51.358,0,0,1,1.841-11.47,27.08,27.08,0,0,1,4.531-9.345,9.411,9.411,0,0,1,3.646-2.868,12.285,12.285,0,0,1,4.991-.956,32.24,32.24,0,0,1,10.054,1.84,45.6,45.6,0,0,1,10.337,4.956,30.858,30.858,0,0,1,8.071,7.505,15.676,15.676,0,0,1,3.257,9.487V455.73a56.133,56.133,0,0,0,2.655,17.736,41.683,41.683,0,0,0,7.965,14.125,33.349,33.349,0,0,0,12.992,9.239,47.622,47.622,0,0,0,17.735,3.08,51.068,51.068,0,0,0,13.169-1.629A39.864,39.864,0,0,0,2563.2,493.4a52.825,52.825,0,0,0,16.567-16.709,75.616,75.616,0,0,0,9.346-22.8,108.155,108.155,0,0,0,2.974-24.781,113.343,113.343,0,0,0-2.925-25.61H2387.267c.371,7.214.773,14.687,1.2,22.211.945,14.187,1.85,28.575,2.69,42.764.846,14.284,1.274,28.672,1.274,42.764,0,4.322-1.1,7.7-3.257,10.053a10.138,10.138,0,0,1-4.071,2.655,16.786,16.786,0,0,1-5.7.885,43.84,43.84,0,0,1-6.8-.708,75.836,75.836,0,0,1-8.637-1.983,64.676,64.676,0,0,1-8.213-2.974,14.723,14.723,0,0,1-5.239-3.4,18.675,18.675,0,0,1-4.248-7.505,36.284,36.284,0,0,1-.85-8.354c0-29.125-.286-58.472-.85-87.227-.058-2.977-.116-6.067-.17-9.184h42.871c-.481-9.345-.936-18.737-1.354-27.915-.752-16.545-2.181-33.41-4.248-50.127,1.877-5.067,4.735-13.261,8.5-24.356s7.953-23.911,12.46-38.091l.075-.235.149-.468.573-1.808H2361.1c6.093-23.617,12.3-47.307,18.441-70.413,6.294-23.673,11.773-48.066,16.284-72.5.376-2.254.805-4.779,1.274-7.505a41.568,41.568,0,0,1,1.983-7.5,15.28,15.28,0,0,1,3.823-5.806,9.944,9.944,0,0,1,7.079-2.408,32.649,32.649,0,0,1,9.2,1.7,50.716,50.716,0,0,1,10.62,4.673,40.431,40.431,0,0,1,8.78,6.8,11.892,11.892,0,0,1,3.682,8.355c0,3.943-1.239,11.232-3.682,21.665s-5.59,22.731-9.346,36.534-8.041,28.658-12.744,44.179c-4.436,14.637-8.837,28.847-13.08,42.235h93.619c-1.1-1.493-2.182-2.982-3.225-4.427a267.89,267.89,0,0,1-24.5-40.782,101.478,101.478,0,0,1-7.328-20.6,92.159,92.159,0,0,1-2.442-21.028,71.466,71.466,0,0,1,1.734-16.107,53.7,53.7,0,0,1,5.2-13.771,62.8,62.8,0,0,1,8.072-11.47,60.391,60.391,0,0,1,10.337-9.2,76.646,76.646,0,0,1,12.248-7.01,85.637,85.637,0,0,1,13.806-4.885,119.017,119.017,0,0,1,30.162-3.823,115.531,115.531,0,0,1,17.983,1.345,88.6,88.6,0,0,1,16,4.036,75.508,75.508,0,0,1,13.877,6.584,66.035,66.035,0,0,1,11.611,8.993,63.674,63.674,0,0,1,9.24,11.363,72.177,72.177,0,0,1,6.761,13.7,85.128,85.128,0,0,1,4.142,15.895,111.945,111.945,0,0,1,1.381,17.948c0,1.874-.1,4.257-.283,7.08a41.968,41.968,0,0,1-1.417,8.354,20.642,20.642,0,0,1-3.4,7.08,7.431,7.431,0,0,1-6.23,2.974,25.255,25.255,0,0,1-11.328-2.831,49.084,49.084,0,0,1-7.789-4.956,19.292,19.292,0,0,1-4.673-5.381,24.554,24.554,0,0,1-2.549-6.655,77.652,77.652,0,0,1-1.416-9.062,144.673,144.673,0,0,0-3.682-18.409,38.341,38.341,0,0,0-6.8-13.877,29.858,29.858,0,0,0-11.895-8.779c-4.886-2.067-11.27-3.116-18.975-3.116a71.348,71.348,0,0,0-15.717,1.7,35.669,35.669,0,0,0-13.028,5.665,28.531,28.531,0,0,0-8.779,10.336c-2.161,4.228-3.256,9.516-3.256,15.718a61.954,61.954,0,0,0,1.451,13.169,75.21,75.21,0,0,0,4.354,13.452,171.134,171.134,0,0,0,15.293,27.754c6.295,9.394,13.536,19.161,21.524,29.029l.606.749,2.63,3.252v0h-49.715c8.872,12.077,18.554,24.4,28.777,36.637,11.465,13.721,22.232,27.87,32,42.055,4.887,7.1,9.425,14.374,13.488,21.63s7.768,14.7,11.009,22.125a118.581,118.581,0,0,1,6.846,20.552h43.55c-.78-3.7-1.728-7.424-2.817-11.065a212.57,212.57,0,0,0-15.293-37.524,298.994,298.994,0,0,0-21.523-34.976c-7.985-11.179-16.322-22.184-24.781-32.71-7.377-9.18-14.625-18.172-21.542-26.725H3320v143H2632.71a140.913,140.913,0,0,1,2.989,29.008A121.018,121.018,0,0,1,2634,452.9a111.706,111.706,0,0,1-5.1,19.258,104.222,104.222,0,0,1-8.248,17.523,96.051,96.051,0,0,1-11.151,15.186,92.032,92.032,0,0,1-13.913,12.6,98.447,98.447,0,0,1-16.531,9.77,86.511,86.511,0,0,1-18.833,6.266A101.2,101.2,0,0,1,2539.409,535.594Zm-367.314,0a110.042,110.042,0,0,1-18.515-1.522,94.1,94.1,0,0,1-17.028-4.566,89.892,89.892,0,0,1-15.186-7.328,80.859,80.859,0,0,1-12.992-9.806,74.223,74.223,0,0,1-10.585-12.248,81.247,81.247,0,0,1-7.965-14.655,83.144,83.144,0,0,1-4.992-16.78,101.128,101.128,0,0,1-1.664-18.621c0-2.631.1-5.966.283-9.912a51.239,51.239,0,0,1,1.841-11.47,27.087,27.087,0,0,1,4.531-9.345,9.411,9.411,0,0,1,3.646-2.868,12.285,12.285,0,0,1,4.991-.956,32.248,32.248,0,0,1,10.054,1.84,45.591,45.591,0,0,1,10.337,4.956,30.866,30.866,0,0,1,8.071,7.505,15.674,15.674,0,0,1,3.256,9.487V455.73a56.118,56.118,0,0,0,2.655,17.736,41.688,41.688,0,0,0,7.965,14.125,33.352,33.352,0,0,0,12.993,9.239,47.621,47.621,0,0,0,17.735,3.08,51.069,51.069,0,0,0,13.169-1.629,39.867,39.867,0,0,0,11.187-4.885,53.838,53.838,0,0,0,9.239-7.434,53.3,53.3,0,0,0,7.328-9.275,75.653,75.653,0,0,0,9.346-22.8,108.149,108.149,0,0,0,2.973-24.781,113.334,113.334,0,0,0-2.925-25.61H2265.4c-.779-3.7-1.727-7.422-2.817-11.065a212.513,212.513,0,0,0-15.294-37.524,298.821,298.821,0,0,0-21.522-34.976c-7.986-11.18-16.324-22.186-24.781-32.71-7.327-9.118-14.575-18.11-21.542-26.725H2316.96c-2.664-7.946-5.286-16.01-7.8-23.969-5.453-17.3-11.361-34.829-17.559-52.109-.94-3.008-2.464-7.153-4.531-12.319s-4.158-10.633-6.23-16.284c-2.065-5.631-3.923-11.015-5.522-16s-2.407-8.84-2.407-11.47a7.591,7.591,0,0,1,1.7-5.1,10.57,10.57,0,0,1,4.248-2.974,20.482,20.482,0,0,1,5.381-1.275c1.884-.188,3.6-.283,5.1-.283a125.422,125.422,0,0,1,13.735.707,29.773,29.773,0,0,1,12.886,4.956c1.128.751,2.938,4.277,5.381,10.479s5.207,14.017,8.213,23.223,6.2,19.316,9.488,30.02,6.385,21.195,9.2,31.153,5.389,18.908,7.646,26.621c1.923,6.568,3.385,11.488,4.345,14.621h.862l-.11.427-.281,1.09v0c-.142-.452-.295-.949-.469-1.517H2316.96c3.126,9.325,6.41,18.793,9.763,28.141.75,1.874,1.7,4.447,2.833,7.646s2.414,6.53,3.823,9.912c1.417,3.4,2.846,6.686,4.248,9.77a53.6,53.6,0,0,0,3.823,7.222l2.266,2.265c0,26.05.229,52.307.679,78.042h-79a140.931,140.931,0,0,1,2.988,29.008,121.027,121.027,0,0,1-1.7,20.391,111.725,111.725,0,0,1-5.1,19.258,104.228,104.228,0,0,1-8.248,17.523,96.03,96.03,0,0,1-11.152,15.186,92,92,0,0,1-13.912,12.6,98.45,98.45,0,0,1-16.532,9.77,86.507,86.507,0,0,1-18.833,6.266A101.2,101.2,0,0,1,2172.1,535.594Zm49.75-132.094H1400v-143h729.724c-1.083-1.475-2.168-2.964-3.225-4.427a267.9,267.9,0,0,1-24.5-40.782,101.482,101.482,0,0,1-7.328-20.6,92.149,92.149,0,0,1-2.442-21.028,71.451,71.451,0,0,1,1.734-16.107,53.7,53.7,0,0,1,5.2-13.771,62.823,62.823,0,0,1,8.071-11.47,60.346,60.346,0,0,1,10.337-9.2,76.63,76.63,0,0,1,12.248-7.01,85.632,85.632,0,0,1,13.806-4.885,119.016,119.016,0,0,1,30.162-3.823,115.526,115.526,0,0,1,17.983,1.345,88.609,88.609,0,0,1,16,4.036,75.515,75.515,0,0,1,13.877,6.584,66.024,66.024,0,0,1,11.611,8.993,63.646,63.646,0,0,1,9.24,11.363,72.2,72.2,0,0,1,6.761,13.7,85.085,85.085,0,0,1,4.142,15.895,111.977,111.977,0,0,1,1.381,17.948c0,1.873-.095,4.255-.282,7.08a42,42,0,0,1-1.417,8.354,20.649,20.649,0,0,1-3.4,7.08,7.432,7.432,0,0,1-6.23,2.974,25.254,25.254,0,0,1-11.328-2.831,49.079,49.079,0,0,1-7.789-4.956,19.279,19.279,0,0,1-4.673-5.381,24.467,24.467,0,0,1-2.549-6.655,77.324,77.324,0,0,1-1.416-9.062,144.812,144.812,0,0,0-3.682-18.409,38.341,38.341,0,0,0-6.8-13.877,29.853,29.853,0,0,0-11.894-8.779c-4.887-2.067-11.271-3.116-18.975-3.116a71.355,71.355,0,0,0-15.718,1.7,35.674,35.674,0,0,0-13.028,5.665,28.518,28.518,0,0,0-8.779,10.336c-2.161,4.229-3.257,9.517-3.257,15.718a61.934,61.934,0,0,0,1.452,13.169,75.252,75.252,0,0,0,4.354,13.452,171.134,171.134,0,0,0,15.293,27.754c6.3,9.4,13.538,19.164,21.523,29.029l3.237,4v0h-49.715c8.873,12.077,18.554,24.4,28.777,36.637,11.465,13.719,22.232,27.869,32,42.055,4.887,7.1,9.425,14.374,13.488,21.63s7.768,14.7,11.009,22.125a118.585,118.585,0,0,1,6.845,20.551Z" transform="translate(-1400 -94.363)"/>
</svg>
