<svg xmlns="http://www.w3.org/2000/svg" xmlns:xlink="http://www.w3.org/1999/xlink" width="776" height="277" viewBox="0 0 776 277">
  <defs>
    <clipPath id="clip-path">
      <rect id="Rectangle_251" data-name="Rectangle 251" width="517" height="277" transform="translate(368)" fill="#fff"/>
    </clipPath>
    <clipPath id="clip-path-2">
      <rect id="Rectangle_254" data-name="Rectangle 254" width="218" height="149" rx="10" transform="translate(1099 146)" fill="#fff"/>
    </clipPath>
    <clipPath id="clip-path-3">
      <rect id="Rectangle_253" data-name="Rectangle 253" width="116.342" height="85.788" rx="10" transform="translate(1153.22 209.212)" fill="#fff"/>
    </clipPath>
  </defs>
  <g id="Group_225" data-name="Group 225" transform="translate(-262 -2635)">
    <g id="Group_222" data-name="Group 222" transform="translate(-106 2635)" clip-path="url(#clip-path)">
      <path id="Path_314" data-name="Path 314" d="M506.835,86.774a28.6,28.6,0,1,0-28.579-28.6A28.59,28.59,0,0,0,506.835,86.774Z" fill="#ffd500"/>
      <path id="Path_315" data-name="Path 315" d="M596.454,146.31h-140.2a2.792,2.792,0,0,1-.524-.041L522.039,31.324a4.641,4.641,0,0,1,8.082,0l44.5,77.137,2.132,3.691Z" fill="#3f3d56"/>
      <path id="Path_316" data-name="Path 316" d="M596.454,146.31H548.587l23.5-34.159,1.691-2.46.845-1.23,2.132,3.69Z" opacity="0.2"/>
      <path id="Path_317" data-name="Path 317" d="M674.515,146.31H553.255l23.5-34.158,1.691-2.461,30.62-44.515c2.007-2.918,6.836-3.1,9.2-.55a5.456,5.456,0,0,1,.441.55Z" fill="#3f3d56"/>
      <path id="Path_318" data-name="Path 318" d="M710.109,127.4a8.619,8.619,0,1,0-8.611-8.618A8.616,8.616,0,0,0,710.109,127.4Z" fill="#5cffa2"/>
      <path id="Path_319" data-name="Path 319" d="M710.94,144.742h-1.764l.8-27.258Z" fill="#3f3d56"/>
      <path id="Path_320" data-name="Path 320" d="M710.135,122.651l1.894-2.623-1.92,3.272-.207-.364Z" fill="#3f3d56"/>
      <path id="Path_321" data-name="Path 321" d="M709.928,125.3l-1.894-2.621,1.92,3.271.207-.364Z" fill="#3f3d56"/>
      <path id="Path_322" data-name="Path 322" d="M789.1,127.4a8.619,8.619,0,1,0-8.611-8.618A8.616,8.616,0,0,0,789.1,127.4Z" fill="#5cffa2"/>
      <path id="Path_323" data-name="Path 323" d="M789.935,144.742h-1.764l.8-27.258Z" fill="#3f3d56"/>
      <path id="Path_324" data-name="Path 324" d="M789.131,122.651l1.894-2.623L789.1,123.3l-.208-.364Z" fill="#3f3d56"/>
      <path id="Path_325" data-name="Path 325" d="M788.924,125.3l-1.894-2.621,1.92,3.271.207-.364Z" fill="#3f3d56"/>
      <path id="Path_326" data-name="Path 326" d="M735.056,119.13A12.729,12.729,0,1,0,722.337,106.4,12.723,12.723,0,0,0,735.056,119.13Z" fill="#5cffa2"/>
      <path id="Path_327" data-name="Path 327" d="M736.282,144.741h-2.6l1.187-40.257Z" fill="#3f3d56"/>
      <path id="Path_328" data-name="Path 328" d="M735.094,112.114l2.8-3.872-2.834,4.831-.307-.537Z" fill="#3f3d56"/>
      <path id="Path_329" data-name="Path 329" d="M734.788,116.025l-2.8-3.872,2.835,4.831.307-.537Z" fill="#3f3d56"/>
      <path id="Path_330" data-name="Path 330" d="M766.073,119.13A12.729,12.729,0,1,0,753.354,106.4,12.723,12.723,0,0,0,766.073,119.13Z" fill="#5cffa2"/>
      <path id="Path_331" data-name="Path 331" d="M767.3,144.741h-2.605l1.187-40.257Z" fill="#3f3d56"/>
      <path id="Path_332" data-name="Path 332" d="M766.111,112.114l2.8-3.872-2.836,4.831-.306-.537Z" fill="#3f3d56"/>
      <path id="Path_333" data-name="Path 333" d="M765.8,116.025l-2.8-3.872,2.835,4.831.306-.537Z" fill="#3f3d56"/>
      <path id="Path_334" data-name="Path 334" d="M685.623,119.13A12.729,12.729,0,1,0,672.9,106.4,12.723,12.723,0,0,0,685.623,119.13Z" fill="#5cffa2"/>
      <path id="Path_335" data-name="Path 335" d="M686.848,144.741h-2.605l1.188-40.257Z" fill="#3f3d56"/>
      <path id="Path_336" data-name="Path 336" d="M685.661,112.114l2.8-3.872-2.834,4.831-.307-.537Z" fill="#3f3d56"/>
      <path id="Path_337" data-name="Path 337" d="M685.355,116.025l-2.8-3.872,2.835,4.831.307-.537Z" fill="#3f3d56"/>
      <path id="Path_338" data-name="Path 338" d="M836.1,277H421.03a39.854,39.854,0,0,1,0-79.708H835.178a15.328,15.328,0,0,0,0-30.656H407.245V142.11H835.178a39.854,39.854,0,0,1,0,79.708H421.03a15.328,15.328,0,0,0,0,30.656H836.1Z" fill="#e6e6e6"/>
      <path id="Path_339" data-name="Path 339" d="M441.553,153.76H422.561v1.226h18.992Z" fill="#333"/>
      <path id="Path_340" data-name="Path 340" d="M495.466,153.76H476.474v1.226h18.992Z" fill="#333"/>
      <path id="Path_341" data-name="Path 341" d="M549.379,153.76H530.387v1.226h18.992Z" fill="#333"/>
      <path id="Path_342" data-name="Path 342" d="M603.292,153.76H584.3v1.226h18.992Z" fill="#333"/>
      <path id="Path_343" data-name="Path 343" d="M657.2,153.76H638.212v1.226H657.2Z" fill="#333"/>
      <path id="Path_344" data-name="Path 344" d="M711.117,153.76H692.125v1.226h18.992Z" fill="#333"/>
      <path id="Path_345" data-name="Path 345" d="M765.03,153.76H746.038v1.226H765.03Z" fill="#333"/>
      <path id="Path_346" data-name="Path 346" d="M818.943,153.76H799.951v1.226h18.992Z" fill="#333"/>
      <path id="Path_347" data-name="Path 347" d="M441.553,208.942H422.561v1.227h18.992Z" fill="#333"/>
      <path id="Path_348" data-name="Path 348" d="M495.466,208.942H476.474v1.227h18.992Z" fill="#333"/>
      <path id="Path_349" data-name="Path 349" d="M549.379,208.942H530.387v1.227h18.992Z" fill="#333"/>
      <path id="Path_350" data-name="Path 350" d="M603.292,208.942H584.3v1.227h18.992Z" fill="#333"/>
      <path id="Path_351" data-name="Path 351" d="M657.2,208.942H638.212v1.227H657.2Z" fill="#333"/>
      <path id="Path_352" data-name="Path 352" d="M711.117,208.942H692.125v1.227h18.992Z" fill="#333"/>
      <path id="Path_353" data-name="Path 353" d="M765.03,208.942H746.038v1.227H765.03Z" fill="#333"/>
      <path id="Path_354" data-name="Path 354" d="M818.943,208.942H799.951v1.227h18.992Z" fill="#333"/>
      <path id="Path_355" data-name="Path 355" d="M441.553,264.124H422.561v1.226h18.992Z" fill="#333"/>
      <path id="Path_356" data-name="Path 356" d="M495.466,264.124H476.474v1.226h18.992Z" fill="#333"/>
      <path id="Path_357" data-name="Path 357" d="M549.379,264.124H530.387v1.226h18.992Z" fill="#333"/>
      <path id="Path_358" data-name="Path 358" d="M603.292,264.124H584.3v1.226h18.992Z" fill="#333"/>
      <path id="Path_359" data-name="Path 359" d="M657.2,264.124H638.212v1.226H657.2Z" fill="#333"/>
      <path id="Path_360" data-name="Path 360" d="M711.117,264.124H692.125v1.226h18.992Z" fill="#333"/>
      <path id="Path_361" data-name="Path 361" d="M765.03,264.124H746.038v1.226H765.03Z" fill="#333"/>
      <path id="Path_362" data-name="Path 362" d="M818.943,264.124H799.951v1.226h18.992Z" fill="#333"/>
      <path id="Path_363" data-name="Path 363" d="M709.211,48.666a11.725,11.725,0,0,1,5.7,1.475H703.523A11.669,11.669,0,0,1,709.211,48.666Z" fill="#d9ebff"/>
      <path id="Path_364" data-name="Path 364" d="M687.108,47.191a16.1,16.1,0,0,1,9.308,2.95h-18.6A16.1,16.1,0,0,1,687.108,47.191Z" fill="#d9ebff"/>
      <path id="Path_365" data-name="Path 365" d="M561.9,28.523a30.2,30.2,0,0,1,59.268-6.374c.366-.013.731-.028,1.1-.028a30.217,30.217,0,0,1,28.983,21.714,21.338,21.338,0,0,1,25.332,6.306H582.359a20.446,20.446,0,0,1-20.477-21.172Q561.891,28.746,561.9,28.523Z" fill="#d9ebff"/>
      <path id="Path_366" data-name="Path 366" d="M716.087,70.738a11.725,11.725,0,0,0-5.7,1.475h11.391A11.674,11.674,0,0,0,716.087,70.738Z" fill="#d9ebff"/>
      <path id="Path_367" data-name="Path 367" d="M738.19,69.264a16.1,16.1,0,0,0-9.308,2.949h18.6A16.1,16.1,0,0,0,738.19,69.264Z" fill="#d9ebff"/>
      <path id="Path_368" data-name="Path 368" d="M863.394,50.595a30.2,30.2,0,0,0-59.267-6.374c-.366-.013-.732-.028-1.1-.028a30.217,30.217,0,0,0-28.983,21.714,21.339,21.339,0,0,0-25.332,6.306h94.227a20.446,20.446,0,0,0,20.478-21.172C863.41,50.892,863.4,50.744,863.394,50.595Z" fill="#d9ebff"/>
      <path id="Path_369" data-name="Path 369" d="M800.574,259.861l10.951.006v-1.74l-10.951-.005Z" fill="#3f3d56"/>
      <path id="Path_370" data-name="Path 370" d="M721.394,258.514l2.259.523,85.874.046.772-1.8a18.187,18.187,0,0,0,1.335-9.828c-.37-2.486-1.3-4.957-3.4-6.03l-3.81-25.4-47.51-.085-18.381,14.837s-8.671-.156-13.381,5.713a13.778,13.778,0,0,0-2.88,7.587l-.185,3.053Z" fill="#ff7979"/>
      <path id="Path_371" data-name="Path 371" d="M740.255,268.7a10.612,10.612,0,1,0-10.6-10.612A10.607,10.607,0,0,0,740.255,268.7Z" fill="#3f3d56"/>
      <path id="Path_372" data-name="Path 372" d="M740.255,263.675a5.585,5.585,0,1,0-5.581-5.586A5.584,5.584,0,0,0,740.255,263.675Z" fill="#ccc"/>
      <path id="Path_373" data-name="Path 373" d="M792.578,268.729a10.612,10.612,0,1,0-10.6-10.612A10.608,10.608,0,0,0,792.578,268.729Z" fill="#3f3d56"/>
      <path id="Path_374" data-name="Path 374" d="M792.579,263.7A5.585,5.585,0,1,0,787,258.117,5.583,5.583,0,0,0,792.579,263.7Z" fill="#ccc"/>
      <path id="Path_375" data-name="Path 375" d="M745.834,229.041l25.652.01h3.131l5.286,0v-.386l0-4.652,0-5.224h-3.517l-3.132,0-5.546,0h-3.131l-6.4,0Z" fill="#fff"/>
      <path id="Path_376" data-name="Path 376" d="M784.077,229.06l13.557.007,0-2.662v-4.653l0-2.948h-1.985l-3.131,0-8.444,0Z" fill="#fff"/>
      <path id="Path_377" data-name="Path 377" d="M778.16,240.017H779.9l0-3.306h-1.738Z" fill="#3f3d56"/>
      <path id="Path_378" data-name="Path 378" d="M752.784,233.74V232l-3.3,0v1.74Z" fill="#3f3d56"/>
      <path id="Path_379" data-name="Path 379" d="M751.567,232.766h-.191a3.637,3.637,0,0,1,0-7.273h.191Z" fill="#3f3d56"/>
      <path id="Path_380" data-name="Path 380" d="M722.085,247.128a5.62,5.62,0,0,0,3.065-10.64,13.788,13.788,0,0,0-2.879,7.587Z" fill="#3f3d56"/>
      <path id="Path_381" data-name="Path 381" d="M773.262,218.789l6.641,9.88,0-4.652-3.513-5.225Z" fill="#f2f2f2"/>
      <path id="Path_382" data-name="Path 382" d="M792.524,218.8l5.113,7.6v-4.652l-1.981-2.948Z" fill="#f2f2f2"/>
      <path id="Path_383" data-name="Path 383" d="M764.584,218.785l6.9,10.266h3.131l-6.9-10.266Z" fill="#f2f2f2"/>
      <path id="Path_384" data-name="Path 384" d="M404.182,175.22A28.2,28.2,0,1,0,376,147.016,28.193,28.193,0,0,0,404.182,175.22Z" fill="#3f3d56"/>
      <path id="Path_385" data-name="Path 385" d="M404.3,155.507l-14.1-14.115a2.452,2.452,0,0,1,3.466-3.468l10.4,10.411,33.2-37.885a2.451,2.451,0,0,1,3.685,3.234Z" fill="#ffd500"/>
      <path id="Path_386" data-name="Path 386" d="M677,243.5c0,6.351-11,20.5-11,20.5s-11-14.149-11-20.5a11.772,11.772,0,0,1,3.222-8.132,10.665,10.665,0,0,1,15.556,0A11.772,11.772,0,0,1,677,243.5Z" fill="#ffd500"/>
      <path id="Path_387" data-name="Path 387" d="M671.029,243a5.424,5.424,0,0,1-.848,2.921,5.081,5.081,0,0,1-2.256,1.936,4.826,4.826,0,0,1-2.906.3,4.965,4.965,0,0,1-2.575-1.438,5.34,5.34,0,0,1-1.376-2.692,5.483,5.483,0,0,1,.286-3.037,5.218,5.218,0,0,1,1.852-2.36,4.842,4.842,0,0,1,4.719-.486,5.022,5.022,0,0,1,1.632,1.139,5.281,5.281,0,0,1,1.09,1.706A5.482,5.482,0,0,1,671.029,243Z" fill="#fff"/>
      <path id="Path_388" data-name="Path 388" d="M880,170.5c0,6.351-11,20.5-11,20.5s-11-14.149-11-20.5a11.772,11.772,0,0,1,3.222-8.132,10.665,10.665,0,0,1,15.556,0A11.772,11.772,0,0,1,880,170.5Z" fill="#ffd500"/>
      <path id="Path_389" data-name="Path 389" d="M874.029,170a5.424,5.424,0,0,1-.848,2.921,5.081,5.081,0,0,1-2.256,1.936,4.826,4.826,0,0,1-2.906.3,4.965,4.965,0,0,1-2.575-1.438,5.34,5.34,0,0,1-1.376-2.692,5.483,5.483,0,0,1,.286-3.037,5.218,5.218,0,0,1,1.852-2.36,4.842,4.842,0,0,1,4.719-.486,5.022,5.022,0,0,1,1.632,1.139,5.281,5.281,0,0,1,1.09,1.706A5.482,5.482,0,0,1,874.029,170Z" fill="#fff"/>
      <path id="Path_390" data-name="Path 390" d="M390,217.5c0,6.351-11,20.5-11,20.5s-11-14.149-11-20.5a11.772,11.772,0,0,1,3.222-8.132,10.665,10.665,0,0,1,15.556,0A11.772,11.772,0,0,1,390,217.5Z" fill="#ffd500"/>
      <path id="Path_391" data-name="Path 391" d="M384.029,217a5.424,5.424,0,0,1-.848,2.921,5.078,5.078,0,0,1-2.257,1.936,4.822,4.822,0,0,1-2.9.3,4.965,4.965,0,0,1-2.575-1.438,5.34,5.34,0,0,1-1.376-2.692,5.483,5.483,0,0,1,.286-3.037,5.217,5.217,0,0,1,1.852-2.36,4.842,4.842,0,0,1,4.719-.486,5.022,5.022,0,0,1,1.632,1.139,5.281,5.281,0,0,1,1.09,1.706A5.482,5.482,0,0,1,384.029,217Z" fill="#fff"/>
      <path id="Path_392" data-name="Path 392" d="M584,198.5c0,6.351-11,20.5-11,20.5s-11-14.149-11-20.5a11.772,11.772,0,0,1,3.222-8.132,10.665,10.665,0,0,1,15.556,0A11.772,11.772,0,0,1,584,198.5Z" fill="#ffd500"/>
      <path id="Path_393" data-name="Path 393" d="M578.029,198a5.424,5.424,0,0,1-.848,2.921,5.081,5.081,0,0,1-2.256,1.936,4.826,4.826,0,0,1-2.906.3,4.965,4.965,0,0,1-2.575-1.438,5.34,5.34,0,0,1-1.376-2.692,5.483,5.483,0,0,1,.286-3.037,5.218,5.218,0,0,1,1.852-2.36,4.842,4.842,0,0,1,4.719-.486,5.022,5.022,0,0,1,1.632,1.139,5.281,5.281,0,0,1,1.09,1.706A5.482,5.482,0,0,1,578.029,198Z" fill="#fff"/>
      <path id="Path_394" data-name="Path 394" d="M736,189.5c0,6.351-11,20.5-11,20.5s-11-14.149-11-20.5a11.772,11.772,0,0,1,3.222-8.132,10.665,10.665,0,0,1,15.556,0A11.772,11.772,0,0,1,736,189.5Z" fill="#ffd500"/>
      <path id="Path_395" data-name="Path 395" d="M730.029,189a5.424,5.424,0,0,1-.848,2.921,5.081,5.081,0,0,1-2.256,1.936,4.826,4.826,0,0,1-2.906.3,4.965,4.965,0,0,1-2.575-1.438,5.34,5.34,0,0,1-1.376-2.692,5.483,5.483,0,0,1,.286-3.037,5.218,5.218,0,0,1,1.852-2.36,4.842,4.842,0,0,1,4.719-.486,5.022,5.022,0,0,1,1.632,1.139,5.281,5.281,0,0,1,1.09,1.706A5.482,5.482,0,0,1,730.029,189Z" fill="#fff"/>
      <path id="Path_396" data-name="Path 396" d="M540,130.5c0,6.351-11,20.5-11,20.5s-11-14.149-11-20.5a11.772,11.772,0,0,1,3.222-8.132,10.665,10.665,0,0,1,15.556,0A11.772,11.772,0,0,1,540,130.5Z" fill="#ffd500"/>
      <path id="Path_397" data-name="Path 397" d="M534.029,130a5.424,5.424,0,0,1-.848,2.921,5.081,5.081,0,0,1-2.256,1.936,4.826,4.826,0,0,1-2.906.3,4.965,4.965,0,0,1-2.575-1.438,5.34,5.34,0,0,1-1.376-2.692,5.483,5.483,0,0,1,.286-3.037,5.218,5.218,0,0,1,1.852-2.36,4.842,4.842,0,0,1,4.719-.486,5.022,5.022,0,0,1,1.632,1.139,5.281,5.281,0,0,1,1.09,1.706A5.482,5.482,0,0,1,534.029,130Z" fill="#fff"/>
    </g>
    <line id="Line_27" data-name="Line 27" y1="54.454" x2="36.952" transform="translate(763.548 2751.5)" fill="none" stroke="#cfecff" stroke-linecap="round" stroke-width="3"/>
    <line id="Line_28" data-name="Line 28" x2="38" transform="translate(800.5 2751.5)" fill="none" stroke="#cfecff" stroke-linecap="round" stroke-width="3"/>
    <circle id="Ellipse_100" data-name="Ellipse 100" cx="7" cy="7" r="7" transform="translate(831.5 2744.5)" fill="#cfecff"/>
    <g id="Group_224" data-name="Group 224" transform="translate(-279 2571)" clip-path="url(#clip-path-2)">
      <path id="Path_467" data-name="Path 467" d="M1245.09,193.357c4.68-12.611,15.73-23.508,29.08-24.8a62.122,62.122,0,0,0-9.77,41.42c.69,5.6,2.03,11.759-.98,16.527a13.846,13.846,0,0,1-8.58,5.616,40.852,40.852,0,0,1-10.45.692l-.78.388C1241.14,219.969,1240.42,205.968,1245.09,193.357Z" fill="#f0f0f0"/>
      <path id="Path_468" data-name="Path 468" d="M1274.24,168.828a52.892,52.892,0,0,0-19.63,25.987,22.765,22.765,0,0,0-1.39,7.013,13.064,13.064,0,0,0,1.76,6.656,27.175,27.175,0,0,1,2.93,5.864,8.062,8.062,0,0,1-1.12,6.456,20.755,20.755,0,0,1-6.06,5.635c-2.53,1.747-5.18,3.521-6.73,6.265-.19.332-.69.021-.5-.311,2.69-4.774,8.34-6.508,11.79-10.563a8.137,8.137,0,0,0,2.17-6.8c-.44-2.2-1.77-4.089-2.86-6.01a14,14,0,0,1-1.96-6.445,21.088,21.088,0,0,1,1.11-7.04,51.7,51.7,0,0,1,7.23-14.338,53.791,53.791,0,0,1,12.98-12.889c.31-.218.58.307.28.523Z" fill="#fff"/>
      <path id="Path_469" data-name="Path 469" d="M1255.59,191.359a7.958,7.958,0,0,1-3.96-9.5.3.3,0,0,1,.57.165,7.359,7.359,0,0,0,3.7,8.827C1256.24,191.025,1255.92,191.53,1255.59,191.359Z" fill="#fff"/>
      <path id="Path_470" data-name="Path 470" d="M1254.32,207.588a15.29,15.29,0,0,0,8.67-7.012c.19-.331.69-.02.5.311a15.88,15.88,0,0,1-9.03,7.278c-.36.114-.5-.463-.14-.577Z" fill="#fff"/>
      <path id="Path_471" data-name="Path 471" d="M1264.95,176.86a4.461,4.461,0,0,0,4.18.771c.37-.119.5.459.14.577a5.01,5.01,0,0,1-4.63-.843.3.3,0,0,1-.13-.185.29.29,0,0,1,.03-.223.3.3,0,0,1,.18-.132.308.308,0,0,1,.23.035Z" fill="#fff"/>
      <path id="Path_472" data-name="Path 472" d="M1306.36,200.7c-.23.08-.45.161-.68.246a59.337,59.337,0,0,0-8.71,4.012c-.22.118-.43.241-.65.365a62.43,62.43,0,0,0-17.43,14.95,61.211,61.211,0,0,0-5.2,7.6c-2.12,3.677-4.13,7.834-7.25,10.514a9.6,9.6,0,0,1-1.02.787l-21.28-5.051c-.04-.036-.09-.067-.13-.1l-.86-.163c.07-.143.15-.289.21-.432.04-.083.09-.165.13-.248a1.4,1.4,0,0,0,.08-.162.548.548,0,0,1,.03-.05.789.789,0,0,1,.07-.143c.42-.821.84-1.64,1.27-2.458,0-.005,0-.005.01-.009a89.338,89.338,0,0,1,11.81-17.451c.14-.158.28-.32.43-.474a57.96,57.96,0,0,1,6.86-6.479,51.271,51.271,0,0,1,4.2-3.009,42.389,42.389,0,0,1,12.16-5.311c8.59-2.231,17.79-1.682,25.37,2.723Z" fill="#f0f0f0"/>
      <path id="Path_473" data-name="Path 473" d="M1306.24,200.958a52.743,52.743,0,0,0-31.27,8.9,22.861,22.861,0,0,0-5.32,4.761,13.157,13.157,0,0,0-2.58,6.38c-.31,2.158-.37,4.4-1.19,6.448a7.979,7.979,0,0,1-4.77,4.477,20.684,20.684,0,0,1-8.22.842c-3.06-.132-6.25-.317-9.13.939-.35.153-.56-.4-.22-.552,5.02-2.186,10.57-.161,15.76-1.312a8.1,8.1,0,0,0,5.82-4.123c.97-2.022,1.04-4.335,1.32-6.523a14.1,14.1,0,0,1,2.3-6.333,20.994,20.994,0,0,1,5.12-4.949,51.061,51.061,0,0,1,14.38-7.082,53.633,53.633,0,0,1,18.1-2.456c.37.014.28.6-.1.586Z" fill="#fff"/>
      <path id="Path_474" data-name="Path 474" d="M1277.83,207.687a7.955,7.955,0,0,1,2.54-9.974c.31-.22.66.255.35.475a7.375,7.375,0,0,0-2.34,9.283c.17.342-.38.556-.55.216Z" fill="#fff"/>
      <path id="Path_475" data-name="Path 475" d="M1267.08,219.882a15.237,15.237,0,0,0,11.13-.366c.35-.151.56.4.21.552a15.843,15.843,0,0,1-11.58.358C1266.48,220.3,1266.72,219.755,1267.08,219.882Z" fill="#fff"/>
      <path id="Path_476" data-name="Path 476" d="M1294.01,201.763a4.5,4.5,0,0,0,1.04,1.937,4.432,4.432,0,0,0,1.84,1.208c.36.123.12.666-.24.543a5.02,5.02,0,0,1-2.03-1.337,4.907,4.907,0,0,1-1.16-2.135.293.293,0,0,1,0-.225.291.291,0,0,1,.39-.154.314.314,0,0,1,.16.163Z" fill="#fff"/>
      <path id="Path_477" data-name="Path 477" d="M1133.06,279.187c-12.18-5.63-22.18-17.5-22.46-30.956a61.685,61.685,0,0,0,40.44,12.9c5.62-.26,11.85-1.137,16.36,2.234a13.841,13.841,0,0,1,4.93,9,40.587,40.587,0,0,1-.1,10.5l.33.813C1159.22,285.144,1145.25,284.816,1133.06,279.187Z" fill="#f0f0f0"/>
      <path id="Path_478" data-name="Path 478" d="M1110.88,248.188a52.853,52.853,0,0,0,24.35,21.592,22.771,22.771,0,0,0,6.87,1.918,13.021,13.021,0,0,0,6.75-1.262,26.9,26.9,0,0,1,6.05-2.482,7.959,7.959,0,0,1,6.33,1.61,20.744,20.744,0,0,1,5.15,6.482c1.54,2.661,3.11,5.448,5.72,7.2.32.213-.03.693-.35.481-4.54-3.052-5.84-8.832-9.61-12.593a8.083,8.083,0,0,0-6.6-2.682c-2.22.27-4.2,1.464-6.19,2.4a13.881,13.881,0,0,1-6.56,1.481,20.961,20.961,0,0,1-6.91-1.646,51.223,51.223,0,0,1-13.71-8.313,53.81,53.81,0,0,1-11.83-13.951c-.2-.328.35-.565.54-.239Z" fill="#fff"/>
      <path id="Path_479" data-name="Path 479" d="M1131.87,268.539a7.915,7.915,0,0,1-9.74,3.243c-.35-.144-.15-.7.21-.556a7.323,7.323,0,0,0,9.05-3.035C1131.59,267.864,1132.06,268.214,1131.87,268.539Z" fill="#fff"/>
      <path id="Path_480" data-name="Path 480" d="M1147.91,271.03a15.312,15.312,0,0,0-6.32-9.2c-.31-.214.03-.694.35-.481a15.911,15.911,0,0,1,6.55,9.582C1148.58,271.309,1147.99,271.4,1147.91,271.03Z" fill="#fff"/>
      <path id="Path_481" data-name="Path 481" d="M1118.16,258.084a4.48,4.48,0,0,0,1.06-1.928,4.432,4.432,0,0,0,.02-2.2c-.09-.372.5-.463.59-.094a5.065,5.065,0,0,1-1.19,4.571.319.319,0,0,1-.19.115.3.3,0,0,1-.22-.049.268.268,0,0,1-.12-.193A.339.339,0,0,1,1118.16,258.084Z" fill="#fff"/>
      <path id="Path_482" data-name="Path 482" d="M1144.99,218.47c.06.23.13.46.19.692a60.1,60.1,0,0,0,3.33,9.014c.11.227.21.455.32.678a62.312,62.312,0,0,0,13.55,18.56,59.769,59.769,0,0,0,7.16,5.773c3.5,2.4,7.48,4.728,9.91,8.05a11.035,11.035,0,0,1,.7,1.076l-6.63,20.9c-.04.04-.07.081-.11.122l-.23.846c-.13-.08-.27-.167-.41-.247-.08-.047-.16-.1-.24-.144-.05-.032-.1-.065-.15-.091a.32.32,0,0,1-.05-.031c-.05-.026-.09-.056-.14-.081q-1.17-.722-2.34-1.463c-.01,0-.01,0-.01-.008a88.824,88.824,0,0,1-16.46-13.128c-.15-.152-.3-.305-.44-.466a57.816,57.816,0,0,1-5.92-7.346,51.141,51.141,0,0,1-2.68-4.43,42.758,42.758,0,0,1-4.36-12.568c-1.57-8.757-.33-17.92,4.63-25.164C1144.73,218.834,1144.86,218.653,1144.99,218.47Z" fill="#f0f0f0"/>
      <path id="Path_483" data-name="Path 483" d="M1145.24,218.6a53.149,53.149,0,0,0,6.48,31.946,22.825,22.825,0,0,0,4.33,5.678,13.073,13.073,0,0,0,6.15,3.07c2.12.466,4.35.7,6.32,1.672a7.987,7.987,0,0,1,4.09,5.11,20.8,20.8,0,0,1,.22,8.282c-.36,3.058-.79,6.228.24,9.205.13.361-.44.534-.56.174-1.8-5.18.64-10.578-.12-15.859a8.1,8.1,0,0,0-3.66-6.126c-1.93-1.127-4.23-1.367-6.38-1.82a13.884,13.884,0,0,1-6.12-2.777,21.029,21.029,0,0,1-4.54-5.49,51.447,51.447,0,0,1-5.95-14.916,54.062,54.062,0,0,1-1.08-18.285c.05-.378.62-.24.58.136Z" fill="#fff"/>
      <path id="Path_484" data-name="Path 484" d="M1138.49,277.3a7.92,7.92,0,0,1-9.73-3.294c-.19-.327.31-.646.5-.318a7.334,7.334,0,0,0,9.05,3.045C1138.67,276.587,1138.84,277.155,1138.49,277.3Z" fill="#fff"/>
      <path id="Path_485" data-name="Path 485" d="M1161.09,259.2a15.3,15.3,0,0,0,.48-11.156c-.12-.361.44-.535.57-.174a16,16,0,0,1-.52,11.608C1161.46,259.827,1160.94,259.548,1161.09,259.2Z" fill="#fff"/>
      <path id="Path_486" data-name="Path 486" d="M1133.82,260.671a4.454,4.454,0,0,0,2-.9,4.394,4.394,0,0,0,1.34-1.745c.15-.351.67-.071.53.278a5.061,5.061,0,0,1-3.7,2.932.3.3,0,0,1-.22-.025.327.327,0,0,1-.15-.171.3.3,0,0,1,.03-.226A.257.257,0,0,1,1133.82,260.671Z" fill="#fff"/>
      <path id="Path_487" data-name="Path 487" d="M1149.82,234.615c-10.76-10.631-15.31-21.721-12.8-31.228,3.22-12.2,17.53-20.636,39.25-23.144l.08.7c-21.42,2.473-35.51,10.719-38.65,22.624-2.44,9.252,2.04,20.1,12.62,30.546Z" fill="#f0f0f0"/>
      <path id="Path_488" data-name="Path 488" d="M1253.71,272.352a168.108,168.108,0,0,1-42.55-5.855c-17.93-4.762-34.38-11.951-47.56-20.789l.39-.585c13.12,8.795,29.49,15.951,47.35,20.694a163.707,163.707,0,0,0,47.03,5.748l.02.7Q1256.08,272.352,1253.71,272.352Z" fill="#f0f0f0"/>
      <path id="Path_489" data-name="Path 489" d="M1284.53,267.921l-.22-.667c12.02-4.075,19.54-10.641,21.74-18.986,2.8-10.61-3.29-22.921-17.13-34.667-13.92-11.806-33.99-21.6-56.52-27.582l.18-.681c22.63,6.007,42.8,15.853,56.79,27.725,14.07,11.931,20.23,24.5,17.36,35.385C1304.46,257.033,1296.79,263.767,1284.53,267.921Z" fill="#f0f0f0"/>
      <path id="Path_490" data-name="Path 490" d="M1174.18,272.645c-26.41-11.745-46.75-26.983-57.29-42.908l.58-.389c10.47,15.814,30.71,30.962,56.99,42.654Z" fill="#f0f0f0"/>
      <path id="Path_491" data-name="Path 491" d="M1266.13,281.736q-4.08,0-8.31-.182l.03-.7c21.02.913,39.57-1.61,53.64-7.3l.26.653C1299.48,279.167,1283.83,281.736,1266.13,281.736Z" fill="#f0f0f0"/>
      <path id="Path_492" data-name="Path 492" d="M1251.69,180.874c-4.36-1.425-8.85-2.752-13.34-3.944-25.83-6.859-51.22-9.294-73.43-7.041l-.07-.7c22.29-2.261,47.77.181,73.68,7.061,4.5,1.2,9.01,2.526,13.38,3.955Z" fill="#f0f0f0"/>
      <path id="Path_493" data-name="Path 493" d="M1133.32,235.671c-10.76-10.631-15.31-21.722-12.8-31.229,3.22-12.2,17.52-20.635,39.25-23.143l.08.7c-21.42,2.472-35.51,10.718-38.65,22.624-2.45,9.252,2.04,20.1,12.61,30.546Z" fill="#f0f0f0"/>
      <path id="Path_494" data-name="Path 494" d="M1237.2,273.406a168.03,168.03,0,0,1-42.54-5.854c-17.94-4.762-34.38-11.951-47.56-20.789l.39-.585c13.11,8.8,29.49,15.951,47.35,20.693a163.608,163.608,0,0,0,47.02,5.749l.03.7C1240.35,273.379,1238.78,273.407,1237.2,273.406Z" fill="#f0f0f0"/>
      <path id="Path_495" data-name="Path 495" d="M1268.03,268.978l-.22-.667c12.02-4.076,19.53-10.641,21.74-18.987,2.8-10.609-3.29-22.921-17.13-34.667-13.92-11.8-33.99-21.6-56.52-27.582l.18-.68c22.63,6.007,42.79,15.853,56.79,27.725,14.06,11.931,20.23,24.5,17.35,35.384C1287.96,258.09,1280.28,264.823,1268.03,268.978Z" fill="#f0f0f0"/>
      <path id="Path_496" data-name="Path 496" d="M1157.68,273.7c-26.41-11.745-46.75-26.984-57.29-42.908l.58-.39c10.47,15.814,30.71,30.962,56.99,42.654Z" fill="#f0f0f0"/>
      <path id="Path_497" data-name="Path 497" d="M1249.63,282.794q-4.08,0-8.31-.183l.03-.7c21.02.912,39.57-1.611,53.64-7.3l.26.654C1282.97,280.224,1267.33,282.794,1249.63,282.794Z" fill="#f0f0f0"/>
      <path id="Path_498" data-name="Path 498" d="M1235.19,181.931c-4.36-1.425-8.85-2.752-13.34-3.944-25.83-6.859-51.23-9.295-73.44-7.042l-.07-.7c22.3-2.261,47.78.18,73.69,7.061,4.5,1.2,9,2.526,13.38,3.955Z" fill="#f0f0f0"/>
      <path id="Path_499" data-name="Path 499" d="M1245.04,205.434a15.389,15.389,0,0,0-.46-2.427,14.927,14.927,0,0,0-.89-2.322,13.672,13.672,0,0,0-6.13-6.392,16.331,16.331,0,0,0-10.78-.991,21.161,21.161,0,0,0-8.32,3.909,21.775,21.775,0,0,0-3.48,3.284,43.055,43.055,0,0,0-3.19,5.136,21.305,21.305,0,0,0-4.74-6.8,22.2,22.2,0,0,0-8.16-4.946,20.571,20.571,0,0,0-5-1.02,15.857,15.857,0,0,0-5.36.47,13.516,13.516,0,0,0-7.65,5.608,14.139,14.139,0,0,0-2.39,8.63,14.519,14.519,0,0,0,.98,4.506,16.062,16.062,0,0,0,1.08,2.263,16.343,16.343,0,0,0,9.38,7.367,23.629,23.629,0,0,0,10.31.582,48.2,48.2,0,0,0,10.22-2.894c.45-.167.89-.339,1.33-.51a64.628,64.628,0,0,0,9.01,2.932,27.046,27.046,0,0,0,10.61.427,16.994,16.994,0,0,0,8.79-4.309,15.847,15.847,0,0,0,4.56-7.936A13.775,13.775,0,0,0,1245.04,205.434Zm-45.72,13.458a23.6,23.6,0,0,1-5.74.034,17.961,17.961,0,0,1-3.99-1.065,12.573,12.573,0,0,1-6.72-6.693,13.815,13.815,0,0,1-.81-2.965,12.374,12.374,0,0,1,0-2.722,12.734,12.734,0,0,1,.76-2.777,13.565,13.565,0,0,1,1.43-2.458,12.383,12.383,0,0,1,1.85-1.861,11.122,11.122,0,0,1,2.07-1.216,12.493,12.493,0,0,1,2.71-.726,15.9,15.9,0,0,1,3.77.029,19.3,19.3,0,0,1,4.34,1.2,20.591,20.591,0,0,1,4.19,2.447,19.88,19.88,0,0,1,3.23,3.233,20.423,20.423,0,0,1,2.36,4.066,21.087,21.087,0,0,1,1.26,4.687v.023a21.917,21.917,0,0,0-.13,2.432c0,.313.01.625.03.938a1.761,1.761,0,0,0-.37.494,59.308,59.308,0,0,1-7.5,2.387C1201.15,218.59,1200.24,218.76,1199.32,218.892Zm42.21-10.69a13.282,13.282,0,0,1-.82,2.966,12.471,12.471,0,0,1-6.72,6.693,17.675,17.675,0,0,1-3.99,1.065,23.554,23.554,0,0,1-5.74-.035,47.351,47.351,0,0,1-9.85-2.755c-.14-.049-.27-.1-.4-.151a1.908,1.908,0,0,0-.35-.488,21.443,21.443,0,0,0-.1-3.4,20.485,20.485,0,0,1,1.26-4.678,19.9,19.9,0,0,1,2.35-4.066,18.544,18.544,0,0,1,7.42-5.68,19.53,19.53,0,0,1,4.35-1.2,15.9,15.9,0,0,1,3.77-.029,12.649,12.649,0,0,1,2.71.726,11.459,11.459,0,0,1,2.07,1.216,11.9,11.9,0,0,1,1.84,1.861,13.05,13.05,0,0,1,1.44,2.458,13.329,13.329,0,0,1,.76,2.777A12.38,12.38,0,0,1,1241.53,208.2Z" fill="#3f3d56"/>
      <path id="Path_500" data-name="Path 500" d="M1236.85,158.775a5.022,5.022,0,0,0,4.9-.578c1.78-1.332,2.45-3.659,3.01-5.816l1.65-6.381-2.79,1.7a19.59,19.59,0,0,0-5.51,4.339,6.69,6.69,0,0,0-1.23,6.608" fill="#f2f2f2"/>
      <path id="Path_501" data-name="Path 501" d="M1162.2,213.283a5.06,5.06,0,0,0,1.03-2.339,5.13,5.13,0,0,0-.24-2.547c-.79-2.084-2.84-3.365-4.76-4.5l-5.66-3.341.86,3.157a19.68,19.68,0,0,0,2.65,6.5c1.39,1.906,3.68,3.325,6,2.994" fill="#f2f2f2"/>
      <path id="Path_502" data-name="Path 502" d="M1188.25,186.863a2.817,2.817,0,1,0-2.8-2.817A2.808,2.808,0,0,0,1188.25,186.863Z" fill="#0095c9"/>
      <path id="Path_503" data-name="Path 503" d="M1113.47,269.969a2.817,2.817,0,1,0-2.81-2.817A2.815,2.815,0,0,0,1113.47,269.969Z" fill="#0095c9"/>
      <path id="Path_504" data-name="Path 504" d="M1306.58,247.081a2.818,2.818,0,1,0-2.81-2.818A2.815,2.815,0,0,0,1306.58,247.081Z" fill="#0095c9"/>
      <path id="Path_505" data-name="Path 505" d="M1110.66,199.188a2.817,2.817,0,1,0-2.81-2.817A2.815,2.815,0,0,0,1110.66,199.188Z" fill="#e6e6e6"/>
      <path id="Path_506" data-name="Path 506" d="M1284.46,279.478a2.817,2.817,0,1,0-2.81-2.817A2.815,2.815,0,0,0,1284.46,279.478Z" fill="#e6e6e6"/>
      <path id="Path_507" data-name="Path 507" d="M1290.08,193.906a2.818,2.818,0,1,0-2.81-2.817A2.806,2.806,0,0,0,1290.08,193.906Z" fill="#e6e6e6"/>
      <path id="Path_508" data-name="Path 508" d="M1162.25,230.329a.833.833,0,0,1-1.16.088.944.944,0,0,1,0-1.359c1.01-1.209,2.67.068,2.89,1.269a2.984,2.984,0,0,1-.25,1.717,3.1,3.1,0,0,1-1.16,1.291,3.234,3.234,0,0,1-3.62-.475,3.931,3.931,0,0,1,.78-6.336,5.473,5.473,0,0,1,4.74.218,40.544,40.544,0,0,1,4.5,2.82,25,25,0,0,0,10.83,3.711c.68.069.67-.988,0-1.056a24.014,24.014,0,0,1-6.22-1.5,27.4,27.4,0,0,1-5.6-3.079,12.379,12.379,0,0,0-5.77-2.584,5.025,5.025,0,0,0-5.53,4.174,5.294,5.294,0,0,0,.14,2.341,4.766,4.766,0,0,0,1.39,2.048,4.7,4.7,0,0,0,2.22,1.07,3.872,3.872,0,0,0,4.09-1.891,3.615,3.615,0,0,0-.44-4.41,2.793,2.793,0,0,0-2.72-.741,2.395,2.395,0,0,0-1.61,2.063,1.887,1.887,0,0,0,3.41,1.158c.36-.576-.55-1.107-.91-.533Z" fill="#3f3d56"/>
      <path id="Path_509" data-name="Path 509" d="M1263.89,230.329a.846.846,0,0,0,1.17.088.935.935,0,0,0-.01-1.359c-1-1.209-2.67.068-2.89,1.269a3.072,3.072,0,0,0,.26,1.717,2.968,2.968,0,0,0,1.16,1.291,3.238,3.238,0,0,0,3.62-.475,3.937,3.937,0,0,0-.79-6.336,5.45,5.45,0,0,0-4.73.218,38.772,38.772,0,0,0-4.5,2.82,25.038,25.038,0,0,1-10.84,3.711c-.67.069-.67-.988,0-1.056a23.988,23.988,0,0,0,6.23-1.5,27.322,27.322,0,0,0,5.59-3.079,12.414,12.414,0,0,1,5.78-2.584,4.978,4.978,0,0,1,4.61,2.015,5.072,5.072,0,0,1,.77,4.5,4.714,4.714,0,0,1-3.61,3.118,3.847,3.847,0,0,1-2.34-.29,3.891,3.891,0,0,1-1.74-1.6,3.613,3.613,0,0,1,.43-4.41,2.848,2.848,0,0,1,1.26-.739,2.792,2.792,0,0,1,1.46,0,2.424,2.424,0,0,1,1.12.79,2.457,2.457,0,0,1,.5,1.273,1.894,1.894,0,0,1-3.42,1.158c-.36-.576.55-1.107.91-.533Z" fill="#3f3d56"/>
      <path id="Path_510" data-name="Path 510" d="M1130.26,158.8l-1.39,1.751-4.92-2.92,1.39-1.75Z" fill="#e4e4e4"/>
      <path id="Path_511" data-name="Path 511" d="M1135.39,166.327l1.23,1.839-5.17,2.579-1.22-1.839Z" fill="#e4e4e4"/>
      <path id="Path_512" data-name="Path 512" d="M1140.75,158.331l2.45.087-.24,5.154-2.46-.087Z" fill="#e4e4e4"/>
      <path id="Path_513" data-name="Path 513" d="M1304.06,266.564l-1.39,1.751-4.92-2.92,1.39-1.75Z" fill="#e4e4e4"/>
      <path id="Path_514" data-name="Path 514" d="M1309.19,274.086l1.23,1.839-5.17,2.579-1.23-1.839Z" fill="#e4e4e4"/>
      <path id="Path_515" data-name="Path 515" d="M1314.54,266.089l2.46.087-.24,5.153-2.46-.087Z" fill="#e4e4e4"/>
      <g id="Group_223" data-name="Group 223" clip-path="url(#clip-path-3)">
        <path id="Path_516" data-name="Path 516" d="M1211.55,295.3a88.643,88.643,0,0,1-36-7.9,3.777,3.777,0,0,1-1.65-1.412,3.846,3.846,0,0,1-.61-2.083V252.892a3.846,3.846,0,0,1,3.83-3.832h68.86a3.829,3.829,0,0,1,3.83,3.832V283.91a3.846,3.846,0,0,1-.61,2.083,3.777,3.777,0,0,1-1.65,1.412A88.608,88.608,0,0,1,1211.55,295.3Z" fill="#4896ef"/>
        <path id="Path_517" data-name="Path 517" d="M1211.54,270.178a3.85,3.85,0,0,1-1.49-.3l-54.6-23.081a3.757,3.757,0,0,1-1.72-1.441,3.824,3.824,0,0,1,.08-4.295,3.8,3.8,0,0,1,1.77-1.378l54.61-20.754a3.8,3.8,0,0,1,2.73.006l53.87,20.754a3.851,3.851,0,0,1,1.76,1.378,3.832,3.832,0,0,1-1.63,5.723l-53.87,23.081A3.864,3.864,0,0,1,1211.54,270.178Z" fill="#4896ef"/>
        <path id="Path_518" data-name="Path 518" d="M1179.67,289.516a5.11,5.11,0,1,0-5.1-5.11A5.1,5.1,0,0,0,1179.67,289.516Z" fill="#3f3d56"/>
        <path id="Path_519" data-name="Path 519" d="M1267.11,243.513l-53.88,23.08a3.393,3.393,0,0,1-2.66.007l-54.6-23.08a3.339,3.339,0,0,1-1.63-1.432,3.4,3.4,0,0,0-.28,2.787,3.624,3.624,0,0,0,.73,1.231,3.4,3.4,0,0,0,1.18.821l54.6,23.08a3.394,3.394,0,0,0,2.66-.007l53.88-23.08a3.443,3.443,0,0,0,1.89-2.053,3.6,3.6,0,0,0,.16-1.42,3.442,3.442,0,0,0-.44-1.359A3.353,3.353,0,0,1,1267.11,243.513Z" opacity="0.2"/>
        <path id="Path_520" data-name="Path 520" d="M1180.1,284.385a.852.852,0,0,0,.85-.851v-28.5l28.04-10.233a.852.852,0,0,0,.02-1.7l-28.04,10.233a1.7,1.7,0,0,0-.66.12,1.535,1.535,0,0,0-.55.37,1.617,1.617,0,0,0-.38.555,1.655,1.655,0,0,0-.13.658v28.5a.852.852,0,0,0,.25.6A.838.838,0,0,0,1180.1,284.385Z" fill="#3f3d56"/>
        <path id="Path_521" data-name="Path 521" d="M1257.73,282.89a5.083,5.083,0,0,0,.79-4.887c-.79-2.083-2.84-3.365-4.76-4.495l-5.66-3.342.86,3.158a19.709,19.709,0,0,0,2.66,6.5c1.38,1.906,3.67,3.325,6,2.993" fill="#f2f2f2"/>
      </g>
    </g>
  </g>
</svg>
