<svg xmlns="http://www.w3.org/2000/svg" width="626.386" height="424.916" viewBox="0 0 626.386 424.916">
  <g id="undraw_share_link_qtxe" transform="translate(-141.614 -0.041)">
    <rect id="Rectangle_247" data-name="Rectangle 247" width="193.231" height="1.604" transform="translate(574.769 320.323)" fill="#3f3d56"/>
    <path id="Path_204" data-name="Path 204" d="M771.744,380.936l5.612,29.666,12.027,3.207-3.207-35.279Z" transform="translate(-153.884 -75.021)" fill="#ffb8b8"/>
    <path id="Path_205" data-name="Path 205" d="M855.744,380.936l5.613,29.666,12.027,3.207-3.207-35.279Z" transform="translate(-170.534 -75.021)" fill="#ffb8b8"/>
    <path id="Path_206" data-name="Path 206" d="M903.269,584.265s-12.828-.8-12.828,3.207-6.414,17.639-6.414,17.639-4.811,16.036,8.018,14.432,20.846-16.036,20.846-16.036l-3.207-15.234Z" transform="translate(-272.422 -254.295)" fill="#2f2e41"/>
    <path id="Path_207" data-name="Path 207" d="M986.411,584.607s-8.557-5.5-7.946-1.834,1.223,13.447,5.5,14.058,17.115,4.279,17.726,5.5,15.281,6.112,15.281-1.834-9.169-14.058-9.169-14.058l-10.391-7.946s-6.724-.611-7.946,3.667S986.411,584.607,986.411,584.607Z" transform="translate(-291.468 -253.159)" fill="#2f2e41"/>
    <path id="Path_208" data-name="Path 208" d="M882.228,340.067s-13.63-20.045-18.441-13.63,12.027,18.441,12.027,18.441Z" transform="translate(-268.383 -202.953)" fill="#ffb8b8"/>
    <path id="Path_209" data-name="Path 209" d="M889.234,362.4c-.8-.8-15.234-14.432-15.234-14.432l10.423-7.216,12.027,12.027Z" transform="translate(-270.593 -206.041)" fill="#a9d1ff"/>
    <path id="Path_210" data-name="Path 210" d="M893.111,290.25s-10.423.8-9.622,9.622,7.617,38.085,7.617,38.085l4.009,8.018S909.948,299.872,893.111,290.25Z" transform="translate(-272.47 -196.032)" fill="#a9d1ff"/>
    <path id="Path_211" data-name="Path 211" d="M893.586,244.745l2.886,9.621h36.161l1.042-10.423,3.127,10.423h4.65l1.042-10.423,3.127,10.423h4.891l-4.6-11.078a89.312,89.312,0,0,1-4.848-16.39,30.879,30.879,0,0,0-30.242-24.648h0q-.639,0-1.272.026c-20.268.822-33.248,22.046-25.472,40.781l4.695,11.31h3.849Z" transform="translate(-272.313 -178.589)" fill="#2f2e41"/>
    <path id="Path_212" data-name="Path 212" d="M891.315,359.75s-24.855,20.847-17.639,48.909,9.621,116.26,9.621,116.26l24.855-2.405V411.866l34.477,65.747,5.613,47.306,28.063-4.811-12.828-57.729-24.67-73.587-2.591-21.23Z" transform="translate(-270.443 -209.807)" fill="#1f1f29"/>
    <circle id="Ellipse_97" data-name="Ellipse 97" cx="16.838" cy="16.838" r="16.838" transform="translate(621.273 33.282)" fill="#ffb8b8"/>
    <path id="Path_213" data-name="Path 213" d="M905,249.155s7.216,26.459,3.207,29.666S936.27,268.4,936.27,268.4s-13.63-15.234-12.027-21.648Z" transform="translate(-276.912 -187.41)" fill="#ffb8b8"/>
    <path id="Path_214" data-name="Path 214" d="M931.884,265.931s-12.838,11.042-25.261,11.935c0,0-16.432,8.911-15.63,9.713s3.207,12.027,3.207,12.027,4.009,6.191,4.009,19.243c0,1.6-5.613,24.054-5.613,24.054l47.306,6.414s12.829-41.693,13.63-56.125,5.612-29.666-1.6-30.468S931.884,265.931,931.884,265.931Z" transform="translate(-274.13 -190.555)" fill="#a9d1ff"/>
    <path id="Path_215" data-name="Path 215" d="M962.423,266.5s5.613-4.811,8.82,6.414,16.036,46.5,12.829,53.72-22.45,39.288-22.45,39.288L952,359.5l19.243-36.081-11.225-25.657Z" transform="translate(-286.228 -191.12)" fill="#a9d1ff"/>
    <path id="Path_216" data-name="Path 216" d="M952.444,381.75s-24.856,15.234-16.838,18.441,21.648-13.63,21.648-13.63Z" transform="translate(-282.663 -214.168)" fill="#ffb8b8"/>
    <path id="Path_217" data-name="Path 217" d="M774,38.5V55.338h6.414l2.405-7.216.6,7.216h17.84l2.405-7.216.6,7.216h7.417V38.5Z" transform="translate(-154.331 -7.623)" fill="#2f2e41"/>
    <path id="Path_218" data-name="Path 218" d="M894.371,310.25s-1.6,16.036.8,19.243S894.371,310.25,894.371,310.25Z" transform="translate(-274.702 -199.996)" opacity="0.2"/>
    <rect id="Rectangle_248" data-name="Rectangle 248" width="339.959" height="1.604" transform="translate(141.614 390.079)" fill="#3f3d56"/>
    <path id="Path_219" data-name="Path 219" d="M637.394,480.637l-98.636,98.636a80.408,80.408,0,0,1-113.71,0c-1.331-1.331-2.614-2.7-3.833-4.113a77.648,77.648,0,0,1-5.6-7.216,79.2,79.2,0,0,1-12.7-30.468q-.685-3.572-1.034-7.216-.373-3.885-.377-7.841a80.783,80.783,0,0,1,2.983-21.825q1.022-3.668,2.4-7.216a80.23,80.23,0,0,1,18.169-27.814l43.032-43.032a12.025,12.025,0,0,1,17.006,17.006l-43.032,43.032a56.825,56.825,0,0,0-8.475,10.808,55.953,55.953,0,0,0-8.026,29.041,57.773,57.773,0,0,0,.537,7.841,54.847,54.847,0,0,0,1.491,7.216,56.341,56.341,0,0,0,94.17,24.791l24.791-24.791,44.1-44.1,29.746-29.746a56.447,56.447,0,0,0,6.31-72.177,12.03,12.03,0,1,1,19.733-13.767A80.545,80.545,0,0,1,637.394,480.637Z" transform="translate(-176.602 -212.342)" fill="#146acc"/>
    <path id="Path_220" data-name="Path 220" d="M824.372,253.162q0,.89-.024,1.78a80.039,80.039,0,0,1-6.679,30.468,77.647,77.647,0,0,1-3.608,7.216,80.629,80.629,0,0,1-13.237,17.391l-43.032,43.032a12.025,12.025,0,1,1-17.006-17.006l43.032-43.032c.128-.128.257-.257.377-.385a56.025,56.025,0,0,0,16.092-37.684c.024-.593.032-1.187.032-1.78q0-2.742-.257-5.436a56.293,56.293,0,0,0-16.244-34.413c-.858-.858-1.732-1.684-2.638-2.47a56.357,56.357,0,0,0-74.422,0c-.906.786-1.78,1.612-2.638,2.469l-98.636,98.636a56.425,56.425,0,0,0,0,79.7,12.025,12.025,0,0,1-17.006,17.006,80.5,80.5,0,0,1,0-113.71l98.636-98.636a80.489,80.489,0,0,1,125.248,14.536,77.185,77.185,0,0,1,3.985,7.216,79.723,79.723,0,0,1,7.842,29.666Q824.368,250.432,824.372,253.162Z" transform="translate(-209.238 -172.75)" fill="#146acc"/>
    <path id="Path_225" data-name="Path 225" d="M795.572,267.281a16.221,16.221,0,0,1-.32,3.2,16.068,16.068,0,1,1,.32-3.2Z" transform="translate(-248.59 -188.297)" fill="#146acc"/>
    <path id="Path_226" data-name="Path 226" d="M500.572,570.282a16.226,16.226,0,0,1-.32,3.2,16.068,16.068,0,1,1,.32-3.2Z" transform="translate(-189.824 -248.355)" fill="#146acc"/>
    <path id="Path_227" data-name="Path 227" d="M697.4,220.25h34.18c-.906.786-1.78,1.612-2.638,2.47l-4.746,4.747H690.18Z" transform="translate(-233.992 -182.157)" fill="#9ac2f0"/>
    <path id="Path_228" data-name="Path 228" d="M869.8,227.466H841.509a56.259,56.259,0,0,0-4.242-4.747c-.858-.858-1.732-1.684-2.638-2.469h31.182A77.242,77.242,0,0,1,869.8,227.466Z" transform="translate(-262.763 -182.157)" fill="#9ac2f0"/>
    <path id="Path_229" data-name="Path 229" d="M530.9,93.5h34.012l-7.216,7.216H523.68Z" transform="translate(-104.328 -18.525)" fill="#9ac2f0"/>
    <path id="Path_230" data-name="Path 230" d="M795.067,266.25a16.177,16.177,0,0,1,.184,7.216h-31.43a16.177,16.177,0,0,1,.184-7.216Z" transform="translate(-248.59 -191.275)" fill="#9ac2f0"/>
    <path id="Path_231" data-name="Path 231" d="M882.49,271.686q0,.89-.024,1.78H858.4c.024-.593.032-1.187.032-1.78q0-2.742-.257-5.436h24.126Q882.486,268.956,882.49,271.686Z" transform="translate(-267.444 -191.275)" fill="#9ac2f0"/>
    <path id="Path_232" data-name="Path 232" d="M483.9,140.5h34.012l-7.216,7.216H476.68Z" transform="translate(-94.964 -27.84)" fill="#9ac2f0"/>
    <path id="Path_233" data-name="Path 233" d="M871.865,313.25a77.621,77.621,0,0,1-3.608,7.216H838.39a55.681,55.681,0,0,0,6.005-7.216Z" transform="translate(-263.511 -200.59)" fill="#9ac2f0"/>
    <path id="Path_234" data-name="Path 234" d="M434.317,523.25a55.952,55.952,0,0,0-3.664,7.216H405.22q1.022-3.668,2.4-7.216Z" transform="translate(-177.217 -242.215)" fill="#9ac2f0"/>
    <path id="Path_235" data-name="Path 235" d="M549.128,350.5l-7.216,7.216H507.9l7.216-7.216Z" transform="translate(-101.184 -69.465)" fill="#9ac2f0"/>
    <path id="Path_236" data-name="Path 236" d="M427.675,576.466H403q-.686-3.572-1.034-7.216h24.214a54.871,54.871,0,0,0,1.491,7.216Z" transform="translate(-176.569 -251.332)" fill="#9ac2f0"/>
    <path id="Path_237" data-name="Path 237" d="M500.572,573.259a16.226,16.226,0,0,1-.32,3.2l-31.431,0a16.175,16.175,0,0,1,.184-7.216h31.061A16.151,16.151,0,0,1,500.572,573.259Z" transform="translate(-189.824 -251.332)" fill="#9ac2f0"/>
    <path id="Path_238" data-name="Path 238" d="M503.128,396.5l-7.216,7.216H461.9l7.216-7.216Z" transform="translate(-92.02 -78.582)" fill="#9ac2f0"/>
    <path id="Path_239" data-name="Path 239" d="M465.476,623.466H424.7a77.667,77.667,0,0,1-5.6-7.216h33.066a55.791,55.791,0,0,0,13.31,7.216Z" transform="translate(-179.989 -260.648)" fill="#9ac2f0"/>
    <path id="Path_240" data-name="Path 240" d="M574.888,616.25l-7.216,7.216H526.62a55.787,55.787,0,0,0,13.31-7.216Z" transform="translate(-201.411 -260.648)" fill="#9ac2f0"/>
    <path id="Path_241" data-name="Path 241" d="M424.4,339.794c-6.13-10.358-18.258-10.84-18.258-10.84s-11.818-1.511-19.4,14.264c-7.066,14.7-16.818,28.9-1.57,32.342l2.754-8.573,1.706,9.211a59.659,59.659,0,0,0,6.524.112c16.33-.527,31.881.154,31.38-5.706C426.873,362.815,430.3,349.761,424.4,339.794Z" transform="translate(-171.623 -203.695)" fill="#2f2e41"/>
    <path id="Path_242" data-name="Path 242" d="M260.5,454.6l.8,20.846h14.432l-.8-22.45Z" transform="translate(-51.888 -89.781)" fill="#fbbebe"/>
    <path id="Path_243" data-name="Path 243" d="M417.7,443.155l-1.459,4.851-18.906,62.8-2.085,6.911,1.6,73.765-20.045,2.405s-.585-7.745-1.443-19.179c-1.724-22.643-4.546-59.773-6.182-79.979-.6-7.473-1.034-12.628-1.195-13.9-.8-6.414,9.621-38.486,9.621-38.486l20.847-1.6Z" transform="translate(-169.799 -225.862)" fill="#2f2e41"/>
    <path id="Path_244" data-name="Path 244" d="M379.438,649.911s-5.613-6.414-6.414-1.6S362.6,671.56,362.6,671.56,334.538,690,358.592,691.6c0,0,12.027-1.6,16.036-8.018,0,0,6.414-4.009,8.018-4.009s11.225-3.207,9.621-8.018-.8-22.45-.8-22.45Z" transform="translate(-165.993 -266.648)" fill="#2f2e41"/>
    <path id="Path_245" data-name="Path 245" d="M265.5,429.018l7.216,13.63,11.225-5.613L276.725,421Z" transform="translate(-52.885 -83.439)" fill="#fbbebe"/>
    <path id="Path_246" data-name="Path 246" d="M377.117,539.488s-5.981-13.069-7.617-33.274c11.61-12.973,25.657-27.261,25.657-27.261l16.838-.8,5.212-.4c1.219,12.187-9.092,27.886-19.564,40.394A223.841,223.841,0,0,1,377.117,539.488Z" transform="translate(-170.108 -233.196)" opacity="0.2"/>
    <path id="Path_247" data-name="Path 247" d="M393.927,471.813s-51.315,44.9-44.1,63.341,27.261,40.891,27.261,40.891l15.486-9.243-14.684-34.054s6.156-5.459,13.65-13.549c12.194-13.163,27.93-33.291,26.44-48.189l-.8-27.261-13.63,1.6Z" transform="translate(-166.057 -226.457)" fill="#2f2e41"/>
    <path id="Path_248" data-name="Path 248" d="M397.791,615.706s-5.612,0-4.811,4.811,2.405,12.829,2.405,12.829-6.414,37.684,8.82,28.865,11.225-32.072,11.225-32.072,5.613-14.432-1.6-16.036S404.206,610.9,403.4,611.7,397.791,615.706,397.791,615.706Z" transform="translate(-174.762 -259.704)" fill="#2f2e41"/>
    <circle id="Ellipse_98" data-name="Ellipse 98" cx="14.432" cy="14.432" r="14.432" transform="translate(219.819 130.7)" fill="#fbbebe"/>
    <path id="Path_249" data-name="Path 249" d="M405.207,360.75s6.414,16.838,4.009,17.639S402,383.2,402,383.2l8.018,7.216,20.847-11.225s-9.621-12.829-8.82-18.441Z" transform="translate(-176.576 -210.005)" fill="#fbbebe"/>
    <path id="Path_250" data-name="Path 250" d="M425.4,379.75s-16.777,8.27-22.821,2.932c0,0-10.053-.527-11.656,5.085s1.6,10.423-2.405,12.027-6.815,6.013-4.41,13.229,2,8.419-1.2,10.824-6.414,7.216-6.414,8.82-3.207,1.6-1.6,3.207-1.6,0,1.6,1.6,12.027-12.829,18.441-5.613S421.393,451.109,423,443.893s6.414-24.855,6.414-24.855,16.838-31.27,12.027-34.477S425.4,379.75,425.4,379.75Z" transform="translate(-171.1 -213.771)" fill="#e4e4e4"/>
    <path id="Path_251" data-name="Path 251" d="M429.715,449.7s-8.82-1.6-11.225,4.009-16.036,18.441-7.216,19.243,15.234-13.63,15.234-13.63l8.82-1.6Z" transform="translate(-177.837 -227.594)" fill="#fbbebe"/>
    <path id="Path_252" data-name="Path 252" d="M443.423,385.75l10.486.584s4.748,5.028,5.55,9.839,16.036,40.891,6.414,44.9-30.468,6.414-30.468,6.414L433,436.263l13.63-4.811-9.621-20.045Z" transform="translate(-182.754 -214.961)" fill="#e4e4e4"/>
    <path id="Path_253" data-name="Path 253" d="M265.405,378.932,278.594,411.9,263,378.932,276.63,364.5Z" transform="translate(-52.386 -72.24)" opacity="0.2"/>
    <path id="Path_254" data-name="Path 254" d="M256.143,427.766l5.5,7h-4.009Z" transform="translate(-51.017 -84.78)" opacity="0.2"/>
    <circle id="Ellipse_99" data-name="Ellipse 99" cx="8.769" cy="8.769" r="8.769" transform="translate(227.22 116.542)" fill="#2f2e41"/>
    <path id="Path_255" data-name="Path 255" d="M402.63,323.983a8.769,8.769,0,0,1,7.845-8.72,8.859,8.859,0,0,0-.922-.049,8.769,8.769,0,1,0,.923,17.489A8.769,8.769,0,0,1,402.63,323.983Z" transform="translate(-176.326 -200.98)" fill="#2f2e41"/>
    <path id="Path_256" data-name="Path 256" d="M304.315,166.938l-11.982-6.276-16.546,2.567-3.424,15.119,8.522-.328,2.38-5.555v5.463l3.932-.152,2.282-8.843,1.426,9.414,13.978-.285Z" transform="translate(-54.257 -31.837)" fill="#2f2e41"/>
  </g>
</svg>
