<svg xmlns="http://www.w3.org/2000/svg" xmlns:xlink="http://www.w3.org/1999/xlink" width="281" height="100" viewBox="0 0 281 100">
  <defs>
    <clipPath id="clip-path">
      <rect id="Rectangle_251" data-name="Rectangle 251" width="187" height="100" fill="#fff"/>
    </clipPath>
    <clipPath id="clip-path-2">
      <rect id="Rectangle_254" data-name="Rectangle 254" width="79" height="55" rx="10" transform="translate(-0.127 -0.369)" fill="#fff"/>
    </clipPath>
    <clipPath id="clip-path-3">
      <rect id="Rectangle_253" data-name="Rectangle 253" width="42.08" height="31.029" rx="10" fill="#fff"/>
    </clipPath>
  </defs>
  <g id="Group_238" data-name="Group 238" transform="translate(-262 -2635)">
    <g id="Group_222" data-name="Group 222" transform="translate(262 2635)" clip-path="url(#clip-path)">
      <path id="Path_314" data-name="Path 314" d="M488.593,50.261a10.345,10.345,0,1,0-10.337-10.345A10.341,10.341,0,0,0,488.593,50.261Z" transform="translate(-438.377 -18.875)" fill="#ffd500"/>
      <path id="Path_315" data-name="Path 315" d="M506.63,71.409H455.922a1.009,1.009,0,0,1-.19-.015l23.983-41.575a1.679,1.679,0,0,1,2.923,0l16.1,27.9.771,1.335Z" transform="translate(-424 -18.489)" fill="#3f3d56"/>
      <path id="Path_316" data-name="Path 316" d="M565.9,122.151H548.587l8.5-12.355.612-.89.306-.445.771,1.335Z" transform="translate(-483.27 -69.231)" opacity="0.2"/>
      <path id="Path_317" data-name="Path 317" d="M597.114,93.032H553.255l8.5-12.355.612-.89,11.075-16.1a2.239,2.239,0,0,1,3.326-.2,1.991,1.991,0,0,1,.159.2Z" transform="translate(-486.249 -40.112)" fill="#3f3d56"/>
      <path id="Path_318" data-name="Path 318" d="M704.612,116.4a3.117,3.117,0,1,0-3.115-3.117A3.116,3.116,0,0,0,704.612,116.4Z" transform="translate(-580.873 -70.318)" fill="#5cffa2"/>
      <path id="Path_319" data-name="Path 319" d="M709.814,127.343h-.638l.291-9.859Z" transform="translate(-585.774 -74.991)" fill="#3f3d56"/>
      <path id="Path_320" data-name="Path 320" d="M709.986,120.977l.685-.949-.694,1.183-.075-.132Z" transform="translate(-586.238 -76.614)" fill="#3f3d56"/>
      <path id="Path_321" data-name="Path 321" d="M708.719,123.624l-.685-.948.694,1.183.075-.132Z" transform="translate(-585.045 -78.305)" fill="#3f3d56"/>
      <path id="Path_322" data-name="Path 322" d="M783.609,116.4a3.117,3.117,0,1,0-3.115-3.117A3.116,3.116,0,0,0,783.609,116.4Z" transform="translate(-631.297 -70.318)" fill="#5cffa2"/>
      <path id="Path_323" data-name="Path 323" d="M788.809,127.343h-.638l.291-9.859Z" transform="translate(-636.197 -74.991)" fill="#3f3d56"/>
      <path id="Path_324" data-name="Path 324" d="M788.982,120.977l.685-.949-.695,1.183-.075-.132Z" transform="translate(-636.661 -76.614)" fill="#3f3d56"/>
      <path id="Path_325" data-name="Path 325" d="M787.715,123.624l-.685-.948.694,1.183.075-.132Z" transform="translate(-635.469 -78.305)" fill="#3f3d56"/>
      <path id="Path_326" data-name="Path 326" d="M726.937,102.881a4.6,4.6,0,1,0-4.6-4.6A4.6,4.6,0,0,0,726.937,102.881Z" transform="translate(-594.175 -59.792)" fill="#5cffa2"/>
      <path id="Path_327" data-name="Path 327" d="M734.619,119.045h-.942l.429-14.561Z" transform="translate(-601.413 -66.693)" fill="#3f3d56"/>
      <path id="Path_328" data-name="Path 328" d="M734.874,109.642l1.011-1.4-1.025,1.747-.111-.194Z" transform="translate(-602.098 -69.091)" fill="#3f3d56"/>
      <path id="Path_329" data-name="Path 329" d="M733,113.553l-1.012-1.4,1.025,1.747.111-.194Z" transform="translate(-600.337 -71.588)" fill="#3f3d56"/>
      <path id="Path_330" data-name="Path 330" d="M757.954,102.881a4.6,4.6,0,1,0-4.6-4.6A4.6,4.6,0,0,0,757.954,102.881Z" transform="translate(-613.973 -59.792)" fill="#5cffa2"/>
      <path id="Path_331" data-name="Path 331" d="M765.636,119.045h-.942l.429-14.561Z" transform="translate(-621.212 -66.693)" fill="#3f3d56"/>
      <path id="Path_332" data-name="Path 332" d="M765.891,109.642l1.012-1.4-1.026,1.747-.111-.194Z" transform="translate(-621.896 -69.091)" fill="#3f3d56"/>
      <path id="Path_333" data-name="Path 333" d="M764.02,113.553l-1.012-1.4,1.025,1.747.111-.194Z" transform="translate(-620.135 -71.588)" fill="#3f3d56"/>
      <path id="Path_334" data-name="Path 334" d="M677.5,102.881a4.6,4.6,0,1,0-4.6-4.6A4.6,4.6,0,0,0,677.5,102.881Z" transform="translate(-562.622 -59.792)" fill="#5cffa2"/>
      <path id="Path_335" data-name="Path 335" d="M685.185,119.045h-.942l.43-14.561Z" transform="translate(-569.859 -66.693)" fill="#3f3d56"/>
      <path id="Path_336" data-name="Path 336" d="M685.441,109.642l1.011-1.4-1.025,1.747-.111-.194Z" transform="translate(-570.544 -69.091)" fill="#3f3d56"/>
      <path id="Path_337" data-name="Path 337" d="M683.57,113.553l-1.012-1.4,1.025,1.747.111-.194Z" transform="translate(-568.784 -71.588)" fill="#3f3d56"/>
      <path id="Path_338" data-name="Path 338" d="M545.739,190.9H395.611a14.415,14.415,0,0,1,0-28.83h149.8a5.544,5.544,0,0,0,0-11.088H390.625V142.11H545.407a14.415,14.415,0,0,1,0,28.83h-149.8a5.544,5.544,0,0,0,0,11.088H545.739Z" transform="translate(-376.431 -90.709)" fill="#e6e6e6"/>
      <path id="Path_339" data-name="Path 339" d="M429.43,153.76h-6.869v.443h6.869Z" transform="translate(-402.827 -98.146)" fill="#333"/>
      <path id="Path_340" data-name="Path 340" d="M483.343,153.76h-6.869v.443h6.869Z" transform="translate(-437.239 -98.146)" fill="#333"/>
      <path id="Path_341" data-name="Path 341" d="M537.256,153.76h-6.869v.443h6.869Z" transform="translate(-471.652 -98.146)" fill="#333"/>
      <path id="Path_342" data-name="Path 342" d="M591.169,153.76H584.3v.443h6.869Z" transform="translate(-506.065 -98.146)" fill="#333"/>
      <path id="Path_343" data-name="Path 343" d="M645.081,153.76h-6.869v.443h6.869Z" transform="translate(-540.478 -98.146)" fill="#333"/>
      <path id="Path_344" data-name="Path 344" d="M698.994,153.76h-6.869v.443h6.869Z" transform="translate(-574.89 -98.146)" fill="#333"/>
      <path id="Path_345" data-name="Path 345" d="M752.907,153.76h-6.869v.443h6.869Z" transform="translate(-609.303 -98.146)" fill="#333"/>
      <path id="Path_346" data-name="Path 346" d="M806.82,153.76h-6.869v.443h6.869Z" transform="translate(-643.716 -98.146)" fill="#333"/>
      <path id="Path_347" data-name="Path 347" d="M429.43,208.942h-6.869v.444h6.869Z" transform="translate(-402.827 -133.369)" fill="#333"/>
      <path id="Path_348" data-name="Path 348" d="M483.343,208.942h-6.869v.444h6.869Z" transform="translate(-437.239 -133.369)" fill="#333"/>
      <path id="Path_349" data-name="Path 349" d="M537.256,208.942h-6.869v.444h6.869Z" transform="translate(-471.652 -133.369)" fill="#333"/>
      <path id="Path_350" data-name="Path 350" d="M591.169,208.942H584.3v.444h6.869Z" transform="translate(-506.065 -133.369)" fill="#333"/>
      <path id="Path_351" data-name="Path 351" d="M645.081,208.942h-6.869v.444h6.869Z" transform="translate(-540.478 -133.369)" fill="#333"/>
      <path id="Path_352" data-name="Path 352" d="M698.994,208.942h-6.869v.444h6.869Z" transform="translate(-574.89 -133.369)" fill="#333"/>
      <path id="Path_353" data-name="Path 353" d="M752.907,208.942h-6.869v.444h6.869Z" transform="translate(-609.303 -133.369)" fill="#333"/>
      <path id="Path_354" data-name="Path 354" d="M806.82,208.942h-6.869v.444h6.869Z" transform="translate(-643.716 -133.369)" fill="#333"/>
      <path id="Path_355" data-name="Path 355" d="M429.43,264.124h-6.869v.443h6.869Z" transform="translate(-402.827 -168.592)" fill="#333"/>
      <path id="Path_356" data-name="Path 356" d="M483.343,264.124h-6.869v.443h6.869Z" transform="translate(-437.239 -168.592)" fill="#333"/>
      <path id="Path_357" data-name="Path 357" d="M537.256,264.124h-6.869v.443h6.869Z" transform="translate(-471.652 -168.592)" fill="#333"/>
      <path id="Path_358" data-name="Path 358" d="M591.169,264.124H584.3v.443h6.869Z" transform="translate(-506.065 -168.592)" fill="#333"/>
      <path id="Path_359" data-name="Path 359" d="M645.081,264.124h-6.869v.443h6.869Z" transform="translate(-540.478 -168.592)" fill="#333"/>
      <path id="Path_360" data-name="Path 360" d="M698.994,264.124h-6.869v.443h6.869Z" transform="translate(-574.89 -168.592)" fill="#333"/>
      <path id="Path_361" data-name="Path 361" d="M752.907,264.124h-6.869v.443h6.869Z" transform="translate(-609.303 -168.592)" fill="#333"/>
      <path id="Path_362" data-name="Path 362" d="M806.82,264.124h-6.869v.443h6.869Z" transform="translate(-643.716 -168.592)" fill="#333"/>
      <path id="Path_363" data-name="Path 363" d="M705.58,48.666a4.24,4.24,0,0,1,2.063.533h-4.12A4.22,4.22,0,0,1,705.58,48.666Z" transform="translate(-582.166 -31.064)" fill="#d9ebff"/>
      <path id="Path_364" data-name="Path 364" d="M681.174,47.191a5.825,5.825,0,0,1,3.367,1.067h-6.729A5.824,5.824,0,0,1,681.174,47.191Z" transform="translate(-565.754 -30.122)" fill="#d9ebff"/>
      <path id="Path_365" data-name="Path 365" d="M561.881,10.315A10.925,10.925,0,0,1,583.318,8.01c.132,0,.264-.01.4-.01A10.93,10.93,0,0,1,594.2,15.853a7.718,7.718,0,0,1,9.162,2.281H569.28a7.4,7.4,0,0,1-7.406-7.658C561.876,10.423,561.879,10.369,561.881,10.315Z" transform="translate(-491.748 0.001)" fill="#d9ebff"/>
      <path id="Path_366" data-name="Path 366" d="M712.447,70.738a4.241,4.241,0,0,0-2.063.533h4.12A4.222,4.222,0,0,0,712.447,70.738Z" transform="translate(-586.545 -45.153)" fill="#d9ebff"/>
      <path id="Path_367" data-name="Path 367" d="M732.249,69.264a5.825,5.825,0,0,0-3.367,1.067h6.729A5.824,5.824,0,0,0,732.249,69.264Z" transform="translate(-598.353 -44.211)" fill="#d9ebff"/>
      <path id="Path_368" data-name="Path 368" d="M790.191,32.387a10.925,10.925,0,0,0-21.437-2.305c-.132,0-.265-.01-.4-.01a10.929,10.929,0,0,0-10.483,7.854,7.718,7.718,0,0,0-9.162,2.281h34.081a7.4,7.4,0,0,0,7.407-7.658C790.2,32.5,790.195,32.441,790.191,32.387Z" transform="translate(-611.01 -14.088)" fill="#d9ebff"/>
      <path id="Path_369" data-name="Path 369" d="M800.574,258.751l3.961,0v-.629l-3.961,0Z" transform="translate(-644.114 -164.76)" fill="#3f3d56"/>
      <path id="Path_370" data-name="Path 370" d="M721.394,231.338l.817.189,31.06.017.279-.651a6.579,6.579,0,0,0,.483-3.555,2.766,2.766,0,0,0-1.23-2.181l-1.378-9.188-17.184-.031-6.648,5.366s-3.136-.056-4.84,2.066a4.984,4.984,0,0,0-1.042,2.744l-.067,1.1Z" transform="translate(-593.573 -137.834)" fill="#ff7979"/>
      <path id="Path_371" data-name="Path 371" d="M733.486,255.154a3.838,3.838,0,1,0-3.835-3.838A3.837,3.837,0,0,0,733.486,255.154Z" transform="translate(-598.844 -157.966)" fill="#3f3d56"/>
      <path id="Path_372" data-name="Path 372" d="M736.693,256.544a2.02,2.02,0,1,0-2.019-2.02A2.02,2.02,0,0,0,736.693,256.544Z" transform="translate(-602.05 -161.174)" fill="#ccc"/>
      <path id="Path_373" data-name="Path 373" d="M785.81,255.182a3.838,3.838,0,1,0-3.835-3.838A3.837,3.837,0,0,0,785.81,255.182Z" transform="translate(-632.242 -157.984)" fill="#3f3d56"/>
      <path id="Path_374" data-name="Path 374" d="M789.017,256.572a2.02,2.02,0,1,0-2.019-2.02A2.02,2.02,0,0,0,789.017,256.572Z" transform="translate(-635.448 -161.192)" fill="#ccc"/>
      <path id="Path_375" data-name="Path 375" d="M745.834,222.492l9.278,0h3.044v-3.712H750.3Z" transform="translate(-609.173 -139.649)" fill="#fff"/>
      <path id="Path_376" data-name="Path 376" d="M784.077,222.509l4.9,0V218.8h-4.9Z" transform="translate(-633.584 -139.659)" fill="#fff"/>
      <path id="Path_377" data-name="Path 377" d="M778.16,237.907h.629v-1.2h-.629Z" transform="translate(-629.807 -151.094)" fill="#3f3d56"/>
      <path id="Path_378" data-name="Path 378" d="M750.676,232.628V232h-1.195v.629Z" transform="translate(-611.501 -148.085)" fill="#3f3d56"/>
      <path id="Path_379" data-name="Path 379" d="M749.127,228.124h-.069a1.315,1.315,0,0,1,0-2.631h.069Z" transform="translate(-610.393 -143.933)" fill="#3f3d56"/>
      <path id="Path_380" data-name="Path 380" d="M722.085,240.336a2.033,2.033,0,0,0,1.109-3.848,4.987,4.987,0,0,0-1.041,2.744Z" transform="translate(-594.014 -150.951)" fill="#3f3d56"/>
      <path id="Path_381" data-name="Path 381" d="M773.262,218.789l2.4,3.574V220.68l-1.271-1.89Z" transform="translate(-626.681 -139.654)" fill="#f2f2f2"/>
      <path id="Path_382" data-name="Path 382" d="M792.524,218.8l1.849,2.75v-1.683l-.717-1.066Z" transform="translate(-638.976 -139.661)" fill="#f2f2f2"/>
      <path id="Path_383" data-name="Path 383" d="M764.584,218.785l2.5,3.713h1.132l-2.5-3.713Z" transform="translate(-621.141 -139.651)" fill="#f2f2f2"/>
      <path id="Path_384" data-name="Path 384" d="M386.193,139.215A10.2,10.2,0,1,0,376,129.013,10.2,10.2,0,0,0,386.193,139.215Z" transform="translate(-373.106 -75.838)" fill="#3f3d56"/>
      <path id="Path_385" data-name="Path 385" d="M394.84,126.215l-5.1-5.105a.887.887,0,0,1,1.254-1.254l3.762,3.766,12.007-13.7a.887.887,0,0,1,1.333,1.17Z" transform="translate(-381.711 -69.969)" fill="#ffd500"/>
      <path id="Path_386" data-name="Path 386" d="M662.957,236.16c0,2.3-3.979,7.415-3.979,7.415S655,238.457,655,236.16a4.258,4.258,0,0,1,1.165-2.941,3.858,3.858,0,0,1,5.627,0A4.258,4.258,0,0,1,662.957,236.16Z" transform="translate(-551.193 -148.087)" fill="#ffd500"/>
      <path id="Path_387" data-name="Path 387" d="M664.609,239.643a1.962,1.962,0,0,1-.307,1.057,1.837,1.837,0,0,1-.816.7,1.745,1.745,0,0,1-1.051.108,1.8,1.8,0,0,1-.931-.52,1.931,1.931,0,0,1-.5-.974,1.983,1.983,0,0,1,.1-1.1,1.887,1.887,0,0,1,.67-.854,1.751,1.751,0,0,1,1.707-.176,1.817,1.817,0,0,1,.59.412,1.91,1.91,0,0,1,.394.617A1.983,1.983,0,0,1,664.609,239.643Z" transform="translate(-555.005 -151.752)" fill="#fff"/>
      <path id="Path_388" data-name="Path 388" d="M865.957,163.16c0,2.3-3.979,7.415-3.979,7.415S858,165.457,858,163.16a4.258,4.258,0,0,1,1.165-2.941,3.858,3.858,0,0,1,5.627,0A4.258,4.258,0,0,1,865.957,163.16Z" transform="translate(-680.769 -101.49)" fill="#ffd500"/>
      <path id="Path_389" data-name="Path 389" d="M867.609,166.643a1.962,1.962,0,0,1-.307,1.057,1.838,1.838,0,0,1-.816.7,1.746,1.746,0,0,1-1.051.108,1.8,1.8,0,0,1-.931-.52,1.932,1.932,0,0,1-.5-.974,1.983,1.983,0,0,1,.1-1.1,1.887,1.887,0,0,1,.67-.854,1.751,1.751,0,0,1,1.707-.176,1.816,1.816,0,0,1,.59.412,1.91,1.91,0,0,1,.394.617A1.982,1.982,0,0,1,867.609,166.643Z" transform="translate(-684.581 -105.156)" fill="#fff"/>
      <path id="Path_390" data-name="Path 390" d="M375.957,210.159c0,2.3-3.979,7.415-3.979,7.415S368,212.457,368,210.159a4.258,4.258,0,0,1,1.165-2.941,3.858,3.858,0,0,1,5.627,0A4.258,4.258,0,0,1,375.957,210.159Z" transform="translate(-368 -131.491)" fill="#ffd500"/>
      <path id="Path_391" data-name="Path 391" d="M377.609,213.643a1.962,1.962,0,0,1-.307,1.057,1.837,1.837,0,0,1-.816.7,1.744,1.744,0,0,1-1.051.108,1.8,1.8,0,0,1-.931-.52,1.931,1.931,0,0,1-.5-.974,1.983,1.983,0,0,1,.1-1.1,1.887,1.887,0,0,1,.67-.854,1.751,1.751,0,0,1,1.707-.176,1.817,1.817,0,0,1,.59.412,1.911,1.911,0,0,1,.394.617A1.983,1.983,0,0,1,377.609,213.643Z" transform="translate(-371.812 -135.156)" fill="#fff"/>
      <path id="Path_392" data-name="Path 392" d="M569.957,191.159c0,2.3-3.979,7.415-3.979,7.415S562,193.457,562,191.159a4.258,4.258,0,0,1,1.165-2.941,3.858,3.858,0,0,1,5.627,0A4.258,4.258,0,0,1,569.957,191.159Z" transform="translate(-491.831 -119.363)" fill="#ffd500"/>
      <path id="Path_393" data-name="Path 393" d="M571.609,194.643a1.962,1.962,0,0,1-.307,1.057,1.838,1.838,0,0,1-.816.7,1.745,1.745,0,0,1-1.051.108,1.8,1.8,0,0,1-.931-.52,1.932,1.932,0,0,1-.5-.974,1.983,1.983,0,0,1,.1-1.1,1.887,1.887,0,0,1,.67-.854,1.751,1.751,0,0,1,1.707-.176,1.816,1.816,0,0,1,.59.412,1.91,1.91,0,0,1,.394.617A1.983,1.983,0,0,1,571.609,194.643Z" transform="translate(-495.643 -123.028)" fill="#fff"/>
      <path id="Path_394" data-name="Path 394" d="M721.957,182.16c0,2.3-3.979,7.415-3.979,7.415S714,184.457,714,182.16a4.258,4.258,0,0,1,1.165-2.941,3.858,3.858,0,0,1,5.627,0A4.258,4.258,0,0,1,721.957,182.16Z" transform="translate(-588.853 -113.618)" fill="#ffd500"/>
      <path id="Path_395" data-name="Path 395" d="M723.609,185.643a1.962,1.962,0,0,1-.307,1.057,1.837,1.837,0,0,1-.816.7,1.745,1.745,0,0,1-1.051.108,1.8,1.8,0,0,1-.931-.52,1.931,1.931,0,0,1-.5-.974,1.983,1.983,0,0,1,.1-1.1,1.888,1.888,0,0,1,.67-.854,1.751,1.751,0,0,1,1.707-.176,1.816,1.816,0,0,1,.59.412,1.91,1.91,0,0,1,.394.617A1.983,1.983,0,0,1,723.609,185.643Z" transform="translate(-592.665 -117.283)" fill="#fff"/>
      <path id="Path_396" data-name="Path 396" d="M525.957,123.16c0,2.3-3.979,7.415-3.979,7.415S518,125.457,518,123.16a4.258,4.258,0,0,1,1.165-2.941,3.858,3.858,0,0,1,5.627,0A4.258,4.258,0,0,1,525.957,123.16Z" transform="translate(-463.746 -75.958)" fill="#ffd500"/>
      <path id="Path_397" data-name="Path 397" d="M527.609,126.643a1.962,1.962,0,0,1-.307,1.057,1.838,1.838,0,0,1-.816.7,1.745,1.745,0,0,1-1.051.108,1.8,1.8,0,0,1-.931-.52,1.932,1.932,0,0,1-.5-.974,1.983,1.983,0,0,1,.1-1.1,1.888,1.888,0,0,1,.67-.854,1.751,1.751,0,0,1,1.707-.176,1.816,1.816,0,0,1,.59.412,1.91,1.91,0,0,1,.394.617A1.982,1.982,0,0,1,527.609,126.643Z" transform="translate(-467.557 -79.623)" fill="#fff"/>
    </g>
    <line id="Line_27" data-name="Line 27" y1="19.696" x2="13.365" transform="translate(443.408 2677.137)" fill="none" stroke="#cfecff" stroke-linecap="round" stroke-width="3"/>
    <line id="Line_28" data-name="Line 28" x2="13.744" transform="translate(456.773 2677.137)" fill="none" stroke="#cfecff" stroke-linecap="round" stroke-width="3"/>
    <circle id="Ellipse_100" data-name="Ellipse 100" cx="2.532" cy="2.532" r="2.532" transform="translate(467.986 2674.606)" fill="#cfecff"/>
    <g id="Group_224" data-name="Group 224" transform="translate(464.128 2664.369)" clip-path="url(#clip-path-2)">
      <path id="Path_467" data-name="Path 467" d="M1242.9,177.524c1.693-4.561,5.689-8.5,10.518-8.971a22.47,22.47,0,0,0-3.534,14.981c.25,2.026.734,4.253-.354,5.978a5.008,5.008,0,0,1-3.1,2.031,14.777,14.777,0,0,1-3.78.25l-.282.14C1241.475,187.15,1241.215,182.086,1242.9,177.524Z" transform="translate(-1190.365 -160.106)" fill="#f0f0f0"/>
      <path id="Path_468" data-name="Path 468" d="M1254.592,168.461a19.13,19.13,0,0,0-7.1,9.4,8.236,8.236,0,0,0-.5,2.537,4.725,4.725,0,0,0,.637,2.407,9.83,9.83,0,0,1,1.06,2.121,2.915,2.915,0,0,1-.405,2.335,7.508,7.508,0,0,1-2.192,2.038,7.387,7.387,0,0,0-2.434,2.266c-.069.12-.25.008-.181-.112.973-1.727,3.016-2.354,4.264-3.821a2.943,2.943,0,0,0,.785-2.461,7.588,7.588,0,0,0-1.034-2.174,5.063,5.063,0,0,1-.709-2.331,7.628,7.628,0,0,1,.4-2.546,18.7,18.7,0,0,1,2.615-5.186,19.454,19.454,0,0,1,4.695-4.662c.112-.079.21.111.1.189Z" transform="translate(-1191.51 -159.914)" fill="#fff"/>
      <path id="Path_469" data-name="Path 469" d="M1252.823,185.167a2.878,2.878,0,0,1-1.432-3.435.107.107,0,0,1,.206.06,2.662,2.662,0,0,0,1.338,3.193C1253.058,185.046,1252.943,185.229,1252.823,185.167Z" transform="translate(-1196.487 -168.471)" fill="#fff"/>
      <path id="Path_470" data-name="Path 470" d="M1254.186,203.022a5.531,5.531,0,0,0,3.136-2.536c.069-.12.25-.007.181.112a5.743,5.743,0,0,1-3.266,2.632c-.13.041-.181-.167-.051-.209Z" transform="translate(-1198.309 -180.456)" fill="#fff"/>
      <path id="Path_471" data-name="Path 471" d="M1264.663,176.832a1.613,1.613,0,0,0,1.512.279c.134-.043.181.166.051.209a1.812,1.812,0,0,1-1.675-.3.108.108,0,0,1-.047-.067.105.105,0,0,1,.011-.081.109.109,0,0,1,.065-.048.111.111,0,0,1,.083.013Z" transform="translate(-1204.941 -165.38)" fill="#fff"/>
      <path id="Path_472" data-name="Path 472" d="M1266.013,197.926c-.083.029-.163.058-.246.089a21.462,21.462,0,0,0-3.15,1.451c-.08.043-.156.087-.235.132a22.578,22.578,0,0,0-6.3,5.407,22.127,22.127,0,0,0-1.881,2.75,14.241,14.241,0,0,1-2.622,3.8,3.466,3.466,0,0,1-.369.285l-7.7-1.827c-.014-.013-.032-.024-.047-.037l-.311-.059c.025-.052.054-.1.076-.156.014-.03.032-.06.047-.09a.53.53,0,0,0,.029-.059.173.173,0,0,1,.011-.018.282.282,0,0,1,.025-.052c.152-.3.3-.593.459-.889,0,0,0,0,0,0a32.317,32.317,0,0,1,4.272-6.312c.051-.057.1-.116.156-.171a20.976,20.976,0,0,1,2.481-2.343,18.533,18.533,0,0,1,1.519-1.088,15.332,15.332,0,0,1,4.4-1.921,12.159,12.159,0,0,1,9.176.985Z" transform="translate(-1191.313 -177.851)" fill="#f0f0f0"/>
      <path id="Path_473" data-name="Path 473" d="M1266.108,200.561a19.078,19.078,0,0,0-11.31,3.218,8.267,8.267,0,0,0-1.924,1.722,4.758,4.758,0,0,0-.933,2.308,9.979,9.979,0,0,1-.43,2.332,2.886,2.886,0,0,1-1.725,1.619,7.482,7.482,0,0,1-2.973.3,7.353,7.353,0,0,0-3.3.34c-.127.055-.2-.145-.08-.2,1.816-.791,3.823-.058,5.7-.475a2.93,2.93,0,0,0,2.1-1.491,7.579,7.579,0,0,0,.477-2.359,5.1,5.1,0,0,1,.832-2.291,7.593,7.593,0,0,1,1.852-1.79,18.469,18.469,0,0,1,5.2-2.562,19.4,19.4,0,0,1,6.547-.888c.134.005.1.217-.036.212Z" transform="translate(-1191.452 -180.393)" fill="#fff"/>
      <path id="Path_474" data-name="Path 474" d="M1277.316,201.284a2.877,2.877,0,0,1,.919-3.608c.112-.08.239.092.127.172a2.667,2.667,0,0,0-.846,3.358c.061.124-.137.2-.2.078Z" transform="translate(-1212.936 -178.682)" fill="#fff"/>
      <path id="Path_475" data-name="Path 475" d="M1266.813,219.632a5.511,5.511,0,0,0,4.026-.132c.127-.055.2.145.076.2a5.73,5.73,0,0,1-4.188.129C1266.6,219.782,1266.683,219.586,1266.813,219.632Z" transform="translate(-1206.321 -192.619)" fill="#fff"/>
      <path id="Path_476" data-name="Path 476" d="M1293.645,201.643a1.624,1.624,0,0,0,.376.7,1.6,1.6,0,0,0,.665.437c.13.044.043.241-.087.2a1.816,1.816,0,0,1-.734-.484,1.775,1.775,0,0,1-.42-.772.106.106,0,0,1,0-.081.105.105,0,0,1,.141-.056.114.114,0,0,1,.058.059Z" transform="translate(-1223.412 -181.184)" fill="#fff"/>
      <path id="Path_477" data-name="Path 477" d="M1118.724,259.428c-4.405-2.036-8.022-6.331-8.124-11.2a22.311,22.311,0,0,0,14.627,4.665c2.033-.094,4.286-.411,5.917.808a5.006,5.006,0,0,1,1.783,3.256,14.682,14.682,0,0,1-.036,3.8l.119.294C1128.186,261.582,1123.133,261.464,1118.724,259.428Z" transform="translate(-1106.706 -210.965)" fill="#f0f0f0"/>
      <path id="Path_478" data-name="Path 478" d="M1110.508,248.089a19.117,19.117,0,0,0,8.807,7.81,8.237,8.237,0,0,0,2.485.694,4.71,4.71,0,0,0,2.441-.456,9.732,9.732,0,0,1,2.188-.9,2.878,2.878,0,0,1,2.289.582,7.5,7.5,0,0,1,1.863,2.345,7.37,7.37,0,0,0,2.069,2.6c.116.077-.011.251-.127.174-1.642-1.1-2.112-3.194-3.476-4.555a2.924,2.924,0,0,0-2.387-.97,7.575,7.575,0,0,0-2.239.869,5.021,5.021,0,0,1-2.373.536,7.581,7.581,0,0,1-2.5-.6,18.526,18.526,0,0,1-4.959-3.007,19.459,19.459,0,0,1-4.279-5.046c-.072-.119.126-.2.2-.086Z" transform="translate(-1106.512 -210.838)" fill="#fff"/>
      <path id="Path_479" data-name="Path 479" d="M1125.536,268.233a2.863,2.863,0,0,1-3.523,1.173c-.127-.052-.054-.253.076-.2a2.649,2.649,0,0,0,3.273-1.1C1125.435,267.989,1125.605,268.116,1125.536,268.233Z" transform="translate(-1113.949 -223.622)" fill="#fff"/>
      <path id="Path_480" data-name="Path 480" d="M1143.8,264.82a5.538,5.538,0,0,0-2.286-3.326c-.112-.077.011-.251.127-.174a5.755,5.755,0,0,1,2.369,3.466C1144.04,264.921,1143.827,264.954,1143.8,264.82Z" transform="translate(-1126.409 -219.307)" fill="#fff"/>
      <path id="Path_481" data-name="Path 481" d="M1118.126,255.238a1.619,1.619,0,0,0,.383-.7,1.6,1.6,0,0,0,.007-.8c-.033-.135.181-.167.213-.034a1.832,1.832,0,0,1-.43,1.653.115.115,0,0,1-.069.042.108.108,0,0,1-.08-.018.1.1,0,0,1-.043-.07A.122.122,0,0,1,1118.126,255.238Z" transform="translate(-1111.498 -214.408)" fill="#fff"/>
      <path id="Path_482" data-name="Path 482" d="M1141.384,218.47c.022.083.047.166.069.25a21.741,21.741,0,0,0,1.2,3.26c.04.082.076.165.116.245a22.538,22.538,0,0,0,4.9,6.713,21.609,21.609,0,0,0,2.59,2.088,14.242,14.242,0,0,1,3.584,2.912,4,4,0,0,1,.253.389l-2.4,7.561c-.015.014-.025.029-.04.044l-.083.306c-.047-.029-.1-.06-.148-.089l-.087-.052c-.018-.012-.036-.023-.054-.033a.117.117,0,0,1-.018-.011c-.018-.009-.033-.02-.051-.029q-.423-.261-.846-.529s0,0,0,0a32.128,32.128,0,0,1-5.953-4.748c-.054-.055-.108-.11-.159-.169a20.9,20.9,0,0,1-2.141-2.657,18.5,18.5,0,0,1-.969-1.6,15.463,15.463,0,0,1-1.577-4.546,12.241,12.241,0,0,1,1.675-9.1C1141.29,218.6,1141.337,218.536,1141.384,218.47Z" transform="translate(-1125.051 -191.968)" fill="#f0f0f0"/>
      <path id="Path_483" data-name="Path 483" d="M1144.657,218.372A19.225,19.225,0,0,0,1147,229.927a8.256,8.256,0,0,0,1.566,2.054,4.728,4.728,0,0,0,2.224,1.11,9.731,9.731,0,0,1,2.286.6,2.889,2.889,0,0,1,1.479,1.848,7.525,7.525,0,0,1,.079,3,7.441,7.441,0,0,0,.087,3.329c.047.131-.159.193-.2.063-.651-1.874.231-3.826-.043-5.736a2.93,2.93,0,0,0-1.324-2.216,7.539,7.539,0,0,0-2.307-.658,5.022,5.022,0,0,1-2.214-1,7.612,7.612,0,0,1-1.642-1.986,18.608,18.608,0,0,1-2.152-5.4,19.549,19.549,0,0,1-.391-6.614c.018-.137.224-.087.21.049Z" transform="translate(-1128.234 -191.822)" fill="#fff"/>
      <path id="Path_484" data-name="Path 484" d="M1132.252,274.9a2.865,2.865,0,0,1-3.519-1.191c-.069-.118.112-.234.181-.115a2.652,2.652,0,0,0,3.273,1.1C1132.317,274.647,1132.379,274.852,1132.252,274.9Z" transform="translate(-1118.271 -227.124)" fill="#fff"/>
      <path id="Path_485" data-name="Path 485" d="M1161.073,251.841a5.535,5.535,0,0,0,.174-4.035c-.043-.131.159-.194.206-.063a5.786,5.786,0,0,1-.188,4.2C1161.207,252.068,1161.019,251.967,1161.073,251.841Z" transform="translate(-1138.917 -210.607)" fill="#fff"/>
      <path id="Path_486" data-name="Path 486" d="M1133.686,258.881a1.613,1.613,0,0,0,.724-.325,1.589,1.589,0,0,0,.485-.631c.054-.127.242-.026.192.1a1.831,1.831,0,0,1-1.338,1.06.11.11,0,0,1-.079-.009.119.119,0,0,1-.054-.062.108.108,0,0,1,.011-.082A.092.092,0,0,1,1133.686,258.881Z" transform="translate(-1121.393 -217.115)" fill="#fff"/>
      <path id="Path_487" data-name="Path 487" d="M1141.219,199.909c-3.892-3.845-5.538-7.856-4.63-11.3,1.165-4.413,6.341-7.464,14.2-8.371l.029.253c-7.747.894-12.844,3.877-13.98,8.183-.882,3.346.738,7.27,4.565,11.048Z" transform="translate(-1123.14 -167.567)" fill="#f0f0f0"/>
      <path id="Path_488" data-name="Path 488" d="M1196.192,254.972a60.805,60.805,0,0,1-15.39-2.118,57.914,57.914,0,0,1-17.2-7.519l.141-.212a57.666,57.666,0,0,0,17.126,7.485,59.213,59.213,0,0,0,17.011,2.079l.007.254Q1197.05,254.972,1196.192,254.972Z" transform="translate(-1140.536 -208.981)" fill="#f0f0f0"/>
      <path id="Path_489" data-name="Path 489" d="M1251.255,215.208l-.08-.241c4.348-1.474,7.067-3.849,7.863-6.867,1.013-3.838-1.19-8.29-6.2-12.539-5.035-4.27-12.294-7.813-20.443-9.976l.065-.246c8.185,2.173,15.481,5.734,20.541,10.028,5.089,4.315,7.317,8.861,6.279,12.8C1258.464,211.27,1255.69,213.705,1251.255,215.208Z" transform="translate(-1184.451 -170.82)" fill="#f0f0f0"/>
      <path id="Path_490" data-name="Path 490" d="M1137.612,245.008c-9.552-4.248-16.909-9.76-20.722-15.52l.21-.141c3.787,5.72,11.108,11.2,20.613,15.428Z" transform="translate(-1110.721 -198.911)" fill="#f0f0f0"/>
      <path id="Path_491" data-name="Path 491" d="M1260.826,276.513q-1.476,0-3.006-.066l.011-.255c7.6.33,14.312-.582,19.4-2.639l.094.236A44.755,44.755,0,0,1,1260.826,276.513Z" transform="translate(-1200.677 -227.128)" fill="#f0f0f0"/>
      <path id="Path_492" data-name="Path 492" d="M1196.26,172.892c-1.577-.515-3.2-1-4.825-1.427a75.633,75.633,0,0,0-26.559-2.547l-.025-.254a75.9,75.9,0,0,1,26.65,2.554c1.628.433,3.259.914,4.839,1.431Z" transform="translate(-1141.334 -159.988)" fill="#f0f0f0"/>
      <path id="Path_493" data-name="Path 493" d="M1124.719,200.965c-3.892-3.845-5.538-7.857-4.63-11.3,1.165-4.413,6.337-7.464,14.2-8.371l.029.253c-7.747.894-12.844,3.877-13.979,8.183-.886,3.346.738,7.27,4.561,11.048Z" transform="translate(-1112.608 -168.242)" fill="#f0f0f0"/>
      <path id="Path_494" data-name="Path 494" d="M1179.689,256.026a60.775,60.775,0,0,1-15.386-2.117,57.873,57.873,0,0,1-17.2-7.519l.141-.212a57.617,57.617,0,0,0,17.126,7.485,59.177,59.177,0,0,0,17.007,2.079l.011.254C1180.828,256.016,1180.26,256.027,1179.689,256.026Z" transform="translate(-1130.004 -209.654)" fill="#f0f0f0"/>
      <path id="Path_495" data-name="Path 495" d="M1234.755,216.265l-.08-.241c4.348-1.474,7.064-3.849,7.863-6.868,1.013-3.837-1.19-8.29-6.2-12.539-5.035-4.27-12.294-7.813-20.443-9.976l.065-.246c8.185,2.173,15.477,5.734,20.541,10.028,5.085,4.315,7.317,8.86,6.275,12.8C1241.964,212.327,1239.186,214.762,1234.755,216.265Z" transform="translate(-1173.919 -171.494)" fill="#f0f0f0"/>
      <path id="Path_496" data-name="Path 496" d="M1121.112,246.064c-9.552-4.248-16.909-9.76-20.722-15.52l.21-.141c3.787,5.72,11.108,11.2,20.613,15.428Z" transform="translate(-1100.189 -199.585)" fill="#f0f0f0"/>
      <path id="Path_497" data-name="Path 497" d="M1244.326,277.57q-1.476,0-3.006-.066l.011-.254c7.6.33,14.312-.583,19.4-2.64l.094.237A44.777,44.777,0,0,1,1244.326,277.57Z" transform="translate(-1190.145 -227.802)" fill="#f0f0f0"/>
      <path id="Path_498" data-name="Path 498" d="M1179.753,173.949c-1.577-.515-3.2-1-4.825-1.427a75.653,75.653,0,0,0-26.563-2.547l-.025-.253a75.9,75.9,0,0,1,26.653,2.554c1.627.432,3.255.914,4.839,1.431Z" transform="translate(-1130.796 -160.663)" fill="#f0f0f0"/>
      <path id="Path_499" data-name="Path 499" d="M1202.549,197.378a5.6,5.6,0,0,0-.166-.878,5.419,5.419,0,0,0-.322-.84,4.945,4.945,0,0,0-2.217-2.312,5.907,5.907,0,0,0-3.9-.358,7.653,7.653,0,0,0-3.009,1.414,7.875,7.875,0,0,0-1.259,1.188,15.571,15.571,0,0,0-1.154,1.858,7.708,7.708,0,0,0-1.714-2.458,8.031,8.031,0,0,0-2.951-1.789,7.44,7.44,0,0,0-1.808-.369,5.735,5.735,0,0,0-1.939.17,4.889,4.889,0,0,0-2.767,2.028,5.115,5.115,0,0,0-.864,3.121,5.252,5.252,0,0,0,.354,1.63,5.851,5.851,0,0,0,3.783,3.483,8.547,8.547,0,0,0,3.729.21,17.43,17.43,0,0,0,3.7-1.047c.163-.06.322-.123.481-.184a23.376,23.376,0,0,0,3.259,1.06,9.783,9.783,0,0,0,3.838.154,6.146,6.146,0,0,0,3.179-1.559,5.731,5.731,0,0,0,1.649-2.87A4.985,4.985,0,0,0,1202.549,197.378Zm-16.537,4.868a8.538,8.538,0,0,1-2.076.012,6.492,6.492,0,0,1-1.443-.385,4.548,4.548,0,0,1-2.431-2.421,5,5,0,0,1-.293-1.072,4.485,4.485,0,0,1,0-.985,4.6,4.6,0,0,1,.275-1,4.9,4.9,0,0,1,.517-.889,4.479,4.479,0,0,1,.669-.673,4.021,4.021,0,0,1,.749-.44,4.519,4.519,0,0,1,.98-.263,5.752,5.752,0,0,1,1.364.01,6.979,6.979,0,0,1,1.57.435,7.451,7.451,0,0,1,1.516.885,7.2,7.2,0,0,1,1.168,1.169,7.4,7.4,0,0,1,.854,1.471,7.625,7.625,0,0,1,.456,1.7v.008a7.9,7.9,0,0,0-.047.88c0,.113,0,.226.011.339a.639.639,0,0,0-.134.179,21.444,21.444,0,0,1-2.713.863C1186.674,202.137,1186.345,202.2,1186.012,202.246Zm15.267-3.867a4.808,4.808,0,0,1-.3,1.073,4.511,4.511,0,0,1-2.43,2.421,6.394,6.394,0,0,1-1.443.385,8.519,8.519,0,0,1-2.076-.013,17.126,17.126,0,0,1-3.563-1c-.051-.018-.1-.037-.145-.055a.688.688,0,0,0-.127-.177,7.744,7.744,0,0,0-.036-1.229,7.417,7.417,0,0,1,.456-1.692,7.206,7.206,0,0,1,.85-1.471,6.709,6.709,0,0,1,2.684-2.054,7.065,7.065,0,0,1,1.573-.435,5.753,5.753,0,0,1,1.364-.01,4.577,4.577,0,0,1,.98.263,4.148,4.148,0,0,1,.749.44,4.305,4.305,0,0,1,.666.673,4.729,4.729,0,0,1,.521.889,4.825,4.825,0,0,1,.275,1A4.5,4.5,0,0,1,1201.279,198.379Z" transform="translate(-1150.028 -175.591)" fill="#3f3d56"/>
      <path id="Path_500" data-name="Path 500" d="M1236.6,150.621a1.816,1.816,0,0,0,1.772-.209,3.633,3.633,0,0,0,1.089-2.1l.6-2.308-1.009.615a7.085,7.085,0,0,0-1.993,1.569,2.419,2.419,0,0,0-.445,2.39" transform="translate(-1187.038 -145.71)" fill="#f2f2f2"/>
      <path id="Path_501" data-name="Path 501" d="M1156.053,205.162a1.829,1.829,0,0,0,.373-.846,1.854,1.854,0,0,0-.087-.921,3.619,3.619,0,0,0-1.722-1.626l-2.047-1.208.311,1.142a7.118,7.118,0,0,0,.958,2.352,2.406,2.406,0,0,0,2.17,1.083" transform="translate(-1133.495 -180.536)" fill="#f2f2f2"/>
      <path id="Path_502" data-name="Path 502" d="M1186.463,183.267a1.019,1.019,0,1,0-1.013-1.019A1.016,1.016,0,0,0,1186.463,183.267Z" transform="translate(-1154.483 -168.197)" fill="#0095c9"/>
      <path id="Path_503" data-name="Path 503" d="M1111.676,266.373a1.019,1.019,0,1,0-1.016-1.019A1.018,1.018,0,0,0,1111.676,266.373Z" transform="translate(-1106.744 -221.244)" fill="#0095c9"/>
      <path id="Path_504" data-name="Path 504" d="M1304.786,243.484a1.019,1.019,0,1,0-1.016-1.019A1.018,1.018,0,0,0,1304.786,243.484Z" transform="translate(-1230.007 -206.634)" fill="#0095c9"/>
      <path id="Path_505" data-name="Path 505" d="M1108.866,195.592a1.019,1.019,0,1,0-1.016-1.019A1.018,1.018,0,0,0,1108.866,195.592Z" transform="translate(-1104.951 -176.064)" fill="#e6e6e6"/>
      <path id="Path_506" data-name="Path 506" d="M1282.666,275.882a1.019,1.019,0,1,0-1.016-1.019A1.018,1.018,0,0,0,1282.666,275.882Z" transform="translate(-1215.888 -227.313)" fill="#e6e6e6"/>
      <path id="Path_507" data-name="Path 507" d="M1288.286,190.309a1.019,1.019,0,1,0-1.016-1.019A1.015,1.015,0,0,0,1288.286,190.309Z" transform="translate(-1219.475 -172.692)" fill="#e6e6e6"/>
      <path id="Path_508" data-name="Path 508" d="M1158.65,226.938a.3.3,0,0,1-.42.032.341.341,0,0,1,0-.492c.365-.437.966.025,1.045.459a1.08,1.08,0,0,1-.09.621,1.119,1.119,0,0,1-.42.467,1.169,1.169,0,0,1-1.309-.172,1.422,1.422,0,0,1,.282-2.292,1.98,1.98,0,0,1,1.714.079,14.674,14.674,0,0,1,1.628,1.02A9.042,9.042,0,0,0,1165,228c.246.025.242-.357,0-.382a8.686,8.686,0,0,1-2.25-.544,9.906,9.906,0,0,1-2.025-1.114,4.478,4.478,0,0,0-2.087-.935,1.817,1.817,0,0,0-2,1.51,1.915,1.915,0,0,0,.051.847,1.724,1.724,0,0,0,.5.741,1.7,1.7,0,0,0,.8.387,1.4,1.4,0,0,0,1.479-.684,1.308,1.308,0,0,0-.159-1.6,1.01,1.01,0,0,0-.984-.268.866.866,0,0,0-.582.746.682.682,0,0,0,1.233.419c.13-.208-.2-.4-.329-.193Z" transform="translate(-1136.074 -196.146)" fill="#3f3d56"/>
      <path id="Path_509" data-name="Path 509" d="M1252.367,226.938a.306.306,0,0,0,.423.032.338.338,0,0,0,0-.492c-.362-.437-.966.025-1.045.459a1.113,1.113,0,0,0,.094.621,1.074,1.074,0,0,0,.42.467,1.171,1.171,0,0,0,1.309-.172,1.424,1.424,0,0,0-.286-2.292,1.971,1.971,0,0,0-1.711.079,14.036,14.036,0,0,0-1.628,1.02,9.056,9.056,0,0,1-3.921,1.342c-.242.025-.242-.357,0-.382a8.676,8.676,0,0,0,2.253-.544,9.881,9.881,0,0,0,2.022-1.114,4.491,4.491,0,0,1,2.091-.935,1.8,1.8,0,0,1,1.667.729,1.835,1.835,0,0,1,.279,1.628,1.706,1.706,0,0,1-1.306,1.128,1.391,1.391,0,0,1-.846-.1,1.406,1.406,0,0,1-.629-.579,1.307,1.307,0,0,1,.156-1.6,1.03,1.03,0,0,1,.456-.267,1.01,1.01,0,0,1,.528,0,.878.878,0,0,1,.405.286.888.888,0,0,1,.181.46.685.685,0,0,1-1.237.419c-.13-.208.2-.4.329-.193Z" transform="translate(-1193.029 -196.146)" fill="#3f3d56"/>
      <path id="Path_510" data-name="Path 510" d="M1126.232,156.942l-.5.633-1.78-1.056.5-.633Z" transform="translate(-1115.227 -152.02)" fill="#e4e4e4"/>
      <path id="Path_511" data-name="Path 511" d="M1132.1,166.327l.445.665-1.87.933-.441-.665Z" transform="translate(-1119.236 -158.685)" fill="#e4e4e4"/>
      <path id="Path_512" data-name="Path 512" d="M1140.59,158.331l.886.031-.087,1.864-.89-.031Z" transform="translate(-1125.791 -153.581)" fill="#e4e4e4"/>
      <path id="Path_513" data-name="Path 513" d="M1300.032,264.7l-.5.633-1.78-1.056.5-.633Z" transform="translate(-1226.165 -220.803)" fill="#e4e4e4"/>
      <path id="Path_514" data-name="Path 514" d="M1305.89,274.086l.445.665-1.87.933-.445-.665Z" transform="translate(-1230.167 -227.468)" fill="#e4e4e4"/>
      <path id="Path_515" data-name="Path 515" d="M1314.387,266.089l.89.031-.087,1.864-.89-.031Z" transform="translate(-1236.729 -222.363)" fill="#e4e4e4"/>
      <g id="Group_223" data-name="Group 223" transform="translate(19.31 23.153)" clip-path="url(#clip-path-3)">
        <path id="Path_516" data-name="Path 516" d="M1187.128,265.786a32.062,32.062,0,0,1-13.021-2.857,1.367,1.367,0,0,1-.6-.511,1.391,1.391,0,0,1-.221-.753V250.446a1.391,1.391,0,0,1,1.385-1.386h24.906a1.385,1.385,0,0,1,1.385,1.386v11.219a1.39,1.39,0,0,1-.221.753,1.365,1.365,0,0,1-.6.511A32.048,32.048,0,0,1,1187.128,265.786Z" transform="translate(-1166.031 -234.647)" fill="#4896ef"/>
        <path id="Path_517" data-name="Path 517" d="M1174.244,237.306a1.394,1.394,0,0,1-.539-.109l-19.748-8.348a1.358,1.358,0,0,1-.622-.521,1.392,1.392,0,0,1-.224-.781,1.391,1.391,0,0,1,.893-1.271l19.752-7.507a1.376,1.376,0,0,1,.988,0l19.485,7.507a1.393,1.393,0,0,1,.636.5,1.386,1.386,0,0,1-.589,2.07l-19.485,8.348A1.4,1.4,0,0,1,1174.244,237.306Z" transform="translate(-1153.15 -215.255)" fill="#4896ef"/>
        <path id="Path_518" data-name="Path 518" d="M1176.415,282.992a1.848,1.848,0,1,0-1.845-1.848A1.846,1.846,0,0,0,1176.415,282.992Z" transform="translate(-1166.848 -253.947)" fill="#3f3d56"/>
        <path id="Path_519" data-name="Path 519" d="M1194.836,242.6l-19.488,8.348a1.227,1.227,0,0,1-.962,0l-19.749-8.348a1.207,1.207,0,0,1-.59-.518,1.231,1.231,0,0,0-.1,1.008,1.312,1.312,0,0,0,.264.445,1.23,1.23,0,0,0,.427.3l19.749,8.348a1.228,1.228,0,0,0,.962,0l19.488-8.348a1.245,1.245,0,0,0,.684-.743,1.3,1.3,0,0,0,.058-.514,1.248,1.248,0,0,0-.159-.492A1.213,1.213,0,0,1,1194.836,242.6Z" transform="translate(-1153.643 -230.197)" opacity="0.2"/>
        <path id="Path_520" data-name="Path 520" d="M1179.557,258.031a.308.308,0,0,0,.307-.308V247.415l10.142-3.7a.309.309,0,0,0,.311-.3.307.307,0,0,0-.3-.312l-10.142,3.7a.613.613,0,0,0-.239.043.555.555,0,0,0-.2.134.582.582,0,0,0-.138.2.6.6,0,0,0-.047.238v10.308a.308.308,0,0,0,.09.218A.3.3,0,0,0,1179.557,258.031Z" transform="translate(-1169.835 -230.842)" fill="#3f3d56"/>
        <path id="Path_521" data-name="Path 521" d="M1251.583,274.768a1.838,1.838,0,0,0,.286-1.768,3.617,3.617,0,0,0-1.722-1.626l-2.047-1.209.311,1.142a7.131,7.131,0,0,0,.962,2.352,2.4,2.4,0,0,0,2.17,1.083" transform="translate(-1213.782 -248.119)" fill="#f2f2f2"/>
      </g>
    </g>
  </g>
</svg>
